STARTFONT 2.1
FONT -Misc-Fixed-Medium-R-Normal--30-290-75-75-C-150-ISO10646-1
SIZE 29 75 75
FONTBOUNDINGBOX 15 30 0 -6
COMMENT "Generated by fontforge, http://fontforge.sourceforge.net"
COMMENT "Public domain font.  Share and enjoy."
STARTPROPERTIES 32
FOUNDRY "Misc"
FAMILY_NAME "Fixed"
WEIGHT_NAME "Medium"
SLANT "R"
SETWIDTH_NAME "Normal"
ADD_STYLE_NAME ""
PIXEL_SIZE 30
POINT_SIZE 290
RESOLUTION_X 75
RESOLUTION_Y 75
SPACING "C"
AVERAGE_WIDTH 150
CHARSET_REGISTRY "ISO10646"
CHARSET_ENCODING "1"
FONTNAME_REGISTRY ""
CHARSET_COLLECTIONS "ASCII ISOLatin1Encoding ISO8859-2 ISO8859-5 ISO8859-7 ISO8859-9 ISO8859-8 ISO8859-6 ISO8859-4 ISO8859-11 ISO10646-1"
FONT_NAME "FixedMedium"
FACE_NAME "Fixed Medium"
COPYRIGHT "Public domain font.  Share and enjoy."
FONT_VERSION "001.000"
FONT_ASCENT 24
FONT_DESCENT 6
UNDERLINE_POSITION -3
UNDERLINE_THICKNESS 2
X_HEIGHT 11
CAP_HEIGHT 19
RAW_ASCENT 800
RAW_DESCENT 200
NORM_SPACE 15
FIGURE_WIDTH 15
AVG_LOWERCASE_WIDTH 150
AVG_UPPERCASE_WIDTH 150
ENDPROPERTIES
CHARS 5205
STARTCHAR char0
ENCODING 0
SWIDTH 480 0
DWIDTH 15 0
BBX 13 20 1 0
BITMAP
78F0
F8F8
C018
C018
C018
0000
0000
0000
C018
C018
C018
C018
4010
0000
0000
4010
C018
C018
F8F8
F8F8
ENDCHAR
STARTCHAR space
ENCODING 32
SWIDTH 480 0
DWIDTH 15 0
BBX 1 1 14 -6
BITMAP
00
ENDCHAR
STARTCHAR exclam
ENCODING 33
SWIDTH 480 0
DWIDTH 15 0
BBX 3 20 6 0
BITMAP
E0
E0
E0
E0
E0
E0
E0
E0
E0
E0
E0
E0
E0
E0
E0
E0
00
E0
E0
E0
ENDCHAR
STARTCHAR quotedbl
ENCODING 34
SWIDTH 480 0
DWIDTH 15 0
BBX 9 7 3 13
BITMAP
E380
E380
E380
E380
E380
6300
2200
ENDCHAR
STARTCHAR numbersign
ENCODING 35
SWIDTH 480 0
DWIDTH 15 0
BBX 14 17 1 1
BITMAP
0778
0778
0778
0778
3FFC
3FFC
1EE0
1EE0
1EE0
1EE0
7FF0
FFF8
3BC0
3BC0
3BC0
3BC0
3980
ENDCHAR
STARTCHAR dollar
ENCODING 36
SWIDTH 480 0
DWIDTH 15 0
BBX 13 20 1 0
BITMAP
0700
0700
3FE0
7FF0
F778
F700
F700
F700
F700
7FE0
3FE0
0778
0778
0778
0778
6778
F778
3FE0
3FE0
0700
ENDCHAR
STARTCHAR percent
ENCODING 37
SWIDTH 480 0
DWIDTH 15 0
BBX 14 18 1 0
BITMAP
3E78
7F78
F778
F7E0
7FE0
3EE0
03C0
03C0
03C0
0700
0700
0700
1EF8
1FFC
1FDC
3BDC
39FC
38F8
ENDCHAR
STARTCHAR ampersand
ENCODING 38
SWIDTH 480 0
DWIDTH 15 0
BBX 14 20 1 0
BITMAP
0F00
1F00
3BC0
3BC0
3BC0
3BC0
3F80
3F00
1E00
3E00
3E00
F700
F79C
F3DC
F0F8
F0F0
F0E0
FBF8
7FFC
3F1C
ENDCHAR
STARTCHAR quotesingle
ENCODING 39
SWIDTH 480 0
DWIDTH 15 0
BBX 3 8 6 12
BITMAP
E0
E0
E0
E0
E0
E0
E0
C0
ENDCHAR
STARTCHAR parenleft
ENCODING 40
SWIDTH 480 0
DWIDTH 15 0
BBX 8 20 4 0
BITMAP
07
07
1E
3C
38
38
78
F0
F0
F0
F0
F0
F0
F0
38
38
38
1E
0F
07
ENDCHAR
STARTCHAR parenright
ENCODING 41
SWIDTH 480 0
DWIDTH 15 0
BBX 8 20 3 0
BITMAP
E0
E0
78
3C
1C
1C
1E
0F
0F
0F
0F
0F
0F
0F
1C
1C
1C
78
F0
E0
ENDCHAR
STARTCHAR asterisk
ENCODING 42
SWIDTH 480 0
DWIDTH 15 0
BBX 13 11 1 4
BITMAP
38E0
38E0
38E0
1FC0
7FF0
FFF8
1FC0
3FE0
38E0
38E0
38E0
ENDCHAR
STARTCHAR plus
ENCODING 43
SWIDTH 480 0
DWIDTH 15 0
BBX 13 11 1 4
BITMAP
0700
0700
0700
0700
7FF0
FFF8
0700
0700
0700
0700
0700
ENDCHAR
STARTCHAR comma
ENCODING 44
SWIDTH 480 0
DWIDTH 15 0
BBX 7 5 4 -2
BITMAP
3E
3E
3E
F8
78
ENDCHAR
STARTCHAR hyphen
ENCODING 45
SWIDTH 480 0
DWIDTH 15 0
BBX 13 2 1 9
BITMAP
7FF0
FFF8
ENDCHAR
STARTCHAR period
ENCODING 46
SWIDTH 480 0
DWIDTH 15 0
BBX 5 5 6 0
BITMAP
F0
F8
F8
F8
F8
ENDCHAR
STARTCHAR slash
ENCODING 47
SWIDTH 480 0
DWIDTH 15 0
BBX 11 18 3 0
BITMAP
01E0
01E0
01E0
0380
0380
0380
0F00
0F00
0F00
1C00
1C00
1C00
7800
7800
7800
E000
E000
E000
ENDCHAR
STARTCHAR zero
ENCODING 48
SWIDTH 480 0
DWIDTH 15 0
BBX 13 20 1 0
BITMAP
0700
0700
1FC0
3FE0
38E0
38E0
78F0
F078
F078
F078
F078
F078
F078
F078
38E0
38E0
38E0
1FC0
0F80
0700
ENDCHAR
STARTCHAR one
ENCODING 49
SWIDTH 480 0
DWIDTH 15 0
BBX 13 20 1 0
BITMAP
0700
0700
1F00
3F00
3F00
F700
6700
0700
0700
0700
0700
0700
0700
0700
0700
0700
0700
0700
7FF0
FFF8
ENDCHAR
STARTCHAR two
ENCODING 50
SWIDTH 480 0
DWIDTH 15 0
BBX 13 20 1 0
BITMAP
0F80
1FC0
38E0
78F0
F078
F078
6078
0078
0078
00F0
00E0
07C0
0F80
1E00
3800
7800
F000
F000
FFF0
FFF8
ENDCHAR
STARTCHAR three
ENCODING 51
SWIDTH 480 0
DWIDTH 15 0
BBX 13 20 1 0
BITMAP
0F80
1FC0
38E0
78F0
F078
F078
6078
0078
00E0
07E0
07C0
00E0
00F0
0078
F078
F078
F078
38E0
3FE0
1FC0
ENDCHAR
STARTCHAR four
ENCODING 52
SWIDTH 480 0
DWIDTH 15 0
BBX 13 20 1 0
BITMAP
0020
0060
00E0
01E0
03E0
07E0
0FE0
1EE0
38E0
78E0
F0E0
F0E0
FFF0
FFF8
00E0
00E0
00E0
00E0
00E0
00E0
ENDCHAR
STARTCHAR five
ENCODING 53
SWIDTH 480 0
DWIDTH 15 0
BBX 13 20 1 0
BITMAP
7FF0
FFF8
F000
F000
F000
F000
F000
F000
F7C0
FFE0
F8E0
0078
0078
0078
0078
6078
F078
38E0
3FE0
1FC0
ENDCHAR
STARTCHAR six
ENCODING 54
SWIDTH 480 0
DWIDTH 15 0
BBX 13 20 1 0
BITMAP
0F80
1FC0
38E0
78E0
F060
F000
F000
F000
F7C0
FFE0
F8E0
F078
F078
F078
F078
F078
F078
38E0
3FE0
1FC0
ENDCHAR
STARTCHAR seven
ENCODING 55
SWIDTH 480 0
DWIDTH 15 0
BBX 13 20 1 0
BITMAP
7FF0
FFF8
0078
0078
0078
00E0
00E0
00E0
03C0
03C0
03C0
0700
0700
0700
1E00
1E00
1E00
3800
3800
3800
ENDCHAR
STARTCHAR eight
ENCODING 56
SWIDTH 480 0
DWIDTH 15 0
BBX 13 20 1 0
BITMAP
0F80
1FC0
38E0
78F0
F078
F078
F078
F078
38E0
3FE0
1FC0
38E0
78F0
F078
F078
F078
F078
38E0
3FE0
1FC0
ENDCHAR
STARTCHAR nine
ENCODING 57
SWIDTH 480 0
DWIDTH 15 0
BBX 13 20 1 0
BITMAP
0F80
1FC0
38E0
78F0
F078
F078
F078
F078
F078
78F8
38F8
1F78
0F78
0078
0078
2078
3078
38E0
3FE0
1FC0
ENDCHAR
STARTCHAR colon
ENCODING 58
SWIDTH 480 0
DWIDTH 15 0
BBX 5 12 6 0
BITMAP
F8
F8
F8
00
00
00
00
00
00
F8
F8
F8
ENDCHAR
STARTCHAR semicolon
ENCODING 59
SWIDTH 480 0
DWIDTH 15 0
BBX 7 14 4 -2
BITMAP
3E
3E
3E
00
00
00
00
00
00
3E
3E
3E
F8
78
ENDCHAR
STARTCHAR less
ENCODING 60
SWIDTH 480 0
DWIDTH 15 0
BBX 11 20 1 0
BITMAP
0020
0060
00E0
01E0
03C0
0700
0F00
1E00
3800
7800
F000
3800
3C00
1E00
0700
0780
03C0
00E0
00E0
0060
ENDCHAR
STARTCHAR equal
ENCODING 61
SWIDTH 480 0
DWIDTH 15 0
BBX 13 10 1 4
BITMAP
7FF0
FFF8
0000
0000
0000
0000
0000
0000
FFF8
7FF0
ENDCHAR
STARTCHAR greater
ENCODING 62
SWIDTH 480 0
DWIDTH 15 0
BBX 11 20 3 0
BITMAP
8000
C000
E000
F000
7800
1C00
1E00
0F00
0380
03C0
01E0
0380
0780
0F00
1C00
3C00
7800
E000
E000
C000
ENDCHAR
STARTCHAR question
ENCODING 63
SWIDTH 480 0
DWIDTH 15 0
BBX 13 20 1 0
BITMAP
0F80
1FC0
38E0
78F0
F078
F078
F078
F078
00E0
01E0
03C0
0700
0700
0700
0700
0700
0000
0700
0700
0700
ENDCHAR
STARTCHAR at
ENCODING 64
SWIDTH 480 0
DWIDTH 15 0
BBX 13 20 1 0
BITMAP
0F80
1FC0
38E0
78F0
F078
F3F8
F7F8
F7F8
F778
F778
F778
F778
F7F0
F7E0
F3C0
F180
F000
3878
3FF0
1FE0
ENDCHAR
STARTCHAR A
ENCODING 65
SWIDTH 480 0
DWIDTH 15 0
BBX 13 20 1 0
BITMAP
0700
0700
1FC0
3FE0
38E0
38E0
78F0
F078
F078
F078
F078
FFF8
FFF8
F078
F078
F078
F078
F078
F078
F078
ENDCHAR
STARTCHAR B
ENCODING 66
SWIDTH 480 0
DWIDTH 15 0
BBX 13 20 1 0
BITMAP
7F00
FF00
F3C0
F1E0
F0E0
F0E0
F0E0
F0E0
F3C0
FFC0
FFC0
F0E0
F0F0
F078
F078
F078
F078
F0E0
FFE0
FFC0
ENDCHAR
STARTCHAR C
ENCODING 67
SWIDTH 480 0
DWIDTH 15 0
BBX 13 20 1 0
BITMAP
0F80
1FC0
38E0
78F0
F078
F000
F000
F000
F000
F000
F000
F000
F000
F000
F000
F030
F078
38E0
3FE0
1FC0
ENDCHAR
STARTCHAR D
ENCODING 68
SWIDTH 480 0
DWIDTH 15 0
BBX 13 20 1 0
BITMAP
7F80
FFC0
F0E0
F0F0
F078
F078
F078
F078
F078
F078
F078
F078
F078
F078
F078
F078
F078
F0E0
FFE0
FFC0
ENDCHAR
STARTCHAR E
ENCODING 69
SWIDTH 480 0
DWIDTH 15 0
BBX 13 20 1 0
BITMAP
7FF0
FFF8
F000
F000
F000
F000
F000
F000
F000
FF80
FFC0
F000
F000
F000
F000
F000
F000
F000
FFF0
FFF8
ENDCHAR
STARTCHAR F
ENCODING 70
SWIDTH 480 0
DWIDTH 15 0
BBX 13 20 1 0
BITMAP
7FF0
FFF8
F000
F000
F000
F000
F000
F000
F000
FF80
FFC0
F000
F000
F000
F000
F000
F000
F000
F000
F000
ENDCHAR
STARTCHAR G
ENCODING 71
SWIDTH 480 0
DWIDTH 15 0
BBX 13 20 1 0
BITMAP
0F80
1FC0
38E0
78F0
F078
F000
F000
F000
F000
F1F0
F3F8
F078
F078
F078
F078
F078
F078
38F8
3FF8
1FD8
ENDCHAR
STARTCHAR H
ENCODING 72
SWIDTH 480 0
DWIDTH 15 0
BBX 13 20 1 0
BITMAP
6030
F078
F078
F078
F078
F078
F078
F078
F078
FFF8
FFF8
F078
F078
F078
F078
F078
F078
F078
F078
F078
ENDCHAR
STARTCHAR I
ENCODING 73
SWIDTH 480 0
DWIDTH 15 0
BBX 13 20 1 0
BITMAP
7FF0
FFF8
0700
0700
0700
0700
0700
0700
0700
0700
0700
0700
0700
0700
0700
0700
0700
0700
7FF0
FFF8
ENDCHAR
STARTCHAR J
ENCODING 74
SWIDTH 480 0
DWIDTH 15 0
BBX 14 20 1 0
BITMAP
07FC
07FC
00E0
00E0
00E0
00E0
00E0
00E0
00E0
00E0
00E0
00E0
00E0
00E0
F0E0
F0E0
F0E0
3BC0
3F80
1F00
ENDCHAR
STARTCHAR K
ENCODING 75
SWIDTH 480 0
DWIDTH 15 0
BBX 13 20 1 0
BITMAP
6030
F078
F078
F0F0
F0E0
F0E0
F1E0
F3C0
F3C0
FF80
FF00
F3C0
F3C0
F3C0
F0E0
F0E0
F0E0
F078
F078
F078
ENDCHAR
STARTCHAR L
ENCODING 76
SWIDTH 480 0
DWIDTH 15 0
BBX 13 20 1 0
BITMAP
6000
F000
F000
F000
F000
F000
F000
F000
F000
F000
F000
F000
F000
F000
F000
F000
F000
F000
FFF0
FFF8
ENDCHAR
STARTCHAR M
ENCODING 77
SWIDTH 480 0
DWIDTH 15 0
BBX 13 20 1 0
BITMAP
6030
F078
F078
F8F8
F8F8
F8F8
FFF8
FFF8
F778
F778
F778
F778
F778
F778
F078
F078
F078
F078
F078
F078
ENDCHAR
STARTCHAR N
ENCODING 78
SWIDTH 480 0
DWIDTH 15 0
BBX 13 20 1 0
BITMAP
6030
F078
F878
F878
F878
FE78
FE78
FE78
F778
F778
F778
F3F8
F3F8
F3F8
F0F8
F0F8
F0F8
F078
F078
F078
ENDCHAR
STARTCHAR O
ENCODING 79
SWIDTH 480 0
DWIDTH 15 0
BBX 13 20 1 0
BITMAP
0F80
1FC0
38E0
78F0
F078
F078
F078
F078
F078
F078
F078
F078
F078
F078
F078
F078
F078
38E0
3FE0
1FC0
ENDCHAR
STARTCHAR P
ENCODING 80
SWIDTH 480 0
DWIDTH 15 0
BBX 13 20 1 0
BITMAP
7F80
FFC0
F0E0
F0F0
F078
F078
F078
F078
F078
F0F0
F0E0
FFC0
FF80
F000
F000
F000
F000
F000
F000
F000
ENDCHAR
STARTCHAR Q
ENCODING 81
SWIDTH 480 0
DWIDTH 15 0
BBX 13 22 1 -2
BITMAP
0F80
1FC0
38E0
78F0
F078
F078
F078
F078
F078
F078
F078
F078
F078
F078
F778
F7F8
F3F8
38E0
3FE0
1FE0
0078
0030
ENDCHAR
STARTCHAR R
ENCODING 82
SWIDTH 480 0
DWIDTH 15 0
BBX 13 20 1 0
BITMAP
7F80
FFC0
F0E0
F0F0
F078
F078
F078
F078
F078
F0F0
F0E0
FFC0
FFC0
F3C0
F0E0
F0E0
F0E0
F078
F078
F078
ENDCHAR
STARTCHAR S
ENCODING 83
SWIDTH 480 0
DWIDTH 15 0
BBX 13 20 1 0
BITMAP
0F80
1FC0
38E0
78F0
F078
F000
F000
F000
3800
3F80
1FC0
00E0
00F0
0078
0078
6078
F078
38E0
3FE0
1FC0
ENDCHAR
STARTCHAR T
ENCODING 84
SWIDTH 480 0
DWIDTH 15 0
BBX 13 20 1 0
BITMAP
7FF0
FFF8
0700
0700
0700
0700
0700
0700
0700
0700
0700
0700
0700
0700
0700
0700
0700
0700
0700
0700
ENDCHAR
STARTCHAR U
ENCODING 85
SWIDTH 480 0
DWIDTH 15 0
BBX 13 20 1 0
BITMAP
6030
F078
F078
F078
F078
F078
F078
F078
F078
F078
F078
F078
F078
F078
F078
F078
F078
38E0
3FE0
1FC0
ENDCHAR
STARTCHAR V
ENCODING 86
SWIDTH 480 0
DWIDTH 15 0
BBX 13 20 1 0
BITMAP
6030
F078
F078
F078
F078
F078
78F0
38E0
38E0
38E0
38E0
1FC0
1FC0
1FC0
1FC0
0F80
0700
0700
0700
0700
ENDCHAR
STARTCHAR W
ENCODING 87
SWIDTH 480 0
DWIDTH 15 0
BBX 13 20 1 0
BITMAP
6030
F078
F078
F078
F078
F078
F078
F078
F778
F778
F778
F778
F778
F778
F8F8
F8F8
F8F8
F078
F078
F078
ENDCHAR
STARTCHAR X
ENCODING 88
SWIDTH 480 0
DWIDTH 15 0
BBX 13 20 1 0
BITMAP
6030
F078
F078
78F0
38E0
38E0
3FE0
1FC0
1FC0
0F80
0700
1FC0
1FC0
1FC0
38E0
38E0
38E0
F078
F078
F078
ENDCHAR
STARTCHAR Y
ENCODING 89
SWIDTH 480 0
DWIDTH 15 0
BBX 13 20 1 0
BITMAP
6030
F078
F078
78F0
38E0
38E0
3FE0
1FC0
1FC0
0F80
0700
0700
0700
0700
0700
0700
0700
0700
0700
0700
ENDCHAR
STARTCHAR Z
ENCODING 90
SWIDTH 480 0
DWIDTH 15 0
BBX 13 20 1 0
BITMAP
7FF0
FFF8
0078
0078
0078
00E0
01E0
03C0
03C0
0780
0700
1E00
1E00
1E00
3800
7800
F000
F000
FFF0
FFF8
ENDCHAR
STARTCHAR bracketleft
ENCODING 91
SWIDTH 480 0
DWIDTH 15 0
BBX 9 20 3 0
BITMAP
FF80
FF80
E000
E000
E000
E000
E000
E000
E000
E000
E000
E000
E000
E000
E000
E000
E000
E000
FF80
FF80
ENDCHAR
STARTCHAR backslash
ENCODING 92
SWIDTH 480 0
DWIDTH 15 0
BBX 11 18 3 0
BITMAP
E000
E000
E000
7800
7800
7800
1C00
1C00
1C00
0F00
0F00
0F00
0380
0380
0380
01E0
01E0
01E0
ENDCHAR
STARTCHAR bracketright
ENCODING 93
SWIDTH 480 0
DWIDTH 15 0
BBX 9 20 3 0
BITMAP
FF80
FF80
0380
0380
0380
0380
0380
0380
0380
0380
0380
0380
0380
0380
0380
0380
0380
0380
FF80
FF80
ENDCHAR
STARTCHAR asciicircum
ENCODING 94
SWIDTH 480 0
DWIDTH 15 0
BBX 13 7 1 13
BITMAP
0700
0700
1FC0
3FE0
38E0
F078
6030
ENDCHAR
STARTCHAR underscore
ENCODING 95
SWIDTH 480 0
DWIDTH 15 0
BBX 14 2 1 -2
BITMAP
FFFC
7FFC
ENDCHAR
STARTCHAR grave
ENCODING 96
SWIDTH 480 0
DWIDTH 15 0
BBX 7 5 4 15
BITMAP
60
F0
38
3C
1E
ENDCHAR
STARTCHAR a
ENCODING 97
SWIDTH 480 0
DWIDTH 15 0
BBX 13 12 1 0
BITMAP
1FE0
3FF0
3878
0078
3FF8
3FF8
F078
F078
F078
F078
7FF8
3FD8
ENDCHAR
STARTCHAR b
ENCODING 98
SWIDTH 480 0
DWIDTH 15 0
BBX 13 20 1 0
BITMAP
6000
F000
F000
F000
F000
F000
F000
F000
F7C0
FFE0
F8E0
F078
F078
F078
F078
F078
F078
F8E0
FFE0
F7C0
ENDCHAR
STARTCHAR c
ENCODING 99
SWIDTH 480 0
DWIDTH 15 0
BBX 13 12 1 0
BITMAP
1FE0
3FF0
3878
F000
F000
F000
F000
F000
F000
3878
3FF0
1FE0
ENDCHAR
STARTCHAR d
ENCODING 100
SWIDTH 480 0
DWIDTH 15 0
BBX 13 20 1 0
BITMAP
0030
0078
0078
0078
0078
0078
0078
0078
1F78
3FF8
38F8
F078
F078
F078
F078
F078
F078
38F8
3FF8
1F78
ENDCHAR
STARTCHAR e
ENCODING 101
SWIDTH 480 0
DWIDTH 15 0
BBX 13 12 1 0
BITMAP
1FC0
3FE0
38E0
F078
FFF8
FFF8
F000
F000
F000
3878
3FF0
1FE0
ENDCHAR
STARTCHAR f
ENCODING 102
SWIDTH 480 0
DWIDTH 15 0
BBX 13 20 1 0
BITMAP
07E0
07E0
1E78
1E78
1E78
1E00
1E00
1E00
FFC0
7F80
1E00
1E00
1E00
1E00
1E00
1E00
1E00
1E00
1E00
1E00
ENDCHAR
STARTCHAR g
ENCODING 103
SWIDTH 480 0
DWIDTH 15 0
BBX 13 18 1 -6
BITMAP
3FD8
7FF8
F0F8
F0E0
F0E0
F0E0
F0E0
7FE0
3FC0
F000
7FE0
3FE0
F078
F078
F078
F078
7FF0
3FE0
ENDCHAR
STARTCHAR h
ENCODING 104
SWIDTH 480 0
DWIDTH 15 0
BBX 13 20 1 0
BITMAP
6000
F000
F000
F000
F000
F000
F000
F000
F7C0
FFE0
F8E0
F078
F078
F078
F078
F078
F078
F078
F078
F078
ENDCHAR
STARTCHAR i
ENCODING 105
SWIDTH 480 0
DWIDTH 15 0
BBX 13 17 1 0
BITMAP
0700
0700
0700
0700
0000
3F00
3F00
0700
0700
0700
0700
0700
0700
0700
0700
7FF0
FFF8
ENDCHAR
STARTCHAR j
ENCODING 106
SWIDTH 480 0
DWIDTH 15 0
BBX 11 23 3 -6
BITMAP
00C0
01E0
01E0
00C0
0000
0FE0
07E0
01E0
01E0
01E0
01E0
01E0
01E0
01E0
01E0
01E0
01E0
E1E0
E1E0
E1E0
E1E0
FFC0
7F80
ENDCHAR
STARTCHAR k
ENCODING 107
SWIDTH 480 0
DWIDTH 15 0
BBX 13 20 1 0
BITMAP
6000
F000
F000
F000
F000
F000
F000
F000
F0E0
F1E0
F3C0
F700
FF00
FE00
FF00
FF80
F3C0
F0E0
F0F0
F078
ENDCHAR
STARTCHAR l
ENCODING 108
SWIDTH 480 0
DWIDTH 15 0
BBX 13 20 1 0
BITMAP
3F00
3F00
0700
0700
0700
0700
0700
0700
0700
0700
0700
0700
0700
0700
0700
0700
0700
0700
7FF0
FFF8
ENDCHAR
STARTCHAR m
ENCODING 109
SWIDTH 480 0
DWIDTH 15 0
BBX 13 12 1 0
BITMAP
DEE0
FFF0
FFF8
F778
F778
F778
F778
F778
F778
F778
F778
F778
ENDCHAR
STARTCHAR n
ENCODING 110
SWIDTH 480 0
DWIDTH 15 0
BBX 13 12 1 0
BITMAP
F7C0
FFE0
F8E0
F078
F078
F078
F078
F078
F078
F078
F078
F078
ENDCHAR
STARTCHAR o
ENCODING 111
SWIDTH 480 0
DWIDTH 15 0
BBX 13 12 1 0
BITMAP
1FC0
3FE0
38E0
F078
F078
F078
F078
F078
F078
38E0
3FE0
1FC0
ENDCHAR
STARTCHAR p
ENCODING 112
SWIDTH 480 0
DWIDTH 15 0
BBX 13 18 1 -6
BITMAP
F7C0
FFE0
F8E0
F078
F078
F078
F078
F078
F078
F8E0
FFE0
F7C0
F000
F000
F000
F000
F000
F000
ENDCHAR
STARTCHAR q
ENCODING 113
SWIDTH 480 0
DWIDTH 15 0
BBX 13 18 1 -6
BITMAP
1F78
3FF8
38F8
F078
F078
F078
F078
F078
F078
38F8
3FF8
1F78
0078
0078
0078
0078
0078
0078
ENDCHAR
STARTCHAR r
ENCODING 114
SWIDTH 480 0
DWIDTH 15 0
BBX 13 12 1 0
BITMAP
F7E0
7FF0
3E78
3800
3800
3800
3800
3800
3800
3800
3800
3800
ENDCHAR
STARTCHAR s
ENCODING 115
SWIDTH 480 0
DWIDTH 15 0
BBX 13 12 1 0
BITMAP
3FE0
7FF0
F078
F000
7FE0
3FE0
0078
0078
0078
F078
7FF0
3FE0
ENDCHAR
STARTCHAR t
ENCODING 116
SWIDTH 480 0
DWIDTH 15 0
BBX 13 17 1 0
BITMAP
0C00
1E00
1E00
1E00
1E00
FFC0
7F80
1E00
1E00
1E00
1E00
1E00
1E00
1E00
1E78
0FF0
07E0
ENDCHAR
STARTCHAR u
ENCODING 117
SWIDTH 480 0
DWIDTH 15 0
BBX 13 12 1 0
BITMAP
F078
F078
F078
F078
F078
F078
F078
F078
F078
38F8
3FF8
1F78
ENDCHAR
STARTCHAR v
ENCODING 118
SWIDTH 480 0
DWIDTH 15 0
BBX 13 12 1 0
BITMAP
F078
F078
F078
38E0
38E0
38E0
1FC0
1FC0
1FC0
0700
0700
0700
ENDCHAR
STARTCHAR w
ENCODING 119
SWIDTH 480 0
DWIDTH 15 0
BBX 13 12 1 0
BITMAP
F078
F078
F078
F078
F778
F778
F778
F778
F778
FFF8
7FF0
38E0
ENDCHAR
STARTCHAR x
ENCODING 120
SWIDTH 480 0
DWIDTH 15 0
BBX 13 12 1 0
BITMAP
F078
78F0
38E0
1FC0
0F80
0700
0700
0F80
1FC0
38E0
78F0
F078
ENDCHAR
STARTCHAR y
ENCODING 121
SWIDTH 480 0
DWIDTH 15 0
BBX 13 18 1 -6
BITMAP
F078
F078
F078
F078
F078
F078
F078
F078
F078
38F8
3FF8
1F78
0078
6078
F078
38E0
3FE0
1FC0
ENDCHAR
STARTCHAR z
ENCODING 122
SWIDTH 480 0
DWIDTH 15 0
BBX 11 12 3 0
BITMAP
FFE0
FFE0
01E0
0380
0780
0F00
1C00
3C00
7800
E000
FFC0
FFE0
ENDCHAR
STARTCHAR braceleft
ENCODING 123
SWIDTH 480 0
DWIDTH 15 0
BBX 13 20 1 0
BITMAP
01F0
03F8
0700
0700
0700
0700
0700
0700
0700
7F00
FE00
0700
0700
0700
0700
0700
0700
0700
07F0
03F8
ENDCHAR
STARTCHAR bar
ENCODING 124
SWIDTH 480 0
DWIDTH 15 0
BBX 3 20 6 0
BITMAP
E0
E0
E0
E0
E0
E0
E0
E0
E0
E0
E0
E0
E0
E0
E0
E0
E0
E0
E0
E0
ENDCHAR
STARTCHAR braceright
ENCODING 125
SWIDTH 480 0
DWIDTH 15 0
BBX 13 20 1 0
BITMAP
7C00
FE00
0700
0700
0700
0700
0700
0700
0700
07F0
03F8
0700
0700
0700
0700
0700
0700
0700
7F00
FE00
ENDCHAR
STARTCHAR asciitilde
ENCODING 126
SWIDTH 480 0
DWIDTH 15 0
BBX 13 5 1 15
BITMAP
3C30
3E78
F778
F7F0
F3E0
ENDCHAR
STARTCHAR space
ENCODING 160
SWIDTH 480 0
DWIDTH 15 0
BBX 1 1 14 -6
BITMAP
00
ENDCHAR
STARTCHAR exclamdown
ENCODING 161
SWIDTH 480 0
DWIDTH 15 0
BBX 3 20 6 0
BITMAP
E0
E0
E0
E0
00
E0
E0
E0
E0
E0
E0
E0
E0
E0
E0
E0
E0
E0
E0
E0
ENDCHAR
STARTCHAR cent
ENCODING 162
SWIDTH 480 0
DWIDTH 15 0
BBX 11 18 1 0
BITMAP
0700
0700
0700
1FC0
3FE0
38E0
F060
F020
F000
F000
F020
F060
38E0
3FE0
1FC0
0700
0700
0700
ENDCHAR
STARTCHAR sterling
ENCODING 163
SWIDTH 480 0
DWIDTH 15 0
BBX 14 18 1 0
BITMAP
07E0
0FF0
1E78
1E78
1E30
1E00
1E00
7F80
FFC0
1E00
1E00
1E00
1E00
7F00
FF00
DBDC
F9FC
F8F8
ENDCHAR
STARTCHAR currency
ENCODING 164
SWIDTH 480 0
DWIDTH 15 0
BBX 14 14 0 1
BITMAP
C00C
E79C
EFBC
7FF0
7FF0
7870
7870
7870
7870
7FF0
FFF8
EFBC
C00C
8008
ENDCHAR
STARTCHAR yen
ENCODING 165
SWIDTH 480 0
DWIDTH 15 0
BBX 13 17 1 0
BITMAP
4010
C018
F078
78F0
38E0
1FC0
3FE0
3FE0
0700
3FE0
3FE0
0700
0700
0700
0700
0700
0700
ENDCHAR
STARTCHAR brokenbar
ENCODING 166
SWIDTH 480 0
DWIDTH 15 0
BBX 3 20 6 0
BITMAP
E0
E0
E0
E0
E0
E0
E0
E0
00
00
00
00
E0
E0
E0
E0
E0
E0
E0
E0
ENDCHAR
STARTCHAR section
ENCODING 167
SWIDTH 480 0
DWIDTH 15 0
BBX 13 20 1 0
BITMAP
0F80
1FC0
38E0
78E0
F0E0
3800
3F00
3F00
F3C0
79E0
38E0
1E78
0FF0
07E0
00E0
38F0
3878
38E0
3FE0
1FC0
ENDCHAR
STARTCHAR dieresis
ENCODING 168
SWIDTH 480 0
DWIDTH 15 0
BBX 9 4 3 16
BITMAP
E380
E380
E380
E380
ENDCHAR
STARTCHAR copyright
ENCODING 169
SWIDTH 480 0
DWIDTH 15 0
BBX 13 17 1 0
BITMAP
0F80
1FC0
38E0
78F0
F078
DFD8
DFD8
D8D8
D818
D898
D8D8
DFD8
FFF8
F078
38E0
3FE0
1FC0
ENDCHAR
STARTCHAR ordfeminine
ENCODING 170
SWIDTH 480 0
DWIDTH 15 0
BBX 13 14 1 6
BITMAP
0FE0
1FE0
3078
2078
0078
3FF8
7FF8
F078
F078
7FF8
3FD8
0000
7FF0
FFF8
ENDCHAR
STARTCHAR guillemotleft
ENCODING 171
SWIDTH 480 0
DWIDTH 15 0
BBX 14 17 0 0
BITMAP
0088
018C
03BC
07F8
0F70
1DE0
3FC0
7B80
EF00
FF80
7B80
1DE0
1FF0
0F70
03BC
039C
018C
ENDCHAR
STARTCHAR logicalnot
ENCODING 172
SWIDTH 480 0
DWIDTH 15 0
BBX 13 6 1 6
BITMAP
FFF8
FFF8
FFF8
0078
0078
0078
ENDCHAR
STARTCHAR hyphen
ENCODING 173
SWIDTH 480 0
DWIDTH 15 0
BBX 9 2 3 9
BITMAP
FF80
FF80
ENDCHAR
STARTCHAR registered
ENCODING 174
SWIDTH 480 0
DWIDTH 15 0
BBX 13 17 1 0
BITMAP
0F80
1FC0
38E0
78F0
F078
DFD8
DFD8
D8D8
DFD8
DF98
DB18
DBD8
F9F8
F078
38E0
3FE0
1FC0
ENDCHAR
STARTCHAR macron
ENCODING 175
SWIDTH 480 0
DWIDTH 15 0
BBX 13 2 1 19
BITMAP
FFF8
7FF0
ENDCHAR
STARTCHAR degree
ENCODING 176
SWIDTH 480 0
DWIDTH 15 0
BBX 9 10 3 10
BITMAP
1C00
1C00
7F00
FF80
E380
E380
FF80
7F00
1C00
1C00
ENDCHAR
STARTCHAR plusminus
ENCODING 177
SWIDTH 480 0
DWIDTH 15 0
BBX 13 11 1 3
BITMAP
0700
0700
0700
7FF0
FFF8
0700
0700
0700
0000
7FF0
FFF8
ENDCHAR
STARTCHAR twosuperior
ENCODING 178
SWIDTH 480 0
DWIDTH 15 0
BBX 8 11 3 9
BITMAP
3C
7C
EF
EF
0F
1C
3C
78
E0
FE
FF
ENDCHAR
STARTCHAR threesuperior
ENCODING 179
SWIDTH 480 0
DWIDTH 15 0
BBX 8 11 3 9
BITMAP
3C
7C
EF
EF
0F
1C
1E
0F
EF
FE
7C
ENDCHAR
STARTCHAR acute
ENCODING 180
SWIDTH 480 0
DWIDTH 15 0
BBX 7 5 4 15
BITMAP
0C
1E
38
78
F0
ENDCHAR
STARTCHAR mu
ENCODING 181
SWIDTH 480 0
DWIDTH 15 0
BBX 11 16 1 -5
BITMAP
60E0
F0E0
F0E0
F0E0
F0E0
F0E0
F0E0
F0E0
FBE0
FFE0
FF60
F000
F000
F000
F000
6000
ENDCHAR
STARTCHAR paragraph
ENCODING 182
SWIDTH 480 0
DWIDTH 15 0
BBX 13 20 1 0
BITMAP
3FF0
3FF8
FFF8
FFF8
FF78
FF78
FF78
FF78
3F78
3F78
0778
0778
0778
0778
0778
0778
0778
0778
0778
0778
ENDCHAR
STARTCHAR periodcentered
ENCODING 183
SWIDTH 480 0
DWIDTH 15 0
BBX 5 5 6 7
BITMAP
F8
F8
F8
F8
F0
ENDCHAR
STARTCHAR cedilla
ENCODING 184
SWIDTH 480 0
DWIDTH 15 0
BBX 8 6 3 -6
BITMAP
1C
1E
0F
EF
FE
7C
ENDCHAR
STARTCHAR onesuperior
ENCODING 185
SWIDTH 480 0
DWIDTH 15 0
BBX 6 11 3 9
BITMAP
30
78
F8
F8
78
78
78
78
78
FC
FC
ENDCHAR
STARTCHAR ordmasculine
ENCODING 186
SWIDTH 480 0
DWIDTH 15 0
BBX 11 14 1 6
BITMAP
0F00
1F00
3BC0
79E0
F0E0
F0E0
F0E0
F0E0
3BC0
3F80
1F00
0000
7FE0
FFE0
ENDCHAR
STARTCHAR guillemotright
ENCODING 187
SWIDTH 480 0
DWIDTH 15 0
BBX 14 17 1 0
BITMAP
4400
C600
F700
7F80
3BC0
1EE0
0FF0
0778
03DC
07FC
0778
1EE0
3FE0
3BC0
F700
E700
C600
ENDCHAR
STARTCHAR onequarter
ENCODING 188
SWIDTH 480 0
DWIDTH 15 0
BBX 13 19 1 1
BITMAP
2000
3000
F000
7010
3018
3060
78E0
F8C0
0300
0720
0660
18E0
39E0
3360
C7E0
47E0
0060
0060
0020
ENDCHAR
STARTCHAR onehalf
ENCODING 189
SWIDTH 480 0
DWIDTH 15 0
BBX 13 19 1 1
BITMAP
2000
3000
F000
7010
3018
3060
78E0
F8C0
0300
07E0
06E0
1B18
3918
3018
C060
40E0
00C0
03F8
01F0
ENDCHAR
STARTCHAR threequarters
ENCODING 190
SWIDTH 480 0
DWIDTH 15 0
BBX 13 19 1 1
BITMAP
7800
F800
0600
3C10
3818
0660
7CE0
F8C0
0300
0720
0660
18E0
39E0
3360
C7F8
47F0
0060
0060
0020
ENDCHAR
STARTCHAR questiondown
ENCODING 191
SWIDTH 480 0
DWIDTH 15 0
BBX 13 20 1 0
BITMAP
0700
0700
0700
0700
0000
0700
0700
0700
0700
0F00
1E00
3800
7830
F078
F078
F078
F078
38E0
3FE0
1FC0
ENDCHAR
STARTCHAR Agrave
ENCODING 192
SWIDTH 480 0
DWIDTH 15 0
BBX 13 23 1 0
BITMAP
3800
3800
1E00
0F00
0700
0000
0700
0700
1FC0
3FE0
38E0
F078
F078
F078
F078
FFF8
FFF8
F078
F078
F078
F078
F078
F078
ENDCHAR
STARTCHAR Aacute
ENCODING 193
SWIDTH 480 0
DWIDTH 15 0
BBX 13 23 1 0
BITMAP
00E0
00E0
03C0
0780
0700
0000
0700
0700
1FC0
3FE0
38E0
F078
F078
F078
F078
FFF8
FFF8
F078
F078
F078
F078
F078
F078
ENDCHAR
STARTCHAR Acircumflex
ENCODING 194
SWIDTH 480 0
DWIDTH 15 0
BBX 13 23 1 0
BITMAP
0700
0700
1FC0
3FE0
38E0
0000
0700
0700
1FC0
3FE0
38E0
F078
F078
F078
F078
FFF8
FFF8
F078
F078
F078
F078
F078
F078
ENDCHAR
STARTCHAR Atilde
ENCODING 195
SWIDTH 480 0
DWIDTH 15 0
BBX 13 23 1 0
BITMAP
0C20
1E60
3FE0
3FE0
33C0
0000
0700
0700
1FC0
3FE0
38E0
F078
F078
F078
F078
FFF8
FFF8
F078
F078
F078
F078
F078
F078
ENDCHAR
STARTCHAR Adieresis
ENCODING 196
SWIDTH 480 0
DWIDTH 15 0
BBX 13 23 1 0
BITMAP
38E0
38E0
38E0
38E0
0000
0700
0F80
1FC0
38E0
38E0
38E0
F078
F078
F078
F078
FFF8
FFF8
F078
F078
F078
F078
F078
F078
ENDCHAR
STARTCHAR Aring
ENCODING 197
SWIDTH 480 0
DWIDTH 15 0
BBX 13 24 1 0
BITMAP
1FC0
3FE0
38E0
38E0
3FE0
1FC0
0000
0700
0700
1FC0
3FE0
38E0
F078
F078
F078
F078
FFF8
FFF8
F078
F078
F078
F078
F078
F078
ENDCHAR
STARTCHAR AE
ENCODING 198
SWIDTH 480 0
DWIDTH 15 0
BBX 13 20 1 0
BITMAP
07F0
07F8
1FC0
3FC0
3BC0
3BC0
7BC0
F3C0
F3C0
FFF0
FFF8
F3C0
F3C0
F3C0
F3C0
F3C0
F3C0
F3C0
F3F0
F3F8
ENDCHAR
STARTCHAR Ccedilla
ENCODING 199
SWIDTH 480 0
DWIDTH 15 0
BBX 13 26 1 -6
BITMAP
0F80
1FC0
38E0
78F0
F078
F000
F000
F000
F000
F000
F000
F000
F000
F000
F000
F030
F078
38E0
3FE0
1FC0
0700
0780
03C0
3BC0
3F80
1F00
ENDCHAR
STARTCHAR Egrave
ENCODING 200
SWIDTH 480 0
DWIDTH 15 0
BBX 13 23 1 0
BITMAP
3800
3800
1E00
0F00
0700
0000
7FF0
FFF8
F000
F000
F000
F000
F000
F000
FFC0
FF80
F000
F000
F000
F000
F000
FFF0
FFF8
ENDCHAR
STARTCHAR Eacute
ENCODING 201
SWIDTH 480 0
DWIDTH 15 0
BBX 13 23 1 0
BITMAP
0180
03C0
0700
0F00
1E00
0000
7FF0
FFF8
F000
F000
F000
F000
F000
F000
FFC0
FF80
F000
F000
F000
F000
F000
FFF0
FFF8
ENDCHAR
STARTCHAR Ecircumflex
ENCODING 202
SWIDTH 480 0
DWIDTH 15 0
BBX 13 23 1 0
BITMAP
0700
0700
1FC0
3FE0
38E0
0000
7FF0
FFF8
F000
F000
F000
F000
F000
F000
FFC0
FF80
F000
F000
F000
F000
F000
FFF0
FFF8
ENDCHAR
STARTCHAR Edieresis
ENCODING 203
SWIDTH 480 0
DWIDTH 15 0
BBX 13 23 1 0
BITMAP
38E0
38E0
38E0
38E0
0000
0000
7FF0
FFF8
F000
F000
F000
F000
F000
F000
FFC0
FF80
F000
F000
F000
F000
F000
FFF0
FFF8
ENDCHAR
STARTCHAR Igrave
ENCODING 204
SWIDTH 480 0
DWIDTH 15 0
BBX 9 23 3 0
BITMAP
3000
7800
1C00
1E00
0F00
0000
FF80
FF80
1C00
1C00
1C00
1C00
1C00
1C00
1C00
1C00
1C00
1C00
1C00
1C00
1C00
FF80
FF80
ENDCHAR
STARTCHAR Iacute
ENCODING 205
SWIDTH 480 0
DWIDTH 15 0
BBX 9 23 3 0
BITMAP
0600
0F00
1C00
3C00
7800
0000
FF80
FF80
1C00
1C00
1C00
1C00
1C00
1C00
1C00
1C00
1C00
1C00
1C00
1C00
1C00
FF80
FF80
ENDCHAR
STARTCHAR Icircumflex
ENCODING 206
SWIDTH 480 0
DWIDTH 15 0
BBX 9 23 3 0
BITMAP
1C00
1C00
7F00
FF80
E380
0000
FF80
FF80
1C00
1C00
1C00
1C00
1C00
1C00
1C00
1C00
1C00
1C00
1C00
1C00
1C00
FF80
FF80
ENDCHAR
STARTCHAR Idieresis
ENCODING 207
SWIDTH 480 0
DWIDTH 15 0
BBX 9 23 3 0
BITMAP
E380
E380
E380
E380
0000
FF80
FF80
1C00
1C00
1C00
1C00
1C00
1C00
1C00
1C00
1C00
1C00
1C00
1C00
1C00
1C00
FF80
FF80
ENDCHAR
STARTCHAR Eth
ENCODING 208
SWIDTH 480 0
DWIDTH 15 0
BBX 14 20 0 0
BITMAP
3FC0
7FE0
7870
7878
783C
783C
783C
783C
783C
FE3C
FF3C
783C
783C
783C
783C
783C
783C
7870
7FF0
7FE0
ENDCHAR
STARTCHAR Ntilde
ENCODING 209
SWIDTH 480 0
DWIDTH 15 0
BBX 13 23 1 0
BITMAP
0C20
1E60
3FE0
3FE0
33C0
0000
6030
F078
F878
FC78
FE78
FE78
FF78
F778
F778
F7F8
F3F8
F3F8
F1F8
F0F8
F078
F078
F078
ENDCHAR
STARTCHAR Ograve
ENCODING 210
SWIDTH 480 0
DWIDTH 15 0
BBX 13 23 1 0
BITMAP
0C00
1E00
0700
0780
03C0
0000
0F80
1FC0
38E0
78F0
F078
F078
F078
F078
F078
F078
F078
F078
F078
F078
38E0
3FE0
1FC0
ENDCHAR
STARTCHAR Oacute
ENCODING 211
SWIDTH 480 0
DWIDTH 15 0
BBX 13 23 1 0
BITMAP
0180
03C0
0700
0F00
1E00
0000
0F80
1FC0
38E0
78F0
F078
F078
F078
F078
F078
F078
F078
F078
F078
F078
38E0
3FE0
1FC0
ENDCHAR
STARTCHAR Ocircumflex
ENCODING 212
SWIDTH 480 0
DWIDTH 15 0
BBX 13 23 1 0
BITMAP
0700
0700
1FC0
3FE0
38E0
0000
0F80
1FC0
38E0
78F0
F078
F078
F078
F078
F078
F078
F078
F078
F078
F078
38E0
3FE0
1FC0
ENDCHAR
STARTCHAR Otilde
ENCODING 213
SWIDTH 480 0
DWIDTH 15 0
BBX 13 23 1 0
BITMAP
0C20
1E60
3FE0
3FE0
33C0
0000
0F80
1FC0
38E0
78F0
F078
F078
F078
F078
F078
F078
F078
F078
F078
F078
38E0
3FE0
1FC0
ENDCHAR
STARTCHAR Odieresis
ENCODING 214
SWIDTH 480 0
DWIDTH 15 0
BBX 13 23 1 0
BITMAP
38E0
38E0
38E0
38E0
0000
1FC0
3FE0
38E0
F078
F078
F078
F078
F078
F078
F078
F078
F078
F078
F078
F078
38E0
3FE0
1FC0
ENDCHAR
STARTCHAR multiply
ENCODING 215
SWIDTH 480 0
DWIDTH 15 0
BBX 11 12 1 0
BITMAP
C060
E0E0
F0E0
3BC0
3F80
1F00
1F00
3F80
3BC0
F0E0
E0E0
C060
ENDCHAR
STARTCHAR Oslash
ENCODING 216
SWIDTH 480 0
DWIDTH 15 0
BBX 13 23 1 -2
BITMAP
0018
0FF0
1FE0
38E0
78F0
F0F8
F0F8
F1F8
F378
F378
F378
F378
F678
F678
F678
F678
FC78
F878
38E0
3FE0
3FC0
C000
4000
ENDCHAR
STARTCHAR Ugrave
ENCODING 217
SWIDTH 480 0
DWIDTH 15 0
BBX 13 23 1 0
BITMAP
0C00
1E00
0700
0780
03C0
0000
6030
F078
F078
F078
F078
F078
F078
F078
F078
F078
F078
F078
F078
F078
38E0
3FE0
1FC0
ENDCHAR
STARTCHAR Uacute
ENCODING 218
SWIDTH 480 0
DWIDTH 15 0
BBX 13 23 1 0
BITMAP
0180
03C0
0700
0F00
1E00
0000
6030
F078
F078
F078
F078
F078
F078
F078
F078
F078
F078
F078
F078
F078
38E0
3FE0
1FC0
ENDCHAR
STARTCHAR Ucircumflex
ENCODING 219
SWIDTH 480 0
DWIDTH 15 0
BBX 13 23 1 0
BITMAP
0700
0700
1FC0
3FE0
38E0
0000
6030
F078
F078
F078
F078
F078
F078
F078
F078
F078
F078
F078
F078
F078
38E0
3FE0
1FC0
ENDCHAR
STARTCHAR Udieresis
ENCODING 220
SWIDTH 480 0
DWIDTH 15 0
BBX 13 23 1 0
BITMAP
38E0
38E0
38E0
38E0
0000
F078
F078
F078
F078
F078
F078
F078
F078
F078
F078
F078
F078
F078
F078
F078
38E0
3FE0
1FC0
ENDCHAR
STARTCHAR Yacute
ENCODING 221
SWIDTH 480 0
DWIDTH 15 0
BBX 13 23 1 0
BITMAP
0180
03C0
0700
0F00
1E00
0000
6030
F078
F078
78F0
38E0
38E0
3FE0
1FC0
1FC0
0F80
0700
0700
0700
0700
0700
0700
0700
ENDCHAR
STARTCHAR Thorn
ENCODING 222
SWIDTH 480 0
DWIDTH 15 0
BBX 11 20 3 0
BITMAP
E000
E000
E000
E000
E000
FF80
FFC0
E1E0
E1E0
E1E0
E1E0
E1E0
E1E0
E1E0
FF80
FF80
E000
E000
E000
E000
ENDCHAR
STARTCHAR germandbls
ENCODING 223
SWIDTH 480 0
DWIDTH 15 0
BBX 13 20 1 0
BITMAP
0780
07C0
1EE0
3CF0
3878
3878
38F0
38E0
FBC0
7BC0
3BC0
38E0
38F0
3878
3878
3878
3878
38E0
39E0
3BC0
ENDCHAR
STARTCHAR agrave
ENCODING 224
SWIDTH 480 0
DWIDTH 15 0
BBX 13 18 1 0
BITMAP
1E00
0F00
0700
03C0
0180
0000
3FE0
7FF0
F078
0078
3FF8
3FF8
F078
F078
F078
F078
7FF8
3FD8
ENDCHAR
STARTCHAR aacute
ENCODING 225
SWIDTH 480 0
DWIDTH 15 0
BBX 13 18 1 0
BITMAP
03C0
0780
0700
1E00
0C00
0000
3FE0
7FF0
F078
0078
3FF8
3FF8
F078
F078
F078
F078
7FF8
3FD8
ENDCHAR
STARTCHAR acircumflex
ENCODING 226
SWIDTH 480 0
DWIDTH 15 0
BBX 13 18 1 0
BITMAP
0700
0F80
1FC0
38E0
38E0
0000
3FE0
7FF0
F078
0078
3FF8
3FF8
F078
F078
F078
F078
7FF8
3FD8
ENDCHAR
STARTCHAR atilde
ENCODING 227
SWIDTH 480 0
DWIDTH 15 0
BBX 13 18 1 0
BITMAP
1E60
3FE0
3FE0
33C0
2180
0000
3FE0
7FF0
F078
0078
3FF8
3FF8
F078
F078
F078
F078
7FF8
3FD8
ENDCHAR
STARTCHAR adieresis
ENCODING 228
SWIDTH 480 0
DWIDTH 15 0
BBX 13 17 1 0
BITMAP
38E0
38E0
38E0
38E0
0000
3FE0
7FF0
F078
0078
3FF8
3FF8
F078
F078
F078
F078
7FF8
3FD8
ENDCHAR
STARTCHAR aring
ENCODING 229
SWIDTH 480 0
DWIDTH 15 0
BBX 13 20 1 0
BITMAP
0F80
1FC0
38E0
38E0
38E0
1FC0
0F80
0000
3FE0
7FF0
F078
0078
3FF8
3FF8
F078
F078
F078
F078
7FF8
3FD8
ENDCHAR
STARTCHAR ae
ENCODING 230
SWIDTH 480 0
DWIDTH 15 0
BBX 13 12 1 0
BITMAP
3EE0
7FF0
C778
0778
07F0
07E0
3F00
7F00
F700
F718
7FF0
3BE0
ENDCHAR
STARTCHAR ccedilla
ENCODING 231
SWIDTH 480 0
DWIDTH 15 0
BBX 13 18 1 -6
BITMAP
1FE0
3FF0
3878
F000
F000
F000
F000
F000
F000
3878
3FF0
1FE0
0700
0780
03C0
3BC0
3F80
1F00
ENDCHAR
STARTCHAR egrave
ENCODING 232
SWIDTH 480 0
DWIDTH 15 0
BBX 13 18 1 0
BITMAP
3800
3C00
1E00
0700
0700
0000
1FC0
3FE0
38E0
F078
FFF8
FFF8
F000
F000
F000
3878
3FF0
1FE0
ENDCHAR
STARTCHAR eacute
ENCODING 233
SWIDTH 480 0
DWIDTH 15 0
BBX 13 18 1 0
BITMAP
00E0
01E0
03C0
0700
0700
0000
1FC0
3FE0
38E0
F078
FFF8
FFF8
F000
F000
F000
3878
3FF0
1FE0
ENDCHAR
STARTCHAR ecircumflex
ENCODING 234
SWIDTH 480 0
DWIDTH 15 0
BBX 13 18 1 0
BITMAP
0700
0F80
1FC0
38E0
38E0
0000
1FC0
3FE0
38E0
F078
FFF8
FFF8
F000
F000
F000
3878
3FF0
1FE0
ENDCHAR
STARTCHAR edieresis
ENCODING 235
SWIDTH 480 0
DWIDTH 15 0
BBX 13 17 1 0
BITMAP
38E0
38E0
38E0
38E0
0000
1FC0
3FE0
38E0
F078
FFF8
FFF8
F000
F000
F000
3878
3FF0
1FE0
ENDCHAR
STARTCHAR igrave
ENCODING 236
SWIDTH 480 0
DWIDTH 15 0
BBX 13 18 1 0
BITMAP
3800
3C00
1E00
0700
0700
0000
3F00
3F00
0700
0700
0700
0700
0700
0700
0700
0700
7FF0
FFF8
ENDCHAR
STARTCHAR iacute
ENCODING 237
SWIDTH 480 0
DWIDTH 15 0
BBX 13 18 1 0
BITMAP
03C0
0780
0700
1E00
0C00
0000
3F00
3F00
0700
0700
0700
0700
0700
0700
0700
0700
7FF0
FFF8
ENDCHAR
STARTCHAR icircumflex
ENCODING 238
SWIDTH 480 0
DWIDTH 15 0
BBX 13 18 1 0
BITMAP
0700
0F80
1FC0
38E0
38E0
0000
3F00
3F00
0700
0700
0700
0700
0700
0700
0700
0700
7FF0
FFF8
ENDCHAR
STARTCHAR idieresis
ENCODING 239
SWIDTH 480 0
DWIDTH 15 0
BBX 13 17 1 0
BITMAP
38E0
38E0
38E0
38E0
0000
3F00
3F00
0700
0700
0700
0700
0700
0700
0700
0700
7FF0
FFF8
ENDCHAR
STARTCHAR eth
ENCODING 240
SWIDTH 480 0
DWIDTH 15 0
BBX 13 20 1 0
BITMAP
4100
C300
F700
7F00
3E00
3E00
7F00
F700
C3C0
4FE0
1FE0
38F8
78F8
F078
F078
F078
F078
38E0
3FE0
1FC0
ENDCHAR
STARTCHAR ntilde
ENCODING 241
SWIDTH 480 0
DWIDTH 15 0
BBX 13 18 1 0
BITMAP
1E60
3FE0
3FE0
33C0
2180
0000
F7C0
FFE0
F8E0
F078
F078
F078
F078
F078
F078
F078
F078
F078
ENDCHAR
STARTCHAR ograve
ENCODING 242
SWIDTH 480 0
DWIDTH 15 0
BBX 13 18 1 0
BITMAP
3800
3C00
1E00
0700
0700
0000
1FC0
3FE0
38E0
F078
F078
F078
F078
F078
F078
38E0
3FE0
1FC0
ENDCHAR
STARTCHAR oacute
ENCODING 243
SWIDTH 480 0
DWIDTH 15 0
BBX 13 18 1 0
BITMAP
00E0
01E0
03C0
0700
0700
0000
1FC0
3FE0
38E0
F078
F078
F078
F078
F078
F078
38E0
3FE0
1FC0
ENDCHAR
STARTCHAR ocircumflex
ENCODING 244
SWIDTH 480 0
DWIDTH 15 0
BBX 13 18 1 0
BITMAP
0700
0F80
1FC0
38E0
38E0
0000
1FC0
3FE0
38E0
F078
F078
F078
F078
F078
F078
38E0
3FE0
1FC0
ENDCHAR
STARTCHAR otilde
ENCODING 245
SWIDTH 480 0
DWIDTH 15 0
BBX 13 18 1 0
BITMAP
1E60
3FE0
3FE0
33C0
2180
0000
1FC0
3FE0
38E0
F078
F078
F078
F078
F078
F078
38E0
3FE0
1FC0
ENDCHAR
STARTCHAR odieresis
ENCODING 246
SWIDTH 480 0
DWIDTH 15 0
BBX 13 17 1 0
BITMAP
38E0
38E0
38E0
38E0
0000
1FC0
3FE0
38E0
F078
F078
F078
F078
F078
F078
38E0
3FE0
1FC0
ENDCHAR
STARTCHAR divide
ENCODING 247
SWIDTH 480 0
DWIDTH 15 0
BBX 13 16 1 1
BITMAP
0700
0700
0700
0700
0000
0000
7FF0
FFF8
FFF8
7FF0
0000
0000
0700
0700
0700
0700
ENDCHAR
STARTCHAR oslash
ENCODING 248
SWIDTH 480 0
DWIDTH 15 0
BBX 13 16 1 -2
BITMAP
0010
0018
1FE0
3FE0
38E0
F378
F378
F378
F678
F678
F678
38E0
3FE0
3FC0
C000
4000
ENDCHAR
STARTCHAR ugrave
ENCODING 249
SWIDTH 480 0
DWIDTH 15 0
BBX 13 18 1 0
BITMAP
1E00
0F00
0700
03C0
0180
0000
F078
F078
F078
F078
F078
F078
F078
F078
F078
38F8
3FF8
1F78
ENDCHAR
STARTCHAR uacute
ENCODING 250
SWIDTH 480 0
DWIDTH 15 0
BBX 13 18 1 0
BITMAP
00E0
01E0
03C0
0700
0700
0000
F078
F078
F078
F078
F078
F078
F078
F078
F078
38F8
3FF8
1F78
ENDCHAR
STARTCHAR ucircumflex
ENCODING 251
SWIDTH 480 0
DWIDTH 15 0
BBX 13 18 1 0
BITMAP
0700
0F80
1FC0
38E0
38E0
0000
F078
F078
F078
F078
F078
F078
F078
F078
F078
38F8
3FF8
1F78
ENDCHAR
STARTCHAR udieresis
ENCODING 252
SWIDTH 480 0
DWIDTH 15 0
BBX 13 17 1 0
BITMAP
38E0
38E0
38E0
38E0
0000
F078
F078
F078
F078
F078
F078
F078
F078
F078
38F8
3FF8
1F78
ENDCHAR
STARTCHAR yacute
ENCODING 253
SWIDTH 480 0
DWIDTH 15 0
BBX 13 24 1 -6
BITMAP
03C0
0780
0700
1E00
0C00
0000
F078
F078
F078
F078
F078
F078
F078
F078
F078
38F8
3FF8
1F78
0078
6078
F078
38E0
3FE0
1FC0
ENDCHAR
STARTCHAR thorn
ENCODING 254
SWIDTH 480 0
DWIDTH 15 0
BBX 11 26 3 -6
BITMAP
E000
E000
E000
E000
E000
E000
E000
E000
E000
FE00
FF00
E380
E3C0
E1E0
E1E0
E1E0
E1E0
E380
FF80
FF00
E000
E000
E000
E000
E000
E000
ENDCHAR
STARTCHAR ydieresis
ENCODING 255
SWIDTH 480 0
DWIDTH 15 0
BBX 13 23 1 -6
BITMAP
38E0
38E0
38E0
38E0
0000
F078
F078
F078
F078
F078
F078
F078
F078
F078
38F8
3FF8
1F78
0078
6078
F078
38E0
3FE0
1FC0
ENDCHAR
STARTCHAR Amacron
ENCODING 256
SWIDTH 480 0
DWIDTH 15 0
BBX 13 23 1 0
BITMAP
7FF0
FFF8
0000
0700
0700
1FC0
3FE0
38E0
38E0
78F0
F078
F078
F078
F078
FFF8
FFF8
F078
F078
F078
F078
F078
F078
F078
ENDCHAR
STARTCHAR amacron
ENCODING 257
SWIDTH 480 0
DWIDTH 15 0
BBX 13 15 1 0
BITMAP
FFF8
7FF0
0000
1FE0
3FF0
3878
0078
3FF8
3FF8
F078
F078
F078
F078
7FF8
3FD8
ENDCHAR
STARTCHAR Abreve
ENCODING 258
SWIDTH 480 0
DWIDTH 15 0
BBX 13 23 1 0
BITMAP
2020
3060
38E0
3FE0
1FC0
0000
0F80
1FC0
38E0
38E0
38E0
F078
F078
F078
F078
FFF8
FFF8
F078
F078
F078
F078
F078
F078
ENDCHAR
STARTCHAR abreve
ENCODING 259
SWIDTH 480 0
DWIDTH 15 0
BBX 13 18 1 0
BITMAP
3060
38E0
38E0
1FC0
0F80
0000
1FE0
3FF0
3878
0078
3FF8
3FF8
F078
F078
F078
F078
7FF8
3FD8
ENDCHAR
STARTCHAR Aogonek
ENCODING 260
SWIDTH 480 0
DWIDTH 15 0
BBX 14 25 1 -5
BITMAP
0700
0700
1FC0
3FE0
38E0
38E0
78F0
F078
F078
F078
F078
FFF8
FFF8
F078
F078
F078
F078
F078
F078
F078
00F8
00F0
00E0
007C
003C
ENDCHAR
STARTCHAR aogonek
ENCODING 261
SWIDTH 480 0
DWIDTH 15 0
BBX 14 18 1 -6
BITMAP
1FE0
3FF0
3878
0078
3FF8
3FF8
F078
F078
F078
F078
7FF8
3FD8
001C
003C
007C
0078
003C
001C
ENDCHAR
STARTCHAR Cacute
ENCODING 262
SWIDTH 480 0
DWIDTH 15 0
BBX 13 23 1 0
BITMAP
00E0
00E0
03C0
0780
0700
0000
0F80
1FC0
38E0
78F0
F078
F000
F000
F000
F000
F000
F000
F000
F030
F078
38E0
3FE0
1FC0
ENDCHAR
STARTCHAR cacute
ENCODING 263
SWIDTH 480 0
DWIDTH 15 0
BBX 13 18 1 0
BITMAP
00E0
01E0
03C0
0700
0700
0000
1FE0
3FF0
3878
F000
F000
F000
F000
F000
F000
3878
3FF0
1FE0
ENDCHAR
STARTCHAR Ccircumflex
ENCODING 264
SWIDTH 480 0
DWIDTH 15 0
BBX 13 23 1 0
BITMAP
0700
0700
1FC0
3FE0
38E0
0000
0F80
1FC0
38E0
78F0
F078
F000
F000
F000
F000
F000
F000
F000
F030
F078
38E0
3FE0
1FC0
ENDCHAR
STARTCHAR ccircumflex
ENCODING 265
SWIDTH 480 0
DWIDTH 15 0
BBX 13 18 1 0
BITMAP
0700
0F80
1FC0
38E0
38E0
0000
1FE0
3FF0
3878
F000
F000
F000
F000
F000
F000
3878
3FF0
1FE0
ENDCHAR
STARTCHAR Cdotaccent
ENCODING 266
SWIDTH 480 0
DWIDTH 15 0
BBX 13 23 1 0
BITMAP
0700
0700
0700
0700
0000
1FC0
3FE0
38E0
F078
F030
F000
F000
F000
F000
F000
F000
F000
F000
F030
F078
38E0
3FE0
1FC0
ENDCHAR
STARTCHAR cdotaccent
ENCODING 267
SWIDTH 480 0
DWIDTH 15 0
BBX 13 17 1 0
BITMAP
0700
0700
0700
0700
0000
1FE0
3FF0
3878
F000
F000
F000
F000
F000
F000
3878
3FF0
1FE0
ENDCHAR
STARTCHAR Ccaron
ENCODING 268
SWIDTH 480 0
DWIDTH 15 0
BBX 13 23 1 0
BITMAP
38E0
38E0
1FC0
0F80
0700
0000
0F80
1FC0
38E0
78F0
F078
F000
F000
F000
F000
F000
F000
F000
F030
F078
38E0
3FE0
1FC0
ENDCHAR
STARTCHAR ccaron
ENCODING 269
SWIDTH 480 0
DWIDTH 15 0
BBX 13 18 1 0
BITMAP
38E0
3FE0
1FC0
0700
0700
0000
1FE0
3FF0
3878
F000
F000
F000
F000
F000
F000
3878
3FF0
1FE0
ENDCHAR
STARTCHAR Dcaron
ENCODING 270
SWIDTH 480 0
DWIDTH 15 0
BBX 13 23 1 0
BITMAP
38E0
38E0
1FC0
0F80
0700
0000
7F80
FFC0
F0E0
F0F0
F078
F078
F078
F078
F078
F078
F078
F078
F078
F078
F0E0
FFE0
FFC0
ENDCHAR
STARTCHAR dcaron
ENCODING 271
SWIDTH 480 0
DWIDTH 15 0
BBX 13 23 1 0
BITMAP
6180
F3C0
3F00
3F30
1E78
0078
0078
0078
0078
0078
0078
1F78
3FF8
38F8
F078
F078
F078
F078
F078
F078
38F8
3FF8
1F78
ENDCHAR
STARTCHAR Dcroat
ENCODING 272
SWIDTH 480 0
DWIDTH 15 0
BBX 14 20 0 0
BITMAP
3FC0
7FE0
7870
7878
783C
783C
783C
783C
783C
FE3C
FF3C
783C
783C
783C
783C
783C
783C
7870
7FF0
7FE0
ENDCHAR
STARTCHAR dcroat
ENCODING 273
SWIDTH 480 0
DWIDTH 15 0
BBX 14 20 1 0
BITMAP
0030
0078
0078
0078
0078
03FC
01FC
0078
1F78
3FF8
38F8
F078
F078
F078
F078
F078
F078
38F8
3FF8
1F78
ENDCHAR
STARTCHAR Emacron
ENCODING 274
SWIDTH 480 0
DWIDTH 15 0
BBX 13 23 1 0
BITMAP
7FF0
FFF8
0000
7FF0
FFF8
F000
F000
F000
F000
F000
F000
F000
FF80
FFC0
F000
F000
F000
F000
F000
F000
F000
FFF0
FFF8
ENDCHAR
STARTCHAR emacron
ENCODING 275
SWIDTH 480 0
DWIDTH 15 0
BBX 13 15 1 0
BITMAP
FFF8
7FF0
0000
1FC0
3FE0
38E0
F078
FFF8
FFF8
F000
F000
F000
3878
3FF0
1FE0
ENDCHAR
STARTCHAR Ebreve
ENCODING 276
SWIDTH 480 0
DWIDTH 15 0
BBX 13 23 1 0
BITMAP
2020
3060
38E0
3FE0
1FC0
0000
7FF0
FFF8
F000
F000
F000
F000
F000
F000
FFC0
FF80
F000
F000
F000
F000
F000
FFF0
FFF8
ENDCHAR
STARTCHAR ebreve
ENCODING 277
SWIDTH 480 0
DWIDTH 15 0
BBX 13 18 1 0
BITMAP
3060
38E0
38E0
1FC0
0F80
0000
1FC0
3FE0
38E0
F078
FFF8
FFF8
F000
F000
F000
3878
3FF0
1FE0
ENDCHAR
STARTCHAR Edotaccent
ENCODING 278
SWIDTH 480 0
DWIDTH 15 0
BBX 13 23 1 0
BITMAP
0700
0700
0700
0700
0000
FFF8
FFF0
F000
F000
F000
F000
F000
FF80
FFC0
F000
F000
F000
F000
F000
F000
F000
FFF0
FFF8
ENDCHAR
STARTCHAR edotaccent
ENCODING 279
SWIDTH 480 0
DWIDTH 15 0
BBX 13 17 1 0
BITMAP
0700
0700
0700
0700
0000
1FC0
3FE0
38E0
F078
FFF8
FFF8
F000
F000
F000
3878
3FF0
1FE0
ENDCHAR
STARTCHAR Eogonek
ENCODING 280
SWIDTH 480 0
DWIDTH 15 0
BBX 13 26 1 -6
BITMAP
7FF0
FFF8
F000
F000
F000
F000
F000
F000
F000
FF80
FFC0
F000
F000
F000
F000
F000
F000
F000
FFF0
FFF8
00E0
01E0
03E0
03C0
01F0
00F8
ENDCHAR
STARTCHAR eogonek
ENCODING 281
SWIDTH 480 0
DWIDTH 15 0
BBX 13 18 1 -6
BITMAP
1FC0
3FE0
38E0
F078
FFF8
FFF8
F000
F000
F000
3878
3FF0
1FE0
03C0
07C0
07C0
0700
07E0
03E0
ENDCHAR
STARTCHAR Ecaron
ENCODING 282
SWIDTH 480 0
DWIDTH 15 0
BBX 13 23 1 0
BITMAP
38E0
38E0
1FC0
0F80
0700
0000
7FF0
FFF8
F000
F000
F000
F000
F000
F000
FFC0
FF80
F000
F000
F000
F000
F000
FFF0
FFF8
ENDCHAR
STARTCHAR ecaron
ENCODING 283
SWIDTH 480 0
DWIDTH 15 0
BBX 13 18 1 0
BITMAP
38E0
3FE0
1FC0
0700
0700
0000
1FC0
3FE0
38E0
F078
FFF8
FFF8
F000
F000
F000
3878
3FF0
1FE0
ENDCHAR
STARTCHAR Gcircumflex
ENCODING 284
SWIDTH 480 0
DWIDTH 15 0
BBX 13 23 1 0
BITMAP
0700
0700
1FC0
3FE0
38E0
0000
0F80
1FC0
38E0
78F0
F078
F000
F000
F000
F3F8
F1F8
F078
F078
F078
F078
38F8
3FF8
1FD8
ENDCHAR
STARTCHAR gcircumflex
ENCODING 285
SWIDTH 480 0
DWIDTH 15 0
BBX 13 24 1 -6
BITMAP
0700
0F80
1FC0
38E0
38E0
0000
3FD8
7FF8
F0F8
F0E0
F0E0
F0E0
F0E0
7FE0
3FC0
F000
7FE0
3FE0
F078
F078
F078
F078
7FF0
3FE0
ENDCHAR
STARTCHAR Gbreve
ENCODING 286
SWIDTH 480 0
DWIDTH 15 0
BBX 13 23 1 0
BITMAP
2020
3060
38E0
3FE0
1FC0
0000
0F80
1FC0
38E0
78F0
F078
F000
F000
F000
F3F8
F1F8
F078
F078
F078
F078
38F8
3FF8
1FD8
ENDCHAR
STARTCHAR gbreve
ENCODING 287
SWIDTH 480 0
DWIDTH 15 0
BBX 13 24 1 -6
BITMAP
3060
38E0
38E0
1FC0
0F80
0000
3FD8
7FF8
F0F8
F0E0
F0E0
F0E0
F0E0
7FE0
3FC0
F000
7FE0
3FE0
F078
F078
F078
F078
7FF0
3FE0
ENDCHAR
STARTCHAR Gdotaccent
ENCODING 288
SWIDTH 480 0
DWIDTH 15 0
BBX 13 23 1 0
BITMAP
0700
0700
0700
0700
0000
1FC0
3FE0
38E0
F078
F030
F000
F000
F1F0
F3F8
F078
F078
F078
F078
F078
F078
38F8
3FF8
1FD8
ENDCHAR
STARTCHAR gdotaccent
ENCODING 289
SWIDTH 480 0
DWIDTH 15 0
BBX 13 23 1 -6
BITMAP
0700
0700
0700
0700
0000
3FD8
7FF8
F0F8
F0E0
F0E0
F0E0
F0E0
7FE0
3FC0
F000
7FE0
3FE0
F078
F078
F078
F078
7FF0
3FE0
ENDCHAR
STARTCHAR Gcommaaccent
ENCODING 290
SWIDTH 480 0
DWIDTH 15 0
BBX 13 25 1 -5
BITMAP
0F80
1FC0
38E0
78F0
F078
F000
F000
F000
F000
F1F0
F3F8
F078
F078
F078
F078
F078
F078
38F8
3FF8
1FD8
0700
0780
03C0
1F00
0F00
ENDCHAR
STARTCHAR gcommaaccent
ENCODING 291
SWIDTH 480 0
DWIDTH 15 0
BBX 13 26 1 -6
BITMAP
0400
0600
1800
1C00
1E00
1E00
0C00
0000
3FD8
7FF8
F0F8
F0E0
F0E0
F0E0
F0E0
7FE0
3FC0
F000
7FE0
3FE0
F078
F078
F078
F078
7FF0
3FE0
ENDCHAR
STARTCHAR Hcircumflex
ENCODING 292
SWIDTH 480 0
DWIDTH 15 0
BBX 13 23 1 0
BITMAP
0700
0700
1FC0
3FE0
38E0
0000
6030
F078
F078
F078
F078
F078
FFF8
FFF8
F078
F078
F078
F078
F078
F078
F078
F078
F078
ENDCHAR
STARTCHAR hcircumflex
ENCODING 293
SWIDTH 480 0
DWIDTH 15 0
BBX 13 24 1 0
BITMAP
0700
0F80
1FC0
38E0
38E0
0000
F000
F000
F000
F000
F000
F000
F7C0
FFE0
F8E0
F078
F078
F078
F078
F078
F078
F078
F078
F078
ENDCHAR
STARTCHAR Hbar
ENCODING 294
SWIDTH 480 0
DWIDTH 15 0
BBX 15 20 0 0
BITMAP
3018
783C
783C
FFFE
FFFE
783C
783C
783C
783C
7FFC
7FFC
783C
783C
783C
783C
783C
783C
783C
783C
783C
ENDCHAR
STARTCHAR hbar
ENCODING 295
SWIDTH 480 0
DWIDTH 15 0
BBX 14 20 0 0
BITMAP
3000
7800
7800
7800
7800
FF00
FE00
7800
7BE0
7FF0
7C70
783C
783C
783C
783C
783C
783C
783C
783C
783C
ENDCHAR
STARTCHAR Itilde
ENCODING 296
SWIDTH 480 0
DWIDTH 15 0
BBX 13 23 1 0
BITMAP
0C20
1E60
3FE0
3FE0
33C0
0000
7FF0
FFF8
0700
0700
0700
0700
0700
0700
0700
0700
0700
0700
0700
0700
0700
7FF0
FFF8
ENDCHAR
STARTCHAR itilde
ENCODING 297
SWIDTH 480 0
DWIDTH 15 0
BBX 13 18 1 0
BITMAP
1E60
3FE0
3FE0
33C0
2180
0000
3F00
3F00
0700
0700
0700
0700
0700
0700
0700
0700
7FF0
FFF8
ENDCHAR
STARTCHAR Imacron
ENCODING 298
SWIDTH 480 0
DWIDTH 15 0
BBX 13 23 1 0
BITMAP
7FF0
FFF8
0000
7FF0
FFF8
0700
0700
0700
0700
0700
0700
0700
0700
0700
0700
0700
0700
0700
0700
0700
0700
7FF0
FFF8
ENDCHAR
STARTCHAR imacron
ENCODING 299
SWIDTH 480 0
DWIDTH 15 0
BBX 13 15 1 0
BITMAP
FFE0
7FE0
0000
3F00
3F00
0700
0700
0700
0700
0700
0700
0700
0700
7FF0
FFF8
ENDCHAR
STARTCHAR Ibreve
ENCODING 300
SWIDTH 480 0
DWIDTH 15 0
BBX 13 23 1 0
BITMAP
2020
3060
38E0
3FE0
1FC0
0000
7FF0
FFF8
0700
0700
0700
0700
0700
0700
0700
0700
0700
0700
0700
0700
0700
7FF0
FFF8
ENDCHAR
STARTCHAR ibreve
ENCODING 301
SWIDTH 480 0
DWIDTH 15 0
BBX 13 18 1 0
BITMAP
3060
38E0
38E0
1FC0
0F80
0000
3F00
3F00
0700
0700
0700
0700
0700
0700
0700
0700
7FF0
FFF8
ENDCHAR
STARTCHAR Iogonek
ENCODING 302
SWIDTH 480 0
DWIDTH 15 0
BBX 13 26 1 -6
BITMAP
7FF0
FFF8
0700
0700
0700
0700
0700
0700
0700
0700
0700
0700
0700
0700
0700
0700
0700
0700
7FF0
FFF8
00E0
01E0
03E0
03C0
01F0
00F8
ENDCHAR
STARTCHAR iogonek
ENCODING 303
SWIDTH 480 0
DWIDTH 15 0
BBX 13 23 1 -6
BITMAP
0700
0700
0700
0700
0000
3F00
3F00
0700
0700
0700
0700
0700
0700
0700
0700
7FF0
FFF8
0078
00F8
00F8
00E0
00F0
0078
ENDCHAR
STARTCHAR Idotaccent
ENCODING 304
SWIDTH 480 0
DWIDTH 15 0
BBX 13 23 1 0
BITMAP
0700
0700
0700
0700
0000
FFF8
7FF0
0700
0700
0700
0700
0700
0700
0700
0700
0700
0700
0700
0700
0700
0700
7FF0
FFF8
ENDCHAR
STARTCHAR dotlessi
ENCODING 305
SWIDTH 480 0
DWIDTH 15 0
BBX 13 12 1 0
BITMAP
3F00
3F00
0700
0700
0700
0700
0700
0700
0700
0700
7FF0
FFF8
ENDCHAR
STARTCHAR IJ
ENCODING 306
SWIDTH 480 0
DWIDTH 15 0
BBX 14 25 0 -5
BITMAP
FFF8
FFFC
1C3C
1C3C
1C3C
1C3C
1C3C
1C3C
1C3C
1C3C
1C3C
1C3C
1C3C
1C3C
1C3C
1C3C
1C3C
1C3C
FFBC
FFBC
003C
1C3C
1C3C
0FF0
07F0
ENDCHAR
STARTCHAR ij
ENCODING 307
SWIDTH 480 0
DWIDTH 15 0
BBX 14 23 0 -6
BITMAP
1C18
1C3C
1C3C
1C18
0000
FDFC
FCFC
1C3C
1C3C
1C3C
1C3C
1C3C
1C3C
1C3C
1C3C
FFBC
FFBC
003C
1C3C
1C3C
1C3C
1FF8
0FF0
ENDCHAR
STARTCHAR Jcircumflex
ENCODING 308
SWIDTH 480 0
DWIDTH 15 0
BBX 14 23 0 0
BITMAP
00C0
01E0
03F0
07F8
0F3C
0000
07F0
0FF0
0070
0070
0070
0070
0070
0070
0070
0070
0070
E070
E070
E070
79E0
3FC0
1F80
ENDCHAR
STARTCHAR jcircumflex
ENCODING 309
SWIDTH 480 0
DWIDTH 15 0
BBX 13 24 1 -6
BITMAP
03C0
07E0
07E0
1E78
0C30
0000
07E0
07E0
00E0
00E0
00E0
00E0
00E0
00E0
00E0
00E0
00E0
00E0
F0E0
F0E0
F0E0
F0E0
7FE0
3FC0
ENDCHAR
STARTCHAR Kcommaaccent
ENCODING 310
SWIDTH 480 0
DWIDTH 15 0
BBX 13 26 1 -6
BITMAP
6030
F078
F078
F0F0
F0E0
F0E0
F1E0
F3C0
F3C0
FF80
FF00
F3C0
F3C0
F3C0
F0E0
F0E0
F0E0
F078
F078
F078
F800
7C00
1E00
1E00
7C00
F800
ENDCHAR
STARTCHAR kcommaaccent
ENCODING 311
SWIDTH 480 0
DWIDTH 15 0
BBX 13 26 1 -6
BITMAP
6000
F000
F000
F000
F000
F000
F000
F000
F0E0
F1E0
F3C0
F700
FF00
FE00
FF00
FF80
F3C0
F0E0
F0F0
F078
F800
7C00
1E00
1E00
7C00
F800
ENDCHAR
STARTCHAR kgreenlandic
ENCODING 312
SWIDTH 480 0
DWIDTH 15 0
BBX 11 12 1 0
BITMAP
F3C0
F780
F700
FE00
FC00
F800
FE00
FF00
F700
F3C0
F1E0
F0E0
ENDCHAR
STARTCHAR Lacute
ENCODING 313
SWIDTH 480 0
DWIDTH 15 0
BBX 13 23 1 0
BITMAP
0C00
1E00
3800
7800
F000
0000
6000
F000
F000
F000
F000
F000
F000
F000
F000
F000
F000
F000
F000
F000
F000
FFF0
FFF8
ENDCHAR
STARTCHAR lacute
ENCODING 314
SWIDTH 480 0
DWIDTH 15 0
BBX 13 23 1 0
BITMAP
0180
03C0
0700
0F00
1E00
0000
3F00
3F00
0700
0700
0700
0700
0700
0700
0700
0700
0700
0700
0700
0700
0700
7FF0
FFF8
ENDCHAR
STARTCHAR Lcommaaccent
ENCODING 315
SWIDTH 480 0
DWIDTH 15 0
BBX 13 26 1 -6
BITMAP
6000
F000
F000
F000
F000
F000
F000
F000
F000
F000
F000
F000
F000
F000
F000
F000
F000
F000
FFF0
FFF8
3800
3C00
1E00
1E00
7C00
F800
ENDCHAR
STARTCHAR lcommaaccent
ENCODING 316
SWIDTH 480 0
DWIDTH 15 0
BBX 13 26 1 -6
BITMAP
3F00
3F00
0700
0700
0700
0700
0700
0700
0700
0700
0700
0700
0700
0700
0700
0700
0700
0700
7FF0
FFF8
0700
0780
03C0
03C0
0F80
1F00
ENDCHAR
STARTCHAR Lcaron
ENCODING 317
SWIDTH 480 0
DWIDTH 15 0
BBX 14 23 0 0
BITMAP
E380
E380
7F00
3E00
1C00
0000
3000
7800
7800
7800
7800
7800
7800
7800
7800
7800
7800
7800
7800
7800
7800
7FF8
7FFC
ENDCHAR
STARTCHAR lcaron
ENCODING 318
SWIDTH 480 0
DWIDTH 15 0
BBX 13 23 1 0
BITMAP
38E0
38E0
1FC0
0F80
0700
0000
3F00
3F00
0700
0700
0700
0700
0700
0700
0700
0700
0700
0700
0700
0700
0700
7FF0
FFF8
ENDCHAR
STARTCHAR Ldot
ENCODING 319
SWIDTH 480 0
DWIDTH 15 0
BBX 13 20 1 0
BITMAP
6000
F000
F000
F000
F000
F000
F000
F000
F3C0
F3C0
F3C0
F000
F000
F000
F000
F000
F000
F000
FFF0
FFF8
ENDCHAR
STARTCHAR ldot
ENCODING 320
SWIDTH 480 0
DWIDTH 15 0
BBX 14 20 0 0
BITMAP
3E00
7F00
0F00
0F00
0F00
0F00
0F00
0F00
0F00
0F18
0F3C
0F3C
0F18
0F00
0F00
0F00
0F00
0F00
FFF0
FFF0
ENDCHAR
STARTCHAR Lslash
ENCODING 321
SWIDTH 480 0
DWIDTH 15 0
BBX 14 20 0 0
BITMAP
3000
7800
7800
7800
7800
7800
7800
7800
7B80
7F80
7C00
F800
F800
7800
7800
7800
7800
7800
7FF8
7FFC
ENDCHAR
STARTCHAR lslash
ENCODING 322
SWIDTH 480 0
DWIDTH 15 0
BBX 13 20 1 0
BITMAP
3F00
3F00
0700
0700
0700
0700
0700
0700
0700
07E0
07E0
3F00
3F00
0700
0700
0700
0700
0700
7FF0
FFF8
ENDCHAR
STARTCHAR Nacute
ENCODING 323
SWIDTH 480 0
DWIDTH 15 0
BBX 13 23 1 0
BITMAP
00E0
00E0
03C0
0780
0700
F078
F878
F878
F878
FC78
FE78
FE78
FF78
F778
F778
F7F8
F3F8
F3F8
F1F8
F0F8
F0F8
F0F8
F078
ENDCHAR
STARTCHAR nacute
ENCODING 324
SWIDTH 480 0
DWIDTH 15 0
BBX 13 18 1 0
BITMAP
00E0
01E0
03C0
0700
0700
0000
F7C0
FFE0
F8E0
F078
F078
F078
F078
F078
F078
F078
F078
F078
ENDCHAR
STARTCHAR Ncommaaccent
ENCODING 325
SWIDTH 480 0
DWIDTH 15 0
BBX 13 26 1 -6
BITMAP
6030
F078
F878
F878
F878
FE78
FE78
FE78
F778
F778
F778
F3F8
F3F8
F3F8
F0F8
F0F8
F0F8
F078
F078
F078
F800
7C00
1E00
1E00
7C00
F800
ENDCHAR
STARTCHAR ncommaaccent
ENCODING 326
SWIDTH 480 0
DWIDTH 15 0
BBX 13 18 1 -6
BITMAP
F7C0
FFE0
F8E0
F078
F078
F078
F078
F078
F078
F078
F078
F078
F800
7C00
1E00
1E00
7C00
F800
ENDCHAR
STARTCHAR Ncaron
ENCODING 327
SWIDTH 480 0
DWIDTH 15 0
BBX 13 23 1 0
BITMAP
38E0
38E0
1FC0
0F80
0700
F078
F878
F878
F878
FC78
FE78
FE78
FF78
F778
F778
F7F8
F3F8
F3F8
F1F8
F0F8
F0F8
F0F8
F078
ENDCHAR
STARTCHAR ncaron
ENCODING 328
SWIDTH 480 0
DWIDTH 15 0
BBX 13 18 1 0
BITMAP
38E0
3FE0
1FC0
0700
0700
0000
F7C0
FFE0
F8E0
F078
F078
F078
F078
F078
F078
F078
F078
F078
ENDCHAR
STARTCHAR napostrophe
ENCODING 329
SWIDTH 480 0
DWIDTH 15 0
BBX 14 20 0 0
BITMAP
E000
E000
E000
E000
6000
C000
8000
0000
7BE0
7FF0
7C70
783C
783C
783C
783C
783C
783C
783C
783C
783C
ENDCHAR
STARTCHAR Eng
ENCODING 330
SWIDTH 480 0
DWIDTH 15 0
BBX 13 26 1 -6
BITMAP
6030
F078
F878
F878
F878
FE78
FE78
FE78
F778
F778
F778
F3F8
F3F8
F3F8
F0F8
F0F8
F0F8
F078
F078
F078
0078
0078
0078
0078
00F0
00E0
ENDCHAR
STARTCHAR eng
ENCODING 331
SWIDTH 480 0
DWIDTH 15 0
BBX 13 18 1 -6
BITMAP
F7C0
FFE0
F8E0
F078
F078
F078
F078
F078
F078
F078
F078
F078
0078
0078
0078
0078
00F0
00E0
ENDCHAR
STARTCHAR Omacron
ENCODING 332
SWIDTH 480 0
DWIDTH 15 0
BBX 13 23 1 0
BITMAP
7FF0
FFF8
0000
0F80
1FC0
38E0
78F0
F078
F078
F078
F078
F078
F078
F078
F078
F078
F078
F078
F078
F078
38E0
3FE0
1FC0
ENDCHAR
STARTCHAR omacron
ENCODING 333
SWIDTH 480 0
DWIDTH 15 0
BBX 13 15 1 0
BITMAP
FFF8
7FF0
0000
1FC0
3FE0
38E0
F078
F078
F078
F078
F078
F078
38E0
3FE0
1FC0
ENDCHAR
STARTCHAR Obreve
ENCODING 334
SWIDTH 480 0
DWIDTH 15 0
BBX 13 23 1 0
BITMAP
2020
3060
38E0
3FE0
1FC0
0000
0F80
1FC0
38E0
78F0
F078
F078
F078
F078
F078
F078
F078
F078
F078
F078
38E0
3FE0
1FC0
ENDCHAR
STARTCHAR obreve
ENCODING 335
SWIDTH 480 0
DWIDTH 15 0
BBX 13 18 1 0
BITMAP
3060
38E0
38E0
1FC0
0F80
0000
1FC0
3FE0
38E0
F078
F078
F078
F078
F078
F078
38E0
3FE0
1FC0
ENDCHAR
STARTCHAR Ohungarumlaut
ENCODING 336
SWIDTH 480 0
DWIDTH 15 0
BBX 13 23 1 0
BITMAP
0C30
1E78
38E0
38E0
0000
1FC0
3FE0
38E0
F078
F078
F078
F078
F078
F078
F078
F078
F078
F078
F078
F078
38E0
3FE0
1FC0
ENDCHAR
STARTCHAR ohungarumlaut
ENCODING 337
SWIDTH 480 0
DWIDTH 15 0
BBX 13 17 1 0
BITMAP
0C30
1E78
38E0
38E0
0000
1FC0
3FE0
38E0
F078
F078
F078
F078
F078
F078
38E0
3FE0
1FC0
ENDCHAR
STARTCHAR OE
ENCODING 338
SWIDTH 480 0
DWIDTH 15 0
BBX 13 20 1 0
BITMAP
0FF0
1FF8
3BC0
7BC0
F3C0
F3C0
F3C0
F3C0
F3C0
F3F0
F3F8
F3C0
F3C0
F3C0
F3C0
F3C0
F3C0
3BC0
3FF0
1FF8
ENDCHAR
STARTCHAR oe
ENCODING 339
SWIDTH 480 0
DWIDTH 15 0
BBX 13 12 1 0
BITMAP
3FE0
7FF0
F778
F778
F7F8
F7F8
F700
F700
F700
F778
7FF0
3FE0
ENDCHAR
STARTCHAR Racute
ENCODING 340
SWIDTH 480 0
DWIDTH 15 0
BBX 13 23 1 0
BITMAP
0180
03C0
0700
0F00
1E00
0000
7F80
FFC0
F0E0
F0F0
F078
F078
F0F0
F0E0
FFC0
FFC0
F3C0
F0E0
F0E0
F0E0
F078
F078
F078
ENDCHAR
STARTCHAR racute
ENCODING 341
SWIDTH 480 0
DWIDTH 15 0
BBX 13 18 1 0
BITMAP
00E0
01E0
03C0
0700
0700
0000
F7E0
7FF0
3E78
3800
3800
3800
3800
3800
3800
3800
3800
3800
ENDCHAR
STARTCHAR Rcommaaccent
ENCODING 342
SWIDTH 480 0
DWIDTH 15 0
BBX 13 26 1 -6
BITMAP
7F80
FFC0
F0E0
F0F0
F078
F078
F078
F078
F078
F0F0
F0E0
FFC0
FFC0
F3C0
F0E0
F0E0
F0E0
F078
F078
F078
F800
7C00
1E00
1E00
7C00
F800
ENDCHAR
STARTCHAR rcommaaccent
ENCODING 343
SWIDTH 480 0
DWIDTH 15 0
BBX 13 18 1 -6
BITMAP
F7E0
7FF0
3E78
3800
3800
3800
3800
3800
3800
3800
3800
3800
3E00
3F00
0700
0700
3F00
3E00
ENDCHAR
STARTCHAR Rcaron
ENCODING 344
SWIDTH 480 0
DWIDTH 15 0
BBX 13 23 1 0
BITMAP
38E0
38E0
1FC0
0F80
0700
0000
7F80
FFC0
F0E0
F0F0
F078
F078
F0F0
F0E0
FFC0
FFC0
F3C0
F0E0
F0E0
F0E0
F078
F078
F078
ENDCHAR
STARTCHAR rcaron
ENCODING 345
SWIDTH 480 0
DWIDTH 15 0
BBX 13 18 1 0
BITMAP
38E0
3FE0
1FC0
0700
0700
0000
F7E0
7FF0
3E78
3800
3800
3800
3800
3800
3800
3800
3800
3800
ENDCHAR
STARTCHAR Sacute
ENCODING 346
SWIDTH 480 0
DWIDTH 15 0
BBX 13 23 1 0
BITMAP
00E0
00E0
03C0
0780
0700
0000
0F80
1FC0
38E0
78F0
F078
F000
7800
3800
1FC0
0FE0
00E0
0078
6078
F078
38E0
3FE0
1FC0
ENDCHAR
STARTCHAR sacute
ENCODING 347
SWIDTH 480 0
DWIDTH 15 0
BBX 13 18 1 0
BITMAP
00E0
01E0
03C0
0700
0700
0000
3FE0
7FF0
F078
F000
7FE0
3FE0
0078
0078
0078
F078
7FF0
3FE0
ENDCHAR
STARTCHAR Scircumflex
ENCODING 348
SWIDTH 480 0
DWIDTH 15 0
BBX 13 23 1 0
BITMAP
0700
0700
1FC0
3FE0
38E0
0000
0F80
1FC0
38E0
78F0
F078
F000
7800
3800
1FC0
0FE0
00E0
0078
6078
F078
38E0
3FE0
1FC0
ENDCHAR
STARTCHAR scircumflex
ENCODING 349
SWIDTH 480 0
DWIDTH 15 0
BBX 13 18 1 0
BITMAP
0700
0F80
1FC0
38E0
38E0
0000
3FE0
7FF0
F078
F000
7FE0
3FE0
0078
0078
0078
F078
7FF0
3FE0
ENDCHAR
STARTCHAR Scedilla
ENCODING 350
SWIDTH 480 0
DWIDTH 15 0
BBX 13 26 1 -6
BITMAP
0F80
1FC0
38E0
78F0
F078
F000
F000
F000
3800
3F80
1FC0
00E0
00F0
0078
0078
6078
F078
38E0
3FE0
1FC0
0700
0780
03C0
03C0
0F80
1F00
ENDCHAR
STARTCHAR scedilla
ENCODING 351
SWIDTH 480 0
DWIDTH 15 0
BBX 13 18 1 -6
BITMAP
3FE0
7FF0
F078
F000
7FE0
3FE0
0078
0078
0078
F078
7FF0
3FE0
0700
0780
03C0
03C0
0F80
1F00
ENDCHAR
STARTCHAR Scaron
ENCODING 352
SWIDTH 480 0
DWIDTH 15 0
BBX 13 23 1 0
BITMAP
38E0
38E0
1FC0
0F80
0700
0000
0F80
1FC0
38E0
78F0
F078
F000
7800
3800
1FC0
0FE0
00E0
0078
6078
F078
38E0
3FE0
1FC0
ENDCHAR
STARTCHAR scaron
ENCODING 353
SWIDTH 480 0
DWIDTH 15 0
BBX 13 18 1 0
BITMAP
38E0
3FE0
1FC0
0700
0700
0000
3FE0
7FF0
F078
F000
7FE0
3FE0
0078
0078
0078
F078
7FF0
3FE0
ENDCHAR
STARTCHAR Tcommaaccent
ENCODING 354
SWIDTH 480 0
DWIDTH 15 0
BBX 13 26 1 -6
BITMAP
7FF0
FFF8
0700
0700
0700
0700
0700
0700
0700
0700
0700
0700
0700
0700
0700
0700
0700
0700
0700
0700
0700
0780
03C0
03C0
0F80
1F00
ENDCHAR
STARTCHAR tcommaaccent
ENCODING 355
SWIDTH 480 0
DWIDTH 15 0
BBX 13 23 1 -6
BITMAP
0C00
1E00
1E00
1E00
1E00
FFC0
7F80
1E00
1E00
1E00
1E00
1E00
1E00
1E00
1E78
0FF0
07E0
03C0
01E0
00E0
00E0
07E0
07C0
ENDCHAR
STARTCHAR Tcaron
ENCODING 356
SWIDTH 480 0
DWIDTH 15 0
BBX 13 23 1 0
BITMAP
38E0
38E0
1FC0
0F80
0700
0000
7FF0
FFF8
0700
0700
0700
0700
0700
0700
0700
0700
0700
0700
0700
0700
0700
0700
0700
ENDCHAR
STARTCHAR tcaron
ENCODING 357
SWIDTH 480 0
DWIDTH 15 0
BBX 13 23 1 0
BITMAP
6180
F3C0
3F00
3F00
1E00
0000
0C00
1E00
1E00
1E00
1E00
FFC0
7F80
1E00
1E00
1E00
1E00
1E00
1E00
1E00
1E78
0FF0
07E0
ENDCHAR
STARTCHAR Tbar
ENCODING 358
SWIDTH 480 0
DWIDTH 15 0
BBX 13 20 1 0
BITMAP
7FF0
FFF8
0700
0700
0700
0700
0700
0700
3FE0
3FE0
0700
0700
0700
0700
0700
0700
0700
0700
0700
0700
ENDCHAR
STARTCHAR tbar
ENCODING 359
SWIDTH 480 0
DWIDTH 15 0
BBX 13 17 1 0
BITMAP
0C00
1E00
1E00
1E00
1E00
FFC0
7F80
1E00
3F00
3F00
1E00
1E00
1E00
1E00
1E78
0FF0
07E0
ENDCHAR
STARTCHAR Utilde
ENCODING 360
SWIDTH 480 0
DWIDTH 15 0
BBX 13 23 1 0
BITMAP
0C20
1E60
3FE0
3FE0
33C0
0000
6030
F078
F078
F078
F078
F078
F078
F078
F078
F078
F078
F078
F078
F078
38E0
3FE0
1FC0
ENDCHAR
STARTCHAR utilde
ENCODING 361
SWIDTH 480 0
DWIDTH 15 0
BBX 13 18 1 0
BITMAP
1E60
3FE0
3FE0
33C0
2180
0000
F078
F078
F078
F078
F078
F078
F078
F078
F078
38F8
3FF8
1F78
ENDCHAR
STARTCHAR Umacron
ENCODING 362
SWIDTH 480 0
DWIDTH 15 0
BBX 13 23 1 0
BITMAP
7FF0
FFF8
0000
6030
F078
F078
F078
F078
F078
F078
F078
F078
F078
F078
F078
F078
F078
F078
F078
F078
38E0
3FE0
1FC0
ENDCHAR
STARTCHAR umacron
ENCODING 363
SWIDTH 480 0
DWIDTH 15 0
BBX 13 15 1 0
BITMAP
FFF8
7FF0
0000
F078
F078
F078
F078
F078
F078
F078
F078
F078
38F8
3FF8
1F78
ENDCHAR
STARTCHAR Ubreve
ENCODING 364
SWIDTH 480 0
DWIDTH 15 0
BBX 13 23 1 0
BITMAP
2020
3060
38E0
3FE0
1FC0
0000
6030
F078
F078
F078
F078
F078
F078
F078
F078
F078
F078
F078
F078
F078
38E0
3FE0
1FC0
ENDCHAR
STARTCHAR ubreve
ENCODING 365
SWIDTH 480 0
DWIDTH 15 0
BBX 13 18 1 0
BITMAP
3060
38E0
38E0
1FC0
0F80
0000
F078
F078
F078
F078
F078
F078
F078
F078
F078
38F8
3FF8
1F78
ENDCHAR
STARTCHAR Uring
ENCODING 366
SWIDTH 480 0
DWIDTH 15 0
BBX 13 24 1 0
BITMAP
0700
0F80
18C0
18C0
0F80
0700
0000
6030
F078
F078
F078
F078
F078
F078
F078
F078
F078
F078
F078
F078
F078
38E0
3FE0
1FC0
ENDCHAR
STARTCHAR uring
ENCODING 367
SWIDTH 480 0
DWIDTH 15 0
BBX 13 20 1 0
BITMAP
0700
0700
18C0
18C0
18C0
0700
0700
0000
F078
F078
F078
F078
F078
F078
F078
F078
F078
38F8
3FF8
1F78
ENDCHAR
STARTCHAR Uhungarumlaut
ENCODING 368
SWIDTH 480 0
DWIDTH 15 0
BBX 13 23 1 0
BITMAP
0C30
1E78
38E0
38E0
0000
F078
F078
F078
F078
F078
F078
F078
F078
F078
F078
F078
F078
F078
F078
F078
38E0
3FE0
1FC0
ENDCHAR
STARTCHAR uhungarumlaut
ENCODING 369
SWIDTH 480 0
DWIDTH 15 0
BBX 13 17 1 0
BITMAP
0C30
1E78
38E0
38E0
0000
F078
F078
F078
F078
F078
F078
F078
F078
F078
38F8
3FF8
1F78
ENDCHAR
STARTCHAR Uogonek
ENCODING 370
SWIDTH 480 0
DWIDTH 15 0
BBX 13 26 1 -6
BITMAP
6030
F078
F078
F078
F078
F078
F078
F078
F078
F078
F078
F078
F078
F078
F078
F078
F078
38E0
3FE0
1FC0
03C0
07C0
07C0
0700
07E0
03E0
ENDCHAR
STARTCHAR uogonek
ENCODING 371
SWIDTH 480 0
DWIDTH 15 0
BBX 13 18 1 -6
BITMAP
F078
F078
F078
F078
F078
F078
F078
F078
F078
38F8
3FF8
1F78
00F8
01F0
03C0
03C0
01F0
00F8
ENDCHAR
STARTCHAR Wcircumflex
ENCODING 372
SWIDTH 480 0
DWIDTH 15 0
BBX 13 24 1 0
BITMAP
0700
0F80
1FC0
38E0
38E0
0000
F078
F078
F078
F078
F078
F078
F778
F778
F778
F778
F778
F778
F8F8
F8F8
F8F8
F078
F078
F078
ENDCHAR
STARTCHAR wcircumflex
ENCODING 373
SWIDTH 480 0
DWIDTH 15 0
BBX 13 18 1 0
BITMAP
0700
0F80
1FC0
38E0
38E0
0000
F078
F078
F078
F078
F778
F778
F778
F778
F778
FFF8
7FF0
38E0
ENDCHAR
STARTCHAR Ycircumflex
ENCODING 374
SWIDTH 480 0
DWIDTH 15 0
BBX 13 24 1 0
BITMAP
0700
0F80
1FC0
38E0
38E0
0000
F078
78F0
38E0
38E0
3FE0
1FC0
1FC0
0F80
0700
0700
0700
0700
0700
0700
0700
0700
0700
0700
ENDCHAR
STARTCHAR ycircumflex
ENCODING 375
SWIDTH 480 0
DWIDTH 15 0
BBX 13 24 1 -6
BITMAP
0700
0F80
1FC0
38E0
38E0
0000
F078
F078
F078
F078
F078
F078
F078
F078
F078
38F8
3FF8
1F78
0078
6078
F078
38E0
3FE0
1FC0
ENDCHAR
STARTCHAR Ydieresis
ENCODING 376
SWIDTH 480 0
DWIDTH 15 0
BBX 13 23 1 0
BITMAP
38E0
38E0
38E0
38E0
0000
F078
F078
F078
38E0
38E0
38E0
1FC0
1FC0
1FC0
0700
0700
0700
0700
0700
0700
0700
0700
0700
ENDCHAR
STARTCHAR Zacute
ENCODING 377
SWIDTH 480 0
DWIDTH 15 0
BBX 13 24 1 0
BITMAP
00E0
01E0
03C0
0700
0700
0000
FFF8
7FF8
0078
00E0
01E0
03C0
03C0
0780
0700
1E00
1E00
1E00
3800
7800
F000
F000
FFF0
FFF8
ENDCHAR
STARTCHAR zacute
ENCODING 378
SWIDTH 480 0
DWIDTH 15 0
BBX 11 18 3 0
BITMAP
0380
0780
0F00
1C00
1C00
0000
FFE0
FFE0
01E0
0380
0780
0F00
1C00
3C00
7800
E000
FFC0
FFE0
ENDCHAR
STARTCHAR Zdotaccent
ENCODING 379
SWIDTH 480 0
DWIDTH 15 0
BBX 13 23 1 0
BITMAP
0700
0700
0700
0700
0000
FFF8
7FF8
0078
00E0
01E0
03C0
03C0
0780
0700
1E00
1E00
1E00
3800
7800
F000
F000
FFF0
FFF8
ENDCHAR
STARTCHAR zdotaccent
ENCODING 380
SWIDTH 480 0
DWIDTH 15 0
BBX 11 17 3 0
BITMAP
0600
0F00
0F00
0600
0000
FFE0
FFE0
01E0
0380
0780
0F00
1C00
3C00
7800
E000
FFC0
FFE0
ENDCHAR
STARTCHAR Zcaron
ENCODING 381
SWIDTH 480 0
DWIDTH 15 0
BBX 13 23 1 0
BITMAP
38E0
38E0
1FC0
0F80
0700
0000
7FF0
FFF8
0078
00F0
00E0
03C0
03C0
03C0
0700
0F00
1E00
1E00
3C00
3800
F000
FFF0
FFF8
ENDCHAR
STARTCHAR zcaron
ENCODING 382
SWIDTH 480 0
DWIDTH 15 0
BBX 11 18 3 0
BITMAP
E380
FF80
7F00
1C00
1C00
0000
FFE0
FFE0
01E0
0380
0780
0F00
1C00
3C00
7800
E000
FFC0
FFE0
ENDCHAR
STARTCHAR longs
ENCODING 383
SWIDTH 480 0
DWIDTH 15 0
BBX 13 20 1 0
BITMAP
07E0
07E0
1E78
1E30
1E00
1E00
1E00
1E00
FE00
7E00
1E00
1E00
1E00
1E00
1E00
1E00
1E00
1E00
1E00
1E00
ENDCHAR
STARTCHAR uni0180
ENCODING 384
SWIDTH 480 0
DWIDTH 15 0
BBX 14 20 0 0
BITMAP
3000
7800
7800
FE00
FF00
7800
7800
7800
7BE0
7FF0
7C70
783C
783C
783C
783C
783C
783C
7C70
7FF0
7BE0
ENDCHAR
STARTCHAR uni0181
ENCODING 385
SWIDTH 480 0
DWIDTH 15 0
BBX 14 20 0 0
BITMAP
3F80
7F80
DDE0
DCF0
DC70
1C70
1C70
1C70
1DE0
1FE0
1FE0
1C70
1C78
1C3C
1C3C
1C3C
1C3C
1C70
1FF0
1FE0
ENDCHAR
STARTCHAR uni0182
ENCODING 386
SWIDTH 480 0
DWIDTH 15 0
BBX 13 20 1 0
BITMAP
7FE0
FFE0
F000
F000
F000
F000
F000
F000
FFC0
FFE0
F0E0
F078
F078
F078
F078
F078
F078
F0E0
FFE0
FFC0
ENDCHAR
STARTCHAR uni0183
ENCODING 387
SWIDTH 480 0
DWIDTH 15 0
BBX 11 20 1 0
BITMAP
7F80
FFC0
F000
F000
F000
F000
F000
F000
F700
FF80
FBC0
F0E0
F0E0
F0E0
F0E0
F0E0
F0E0
FBC0
FF80
F700
ENDCHAR
STARTCHAR uni0184
ENCODING 388
SWIDTH 480 0
DWIDTH 15 0
BBX 14 20 0 0
BITMAP
3000
7800
F800
F800
F800
7800
7800
7800
7FE0
7FF0
7870
783C
783C
783C
783C
783C
783C
7870
7FF0
7FE0
ENDCHAR
STARTCHAR uni0185
ENCODING 389
SWIDTH 480 0
DWIDTH 15 0
BBX 13 18 1 0
BITMAP
3800
7800
F800
F800
7800
3800
3BC0
3FE0
3EE0
3878
3878
3878
3878
3878
3878
3EE0
3FE0
3BC0
ENDCHAR
STARTCHAR uni0186
ENCODING 390
SWIDTH 480 0
DWIDTH 15 0
BBX 13 20 1 0
BITMAP
0F80
1FC0
38E0
78F0
F078
0078
0078
0078
0078
0078
0078
0078
0078
0078
0078
6078
F078
38E0
3FE0
1FC0
ENDCHAR
STARTCHAR uni0187
ENCODING 391
SWIDTH 480 0
DWIDTH 15 0
BBX 14 23 1 0
BITMAP
001C
001C
0078
0FF0
1FE0
38E0
78E0
F060
F000
F000
F000
F000
F000
F000
F000
F000
F000
F000
F030
F078
38E0
3FE0
1FC0
ENDCHAR
STARTCHAR uni0188
ENCODING 392
SWIDTH 480 0
DWIDTH 15 0
BBX 14 17 1 0
BITMAP
001C
001C
0078
0070
0060
1FE0
3FE0
3860
F000
F000
F000
F000
F000
F000
3878
3FF0
1FE0
ENDCHAR
STARTCHAR uni0189
ENCODING 393
SWIDTH 480 0
DWIDTH 15 0
BBX 14 20 0 0
BITMAP
3FC0
7FE0
7870
7878
783C
783C
783C
783C
783C
FC3C
FC3C
783C
783C
783C
783C
783C
783C
7870
7FF0
7FE0
ENDCHAR
STARTCHAR uni018A
ENCODING 394
SWIDTH 480 0
DWIDTH 15 0
BBX 14 20 0 0
BITMAP
3FC0
7FE0
DC70
DC78
DC3C
1C3C
1C3C
1C3C
1C3C
1C3C
1C3C
1C3C
1C3C
1C3C
1C3C
1C3C
1C3C
1C70
1FF0
1FE0
ENDCHAR
STARTCHAR uni018B
ENCODING 395
SWIDTH 480 0
DWIDTH 15 0
BBX 13 20 1 0
BITMAP
3FF0
3FF8
0078
0078
0078
0078
0078
0078
1FF8
3FF8
3878
F078
F078
F078
F078
F078
F078
3878
3FF8
1FF8
ENDCHAR
STARTCHAR uni018C
ENCODING 396
SWIDTH 480 0
DWIDTH 15 0
BBX 11 20 1 0
BITMAP
3FE0
3FE0
00E0
00E0
00E0
00E0
00E0
00E0
1EE0
3FE0
3BE0
F0E0
F0E0
F0E0
F0E0
F0E0
F0E0
3BE0
3FE0
1EE0
ENDCHAR
STARTCHAR uni018D
ENCODING 397
SWIDTH 480 0
DWIDTH 15 0
BBX 13 18 1 -6
BITMAP
1FC0
3FE0
38E0
F078
F078
F078
F078
F078
F078
38E0
3FE0
1FC0
03C0
01E0
00E0
3878
3FF0
1FE0
ENDCHAR
STARTCHAR uni018E
ENCODING 398
SWIDTH 480 0
DWIDTH 15 0
BBX 13 20 1 0
BITMAP
7FF0
FFF8
0078
0078
0078
0078
0078
0078
0078
0FF8
1FF8
0078
0078
0078
0078
0078
0078
0078
7FF8
FFF8
ENDCHAR
STARTCHAR uni018F
ENCODING 399
SWIDTH 480 0
DWIDTH 15 0
BBX 13 20 1 0
BITMAP
0F80
1FC0
38E0
78F0
F078
0078
0078
0078
0078
7FF8
FFF8
F078
F078
F078
F078
F078
F078
38E0
3FE0
1FC0
ENDCHAR
STARTCHAR uni0190
ENCODING 400
SWIDTH 480 0
DWIDTH 15 0
BBX 13 20 1 0
BITMAP
0FE0
1FE0
3878
7830
F000
F000
F000
F000
3800
3FE0
1FE0
3800
7800
F000
F000
F000
F000
3878
3FF0
1FE0
ENDCHAR
STARTCHAR uni0191
ENCODING 401
SWIDTH 480 0
DWIDTH 15 0
BBX 14 25 0 -5
BITMAP
3FF8
7FFC
7800
7800
7800
7800
7800
7800
7800
7FC0
7FE0
7800
7800
7800
7800
7800
7800
7800
7800
7800
7800
7800
7800
E000
E000
ENDCHAR
STARTCHAR florin
ENCODING 402
SWIDTH 480 0
DWIDTH 15 0
BBX 14 25 0 -5
BITMAP
03F0
03F0
0F3C
0F3C
0F3C
0F00
0F00
0F00
7FE0
3FC0
0F00
0F00
0F00
0F00
0F00
0F00
0F00
0F00
0F00
0F00
0F00
EF00
EF00
7C00
3C00
ENDCHAR
STARTCHAR uni0193
ENCODING 403
SWIDTH 480 0
DWIDTH 15 0
BBX 14 23 1 0
BITMAP
001C
001C
0078
0FF0
1FE0
38E0
78E0
F000
F000
F000
F000
F000
F1F0
F3F8
F078
F078
F078
F078
F078
F078
38F8
3FF8
1FD8
ENDCHAR
STARTCHAR uni0194
ENCODING 404
SWIDTH 480 0
DWIDTH 15 0
BBX 13 20 1 0
BITMAP
6030
F078
F078
F078
F078
38E0
38E0
38E0
38E0
3FE0
1FC0
1FC0
0F80
0700
1FC0
3FE0
38E0
38E0
3FE0
1FC0
ENDCHAR
STARTCHAR uni0195
ENCODING 405
SWIDTH 480 0
DWIDTH 15 0
BBX 13 20 1 0
BITMAP
6000
F000
F000
F000
F000
F000
F000
F000
FE78
FF78
F778
F778
F778
F778
F778
F778
F778
F778
F7F0
F3E0
ENDCHAR
STARTCHAR uni0196
ENCODING 406
SWIDTH 480 0
DWIDTH 15 0
BBX 11 20 3 0
BITMAP
FC00
FC00
1C00
1C00
1C00
1C00
1C00
1C00
1C00
1C00
1C00
1C00
1C00
1C00
1C00
1C00
1C00
1DE0
1FC0
0F80
ENDCHAR
STARTCHAR uni0197
ENCODING 407
SWIDTH 480 0
DWIDTH 15 0
BBX 13 20 1 0
BITMAP
7FF0
FFF8
0700
0700
0700
0700
0700
0700
3FE0
3FE0
0700
0700
0700
0700
0700
0700
0700
0700
7FF0
FFF8
ENDCHAR
STARTCHAR uni0198
ENCODING 408
SWIDTH 480 0
DWIDTH 15 0
BBX 14 20 1 0
BITMAP
60F0
F0F8
F3DC
F3DC
F3C0
F700
F700
F700
F700
FF00
FE00
F700
F700
F700
F3C0
F3C0
F3C0
F0E0
F0E0
F0E0
ENDCHAR
STARTCHAR uni0199
ENCODING 409
SWIDTH 480 0
DWIDTH 15 0
BBX 13 20 1 0
BITMAP
3C00
3E00
F000
F000
F000
F000
F000
F000
F0E0
F1E0
F3C0
F700
FF00
FE00
FF00
FF80
F3C0
F0E0
F0F0
F078
ENDCHAR
STARTCHAR uni019A
ENCODING 410
SWIDTH 480 0
DWIDTH 15 0
BBX 13 20 1 0
BITMAP
3F00
3F00
0700
0700
0700
0700
0700
0700
3FE0
3FE0
0700
0700
0700
0700
0700
0700
0700
0700
7FF0
FFF8
ENDCHAR
STARTCHAR uni019B
ENCODING 411
SWIDTH 480 0
DWIDTH 15 0
BBX 14 20 0 0
BITMAP
3000
7800
79E0
3FC0
1F80
1F00
3F00
7F00
E380
E380
0380
0FE0
0FE0
0FE0
1C70
1C70
1C70
783C
783C
783C
ENDCHAR
STARTCHAR uni019C
ENCODING 412
SWIDTH 480 0
DWIDTH 15 0
BBX 13 20 1 0
BITMAP
6730
F778
F778
F778
F778
F778
F778
F778
F778
F778
F778
F778
F778
F778
F778
F778
F778
FFF8
7FF8
3BD8
ENDCHAR
STARTCHAR uni019D
ENCODING 413
SWIDTH 480 0
DWIDTH 15 0
BBX 14 26 0 -6
BITMAP
3018
783C
7C3C
7C3C
7C3C
7F3C
7F3C
7F3C
7BBC
7BBC
7BBC
79FC
79FC
79FC
787C
787C
787C
783C
783C
783C
7800
7800
7800
7800
F000
E000
ENDCHAR
STARTCHAR uni019E
ENCODING 414
SWIDTH 480 0
DWIDTH 15 0
BBX 13 18 1 -6
BITMAP
F7C0
FFE0
F8E0
F078
F078
F078
F078
F078
F078
F078
F078
F078
0078
0078
0078
0078
0078
0078
ENDCHAR
STARTCHAR uni019F
ENCODING 415
SWIDTH 480 0
DWIDTH 15 0
BBX 13 20 1 0
BITMAP
0F80
1FC0
38E0
78F0
F078
F078
F078
F078
F078
FFF8
FFF8
F078
F078
F078
F078
F078
F078
38E0
3FE0
1FC0
ENDCHAR
STARTCHAR Ohorn
ENCODING 416
SWIDTH 480 0
DWIDTH 15 0
BBX 14 20 1 0
BITMAP
0F1C
1F1C
3BDC
79FC
F0F8
F0E0
F0E0
F0E0
F0E0
F0E0
F0E0
F0E0
F0E0
F0E0
F0E0
F0E0
F0E0
3BC0
3F80
1F00
ENDCHAR
STARTCHAR ohorn
ENCODING 417
SWIDTH 480 0
DWIDTH 15 0
BBX 14 12 1 0
BITMAP
1F1C
3F9C
3BDC
F0F8
F0F0
F0E0
F0E0
F0E0
F0E0
3BC0
3F80
1F00
ENDCHAR
STARTCHAR uni01A2
ENCODING 418
SWIDTH 480 0
DWIDTH 15 0
BBX 14 26 0 -6
BITMAP
1CF0
1DF0
7FBC
FFBC
E3BC
E3BC
E3BC
E3BC
E3BC
E3BC
E3BC
E3BC
E3BC
E3BC
E3BC
E3BC
E3BC
7F3C
3E3C
1C3C
003C
003C
003C
003C
003C
003C
ENDCHAR
STARTCHAR uni01A3
ENCODING 419
SWIDTH 480 0
DWIDTH 15 0
BBX 14 18 0 -6
BITMAP
1DF0
3FF8
7FBC
E3BC
E3BC
E3BC
E3BC
E3BC
E3BC
7F3C
3E3C
1C3C
003C
003C
003C
003C
003C
003C
ENDCHAR
STARTCHAR uni01A4
ENCODING 420
SWIDTH 480 0
DWIDTH 15 0
BBX 14 20 0 0
BITMAP
3FC0
7FE0
DC70
DC78
DC3C
1C3C
1C3C
1C3C
1C3C
1C78
1C70
1FE0
1FC0
1C00
1C00
1C00
1C00
1C00
1C00
1C00
ENDCHAR
STARTCHAR uni01A5
ENCODING 421
SWIDTH 480 0
DWIDTH 15 0
BBX 13 26 1 -6
BITMAP
3C00
3E00
F700
F700
F000
F000
F000
F000
F7C0
FFE0
F8E0
F078
F078
F078
F078
F078
F078
F8E0
FFE0
F7C0
F000
F000
F000
F000
F000
F000
ENDCHAR
STARTCHAR uni01A6
ENCODING 422
SWIDTH 480 0
DWIDTH 15 0
BBX 14 26 1 -3
BITMAP
6000
F000
F000
FF80
FFC0
F0E0
F0F0
F078
F078
F078
F078
F078
F0F0
F0E0
FFC0
FFC0
F3C0
F0E0
F0E0
F0E0
F078
F078
F078
001C
001C
001C
ENDCHAR
STARTCHAR uni01A7
ENCODING 423
SWIDTH 480 0
DWIDTH 15 0
BBX 13 20 1 0
BITMAP
0F80
1FC0
38E0
78F0
F078
0078
0078
0078
00E0
0FE0
1FC0
3800
7800
F000
F000
F030
F078
38E0
3FE0
1FC0
ENDCHAR
STARTCHAR uni01A8
ENCODING 424
SWIDTH 480 0
DWIDTH 15 0
BBX 13 12 1 0
BITMAP
3FE0
7FF0
F078
0078
3FF0
3FE0
F000
F000
F000
F078
7FF0
3FE0
ENDCHAR
STARTCHAR uni01A9
ENCODING 425
SWIDTH 480 0
DWIDTH 15 0
BBX 13 20 1 0
BITMAP
7FF0
FFF8
F000
7800
3800
1E00
0F00
0700
03C0
03C0
03C0
0700
0F00
1E00
1E00
3C00
3800
F000
FFF0
FFF8
ENDCHAR
STARTCHAR uni01AA
ENCODING 426
SWIDTH 480 0
DWIDTH 15 0
BBX 13 26 1 -6
BITMAP
3C00
3E00
F700
E700
C300
F700
7F00
3F00
0700
0700
0700
0700
0700
0700
0700
0700
0700
0700
0700
0700
0700
0700
0700
03C0
01F0
00F8
ENDCHAR
STARTCHAR uni01AB
ENCODING 427
SWIDTH 480 0
DWIDTH 15 0
BBX 13 23 1 -6
BITMAP
0C00
1E00
1E00
1E00
1E00
FFC0
7F80
1E00
1E00
1E00
1E00
1E00
1E00
1E00
1E00
0FF0
07F8
0078
0078
0078
00E0
0FE0
1FC0
ENDCHAR
STARTCHAR uni01AC
ENCODING 428
SWIDTH 480 0
DWIDTH 15 0
BBX 14 20 0 0
BITMAP
3FF8
7FFC
E380
E380
E380
E380
E380
0380
0380
0380
0380
0380
0380
0380
0380
0380
0380
0380
0380
0380
ENDCHAR
STARTCHAR uni01AD
ENCODING 429
SWIDTH 480 0
DWIDTH 15 0
BBX 13 18 1 0
BITMAP
07E0
0FF0
1E78
1E00
1E00
1E00
FFC0
7F80
1E00
1E00
1E00
1E00
1E00
1E00
1E00
1E78
0FF0
07E0
ENDCHAR
STARTCHAR uni01AE
ENCODING 430
SWIDTH 480 0
DWIDTH 15 0
BBX 13 26 1 -6
BITMAP
7FF0
FFF8
0700
0700
0700
0700
0700
0700
0700
0700
0700
0700
0700
0700
0700
0700
0700
0700
0700
0700
0700
0700
0700
0700
07E0
03E0
ENDCHAR
STARTCHAR Uhorn
ENCODING 431
SWIDTH 480 0
DWIDTH 15 0
BBX 14 20 1 0
BITMAP
619C
F3DC
F3DC
F3FC
F3F8
F3C0
F3C0
F3C0
F3C0
F3C0
F3C0
F3C0
F3C0
F3C0
F3C0
F3C0
F3C0
3F00
3F00
1E00
ENDCHAR
STARTCHAR uhorn
ENCODING 432
SWIDTH 480 0
DWIDTH 15 0
BBX 14 12 1 0
BITMAP
F3DC
F3DC
F3DC
F3F8
F3F0
F3C0
F3C0
F3C0
F3C0
3FC0
3FC0
1FC0
ENDCHAR
STARTCHAR uni01B1
ENCODING 433
SWIDTH 480 0
DWIDTH 15 0
BBX 13 20 1 0
BITMAP
78F0
F8F8
18C0
38E0
38E0
F078
F078
F078
F078
F078
F078
F078
F078
F078
F078
F078
F078
38E0
3FE0
1FC0
ENDCHAR
STARTCHAR uni01B2
ENCODING 434
SWIDTH 480 0
DWIDTH 15 0
BBX 13 20 1 0
BITMAP
6180
F3C0
F3C0
F1E0
F0E0
F0E0
F0F0
F078
F078
F078
F078
F078
F078
F078
F078
F078
F078
38E0
3FE0
1FC0
ENDCHAR
STARTCHAR uni01B3
ENCODING 435
SWIDTH 480 0
DWIDTH 15 0
BBX 14 20 0 0
BITMAP
3E18
7F3C
EF3C
EF3C
EF3C
0F3C
07F8
03F0
03F0
03F0
01E0
01E0
01E0
01E0
01E0
01E0
01E0
01E0
01E0
01E0
ENDCHAR
STARTCHAR uni01B4
ENCODING 436
SWIDTH 480 0
DWIDTH 15 0
BBX 14 23 1 -6
BITMAP
003C
007C
00E0
00E0
00E0
F0E0
F0E0
F0E0
F0E0
F0E0
F0E0
F0E0
F0E0
F0E0
3BE0
3FE0
1EE0
00E0
60E0
F0E0
3BC0
3F80
1F00
ENDCHAR
STARTCHAR uni01B5
ENCODING 437
SWIDTH 480 0
DWIDTH 15 0
BBX 13 20 1 0
BITMAP
7FF0
FFF8
0078
0078
0078
00E0
00E0
00E0
03C0
3FE0
3FE0
1E00
3C00
3800
3800
7800
F000
F000
FFF0
FFF8
ENDCHAR
STARTCHAR uni01B6
ENCODING 438
SWIDTH 480 0
DWIDTH 15 0
BBX 11 12 3 0
BITMAP
FFE0
FFE0
01E0
0380
3FC0
7FE0
1C00
3C00
7800
E000
FFC0
FFE0
ENDCHAR
STARTCHAR uni01B7
ENCODING 439
SWIDTH 480 0
DWIDTH 15 0
BBX 13 20 1 0
BITMAP
7FF0
FFF8
0078
00F0
00E0
03C0
0780
0700
1FC0
0FE0
00E0
0078
0078
0078
F078
F078
F078
38E0
3FE0
1FC0
ENDCHAR
STARTCHAR uni01B8
ENCODING 440
SWIDTH 480 0
DWIDTH 15 0
BBX 13 20 1 0
BITMAP
7FF0
FFF8
F000
7800
3800
1E00
0F00
0700
1FC0
3F80
3800
F000
F000
F000
F078
F078
F078
38E0
3FE0
1FC0
ENDCHAR
STARTCHAR uni01B9
ENCODING 441
SWIDTH 480 0
DWIDTH 15 0
BBX 13 18 1 -6
BITMAP
FFE0
FFE0
F000
3800
3C00
1E00
0700
0F80
1FC0
3800
7800
F000
F078
F078
F078
38E0
3FE0
1FC0
ENDCHAR
STARTCHAR uni01BA
ENCODING 442
SWIDTH 480 0
DWIDTH 15 0
BBX 11 18 3 -6
BITMAP
FFE0
FFE0
01E0
0380
0780
0F00
7F80
3FC0
01E0
01E0
07C0
0F80
1C00
3C00
7800
7B80
3F80
1F00
ENDCHAR
STARTCHAR uni01BB
ENCODING 443
SWIDTH 480 0
DWIDTH 15 0
BBX 13 20 1 0
BITMAP
0F80
1FC0
38E0
78F0
F078
F078
6078
0078
0078
00F0
00E0
FFF8
7FF0
1E00
3800
7800
F000
F000
FFF0
FFF8
ENDCHAR
STARTCHAR uni01BC
ENCODING 444
SWIDTH 480 0
DWIDTH 15 0
BBX 13 20 1 0
BITMAP
7FF0
FFF8
F018
F010
F000
F000
F000
F000
F7C0
FFE0
F8E0
0078
0078
0078
0078
6078
F078
38E0
3FE0
1FC0
ENDCHAR
STARTCHAR uni01BD
ENCODING 445
SWIDTH 480 0
DWIDTH 15 0
BBX 9 20 3 0
BITMAP
FF80
FF80
E180
E080
E000
E000
E000
E000
FF00
FF80
FB80
0380
0380
0380
0380
E380
E380
7F00
3E00
1C00
ENDCHAR
STARTCHAR uni01BE
ENCODING 446
SWIDTH 480 0
DWIDTH 15 0
BBX 11 17 1 0
BITMAP
0C00
1E00
1E00
1E00
1E00
FFC0
7F80
1E00
1E00
0F00
0700
03C0
01E0
00E0
38E0
3FE0
1FC0
ENDCHAR
STARTCHAR uni01BF
ENCODING 447
SWIDTH 480 0
DWIDTH 15 0
BBX 13 18 1 -6
BITMAP
F7C0
FFE0
F8E0
F078
F078
F078
F078
F078
F078
F0E0
F7E0
F7C0
FE00
FC00
F000
F000
F000
F000
ENDCHAR
STARTCHAR uni01C0
ENCODING 448
SWIDTH 480 0
DWIDTH 15 0
BBX 3 23 6 -3
BITMAP
E0
E0
E0
E0
E0
E0
E0
E0
E0
E0
E0
E0
E0
E0
E0
E0
E0
E0
E0
E0
E0
E0
E0
ENDCHAR
STARTCHAR uni01C1
ENCODING 449
SWIDTH 480 0
DWIDTH 15 0
BBX 9 23 3 -3
BITMAP
E380
E380
E380
E380
E380
E380
E380
E380
E380
E380
E380
E380
E380
E380
E380
E380
E380
E380
E380
E380
E380
E380
E380
ENDCHAR
STARTCHAR uni01C2
ENCODING 450
SWIDTH 480 0
DWIDTH 15 0
BBX 13 14 1 0
BITMAP
0700
0700
0700
7FF0
FFF8
0700
0700
0700
0700
7FF0
FFF8
0700
0700
0700
ENDCHAR
STARTCHAR uni01C3
ENCODING 451
SWIDTH 480 0
DWIDTH 15 0
BBX 3 20 6 0
BITMAP
E0
E0
E0
E0
E0
E0
E0
E0
E0
E0
E0
E0
E0
E0
00
00
00
E0
E0
E0
ENDCHAR
STARTCHAR uni01C4
ENCODING 452
SWIDTH 480 0
DWIDTH 15 0
BBX 15 23 0 0
BITMAP
00CE
01EE
007C
0078
0000
FC7E
FE7E
EF0E
EF0E
EF0E
EF0E
EF3C
EF3C
EF3C
EF3C
EF3C
EF3C
EF70
EF70
EF70
EF70
FE7E
FC7E
ENDCHAR
STARTCHAR uni01C5
ENCODING 453
SWIDTH 480 0
DWIDTH 15 0
BBX 15 20 0 0
BITMAP
FC00
FC00
EF00
EFCE
EFEE
EF7C
EF78
EF00
EF7E
EF7E
EF0E
EF0E
EF1E
EF3C
EF3C
EF78
EF70
EF70
FE7E
FC7E
ENDCHAR
STARTCHAR uni01C6
ENCODING 454
SWIDTH 480 0
DWIDTH 15 0
BBX 15 20 0 0
BITMAP
0600
0F00
0F00
0FCE
0FEE
0F7C
0F78
0F00
7F7E
FF7E
EF0E
EF0E
EF1E
EF3C
EF3C
EF78
EF70
EF70
FF7E
7F7E
ENDCHAR
STARTCHAR uni01C7
ENCODING 455
SWIDTH 480 0
DWIDTH 15 0
BBX 14 20 0 0
BITMAP
E0F8
E1FC
E03C
E03C
E03C
E03C
E03C
E03C
E03C
E03C
E03C
E03C
E03C
E03C
E03C
E03C
E03C
E3BC
FFF8
FDF0
ENDCHAR
STARTCHAR uni01C8
ENCODING 456
SWIDTH 480 0
DWIDTH 15 0
BBX 14 26 0 -6
BITMAP
E000
E000
E000
E018
E03C
E03C
E018
E000
E1FC
E0FC
E03C
E03C
E03C
E03C
E03C
E03C
E03C
E03C
FE3C
FF3C
003C
1C3C
1C3C
1C3C
1FF8
0FF0
ENDCHAR
STARTCHAR uni01C9
ENCODING 457
SWIDTH 480 0
DWIDTH 15 0
BBX 14 26 0 -6
BITMAP
3C00
7C00
1C00
1C18
1C3C
1C3C
1C18
1C00
1DFC
1CFC
1C3C
1C3C
1C3C
1C3C
1C3C
1C3C
1C3C
1C3C
FFBC
FFBC
003C
1C3C
1C3C
1C3C
1FF8
0FF0
ENDCHAR
STARTCHAR uni01CA
ENCODING 458
SWIDTH 480 0
DWIDTH 15 0
BBX 14 25 0 -5
BITMAP
E398
E3BC
E3BC
E3BC
E3BC
FBBC
FBBC
FBBC
FBBC
FFBC
FFBC
EFBC
EFBC
EFBC
EFBC
E7BC
E3BC
E3BC
E3BC
E3BC
003C
1C78
1C70
0FE0
07C0
ENDCHAR
STARTCHAR uni01CB
ENCODING 459
SWIDTH 480 0
DWIDTH 15 0
BBX 14 26 0 -6
BITMAP
E380
E380
E380
E398
E3BC
FBBC
FB98
FB80
FBBC
FFBC
FFBC
EFBC
EFBC
EFBC
EFBC
E7BC
E3BC
E3BC
E3BC
E3BC
003C
1C3C
1C3C
1C3C
1FF8
0FF0
ENDCHAR
STARTCHAR uni01CC
ENCODING 460
SWIDTH 480 0
DWIDTH 15 0
BBX 14 23 0 -6
BITMAP
0018
003C
003C
0018
0000
EF3C
FFBC
FBBC
E3BC
E3BC
E3BC
E3BC
E3BC
E3BC
E3BC
E3BC
E3BC
003C
1C3C
1C3C
1C3C
1FF8
0FF0
ENDCHAR
STARTCHAR uni01CD
ENCODING 461
SWIDTH 480 0
DWIDTH 15 0
BBX 13 23 1 0
BITMAP
38E0
38E0
1FC0
0F80
0700
0000
0700
0700
1FC0
3FE0
38E0
38E0
78F0
F078
F078
FFF8
FFF8
F078
F078
F078
F078
F078
F078
ENDCHAR
STARTCHAR uni01CE
ENCODING 462
SWIDTH 480 0
DWIDTH 15 0
BBX 13 18 1 0
BITMAP
38E0
3FE0
1FC0
0700
0700
0000
1FE0
3FF0
3878
0078
3FF8
3FF8
F078
F078
F078
F078
7FF8
3FD8
ENDCHAR
STARTCHAR uni01CF
ENCODING 463
SWIDTH 480 0
DWIDTH 15 0
BBX 13 23 1 0
BITMAP
38E0
38E0
1FC0
0F80
0700
0000
7FF0
FFF8
0700
0700
0700
0700
0700
0700
0700
0700
0700
0700
0700
0700
0700
7FF0
FFF8
ENDCHAR
STARTCHAR uni01D0
ENCODING 464
SWIDTH 480 0
DWIDTH 15 0
BBX 13 18 1 0
BITMAP
38E0
3FE0
1FC0
0700
0700
0000
3F00
3F00
0700
0700
0700
0700
0700
0700
0700
0700
7FF0
FFF8
ENDCHAR
STARTCHAR uni01D1
ENCODING 465
SWIDTH 480 0
DWIDTH 15 0
BBX 13 23 1 0
BITMAP
38E0
38E0
1FC0
0F80
0700
0000
0F80
1FC0
38E0
78F0
F078
F078
F078
F078
F078
F078
F078
F078
F078
F078
38E0
3FE0
1FC0
ENDCHAR
STARTCHAR uni01D2
ENCODING 466
SWIDTH 480 0
DWIDTH 15 0
BBX 13 18 1 0
BITMAP
38E0
3FE0
1FC0
0700
0700
0000
1FC0
3FE0
38E0
F078
F078
F078
F078
F078
F078
38E0
3FE0
1FC0
ENDCHAR
STARTCHAR uni01D3
ENCODING 467
SWIDTH 480 0
DWIDTH 15 0
BBX 13 23 1 0
BITMAP
38E0
38E0
1FC0
0F80
0700
F078
F078
F078
F078
F078
F078
F078
F078
F078
F078
F078
F078
F078
F078
F078
38E0
3FE0
1FC0
ENDCHAR
STARTCHAR uni01D4
ENCODING 468
SWIDTH 480 0
DWIDTH 15 0
BBX 13 18 1 0
BITMAP
38E0
3FE0
1FC0
0700
0700
0000
F078
F078
F078
F078
F078
F078
F078
F078
F078
38F8
3FF8
1F78
ENDCHAR
STARTCHAR uni01D5
ENCODING 469
SWIDTH 480 0
DWIDTH 15 0
BBX 13 23 1 0
BITMAP
7FF0
FFF8
0000
38E0
38E0
38E0
38E0
0000
F078
F078
F078
F078
F078
F078
F078
F078
F078
F078
F078
F078
38E0
3FE0
1FC0
ENDCHAR
STARTCHAR uni01D6
ENCODING 470
SWIDTH 480 0
DWIDTH 15 0
BBX 13 20 1 0
BITMAP
7FF0
FFF8
0000
38E0
38E0
38E0
38E0
0000
F078
F078
F078
F078
F078
F078
F078
F078
F078
38F8
3FF8
1F78
ENDCHAR
STARTCHAR uni01D7
ENCODING 471
SWIDTH 480 0
DWIDTH 15 0
BBX 13 24 1 0
BITMAP
03C0
0780
0700
0000
38E0
38E0
38E0
38E0
0000
F078
F078
F078
F078
F078
F078
F078
F078
F078
F078
F078
F078
38E0
3FE0
1FC0
ENDCHAR
STARTCHAR uni01D8
ENCODING 472
SWIDTH 480 0
DWIDTH 15 0
BBX 13 21 1 0
BITMAP
03C0
0780
0700
0000
38E0
38E0
38E0
38E0
0000
F078
F078
F078
F078
F078
F078
F078
F078
F078
38F8
3FF8
1F78
ENDCHAR
STARTCHAR uni01D9
ENCODING 473
SWIDTH 480 0
DWIDTH 15 0
BBX 13 24 1 0
BITMAP
1EE0
0FE0
07C0
0000
38E0
38E0
38E0
38E0
0000
F078
F078
F078
F078
F078
F078
F078
F078
F078
F078
F078
F078
38E0
3FE0
1FC0
ENDCHAR
STARTCHAR uni01DA
ENCODING 474
SWIDTH 480 0
DWIDTH 15 0
BBX 13 21 1 0
BITMAP
1EE0
0FE0
07C0
0000
38E0
38E0
38E0
38E0
0000
F078
F078
F078
F078
F078
F078
F078
F078
F078
38F8
3FF8
1F78
ENDCHAR
STARTCHAR uni01DB
ENCODING 475
SWIDTH 480 0
DWIDTH 15 0
BBX 13 24 1 0
BITMAP
1E00
0F00
0700
0000
38E0
38E0
38E0
38E0
0000
F078
F078
F078
F078
F078
F078
F078
F078
F078
F078
F078
F078
38E0
3FE0
1FC0
ENDCHAR
STARTCHAR uni01DC
ENCODING 476
SWIDTH 480 0
DWIDTH 15 0
BBX 13 21 1 0
BITMAP
1E00
0F00
0700
0000
38E0
38E0
38E0
38E0
0000
F078
F078
F078
F078
F078
F078
F078
F078
F078
38F8
3FF8
1F78
ENDCHAR
STARTCHAR uni01DD
ENCODING 477
SWIDTH 480 0
DWIDTH 15 0
BBX 13 12 1 0
BITMAP
3FC0
7FE0
F0E0
0078
0078
0078
FFF8
FFF8
F078
38E0
3FE0
1FC0
ENDCHAR
STARTCHAR uni01DE
ENCODING 478
SWIDTH 480 0
DWIDTH 15 0
BBX 13 24 1 0
BITMAP
FFF8
7FF0
0000
38E0
38E0
38E0
0000
0700
0700
1FC0
3FE0
38E0
F078
F078
F078
F078
FFF8
FFF8
F078
F078
F078
F078
F078
F078
ENDCHAR
STARTCHAR uni01DF
ENCODING 479
SWIDTH 480 0
DWIDTH 15 0
BBX 13 20 1 0
BITMAP
7FF0
FFF8
0000
38E0
38E0
38E0
38E0
0000
1FE0
3FF0
3878
0078
3FF8
3FF8
F078
F078
F078
F078
7FF8
3FD8
ENDCHAR
STARTCHAR uni01E0
ENCODING 480
SWIDTH 480 0
DWIDTH 15 0
BBX 13 24 1 0
BITMAP
FFF8
7FF0
0000
0700
0700
0700
0000
0700
0700
1FC0
3FE0
38E0
F078
F078
F078
F078
FFF8
FFF8
F078
F078
F078
F078
F078
F078
ENDCHAR
STARTCHAR uni01E1
ENCODING 481
SWIDTH 480 0
DWIDTH 15 0
BBX 13 20 1 0
BITMAP
7FF0
FFF8
0000
0700
0700
0700
0700
0000
1FE0
3FF0
3878
0078
3FF8
3FF8
F078
F078
F078
F078
7FF8
3FD8
ENDCHAR
STARTCHAR uni01E2
ENCODING 482
SWIDTH 480 0
DWIDTH 15 0
BBX 13 23 1 0
BITMAP
7FF0
FFF8
0000
07F0
07F8
1FC0
3FC0
3BC0
3BC0
7BC0
F3C0
F3C0
FFF0
FFF8
F3C0
F3C0
F3C0
F3C0
F3C0
F3C0
F3C0
F3F0
F3F8
ENDCHAR
STARTCHAR uni01E3
ENCODING 483
SWIDTH 480 0
DWIDTH 15 0
BBX 13 15 1 0
BITMAP
FFF8
7FF0
0000
3EE0
7FF0
C778
0778
07F0
07E0
3F00
7F00
F700
F718
7FF0
3BE0
ENDCHAR
STARTCHAR uni01E4
ENCODING 484
SWIDTH 480 0
DWIDTH 15 0
BBX 14 20 1 0
BITMAP
0F80
1FC0
38E0
78F0
F078
F000
F000
F000
F000
F1F0
F3F8
F078
F078
F078
F3FC
F1FC
F078
38F8
3FF8
1FD8
ENDCHAR
STARTCHAR uni01E5
ENCODING 485
SWIDTH 480 0
DWIDTH 15 0
BBX 14 18 1 -6
BITMAP
3FD8
7FF8
F0F8
F0E0
F0E0
F0E0
F0E0
7FE0
3FC0
F000
7FE0
3FE0
F078
F1FC
F3FC
F078
7FF0
3FE0
ENDCHAR
STARTCHAR Gcaron
ENCODING 486
SWIDTH 480 0
DWIDTH 15 0
BBX 13 23 1 0
BITMAP
38E0
38E0
1FC0
0F80
0700
0000
0F80
1FC0
38E0
78E0
F000
F000
F000
F000
F3F8
F1F8
F078
F078
F078
F078
38F8
3FF8
1FD8
ENDCHAR
STARTCHAR gcaron
ENCODING 487
SWIDTH 480 0
DWIDTH 15 0
BBX 13 24 1 -6
BITMAP
38E0
3FE0
1FC0
0700
0700
0000
3FD8
7FF8
F0F8
F0E0
F0E0
F0E0
F0E0
7FE0
3FC0
F000
7FE0
3FE0
F078
F078
F078
F078
7FF0
3FE0
ENDCHAR
STARTCHAR uni01E8
ENCODING 488
SWIDTH 480 0
DWIDTH 15 0
BBX 13 23 1 0
BITMAP
38E0
38E0
1FC0
0F80
0700
F078
F0F0
F0E0
F0E0
F1E0
F3C0
F3C0
FF80
FF00
F3C0
F3C0
F3C0
F0E0
F0E0
F0E0
F078
F078
F078
ENDCHAR
STARTCHAR uni01E9
ENCODING 489
SWIDTH 480 0
DWIDTH 15 0
BBX 13 23 1 0
BITMAP
38E0
38E0
1FC0
0F80
0700
F000
F000
F000
F000
F000
F000
F0E0
F1E0
F3C0
F700
FF00
FE00
FF00
FF80
F3C0
F0E0
F0F0
F078
ENDCHAR
STARTCHAR uni01EA
ENCODING 490
SWIDTH 480 0
DWIDTH 15 0
BBX 13 26 1 -6
BITMAP
0F80
1FC0
38E0
78F0
F078
F078
F078
F078
F078
F078
F078
F078
F078
F078
F078
F078
F078
38E0
3FE0
1FC0
0700
0F00
1E00
1E00
0F80
07C0
ENDCHAR
STARTCHAR uni01EB
ENCODING 491
SWIDTH 480 0
DWIDTH 15 0
BBX 13 18 1 -6
BITMAP
1FC0
3FE0
38E0
F078
F078
F078
F078
F078
F078
38E0
3FE0
1FC0
0700
0F00
1E00
1E00
0F80
07C0
ENDCHAR
STARTCHAR uni01EC
ENCODING 492
SWIDTH 480 0
DWIDTH 15 0
BBX 13 29 1 -6
BITMAP
7FF0
FFF8
0000
0F80
1FC0
38E0
78F0
F078
F078
F078
F078
F078
F078
F078
F078
F078
F078
F078
F078
F078
38E0
3FE0
1FC0
0700
0F00
1E00
1E00
0F80
07C0
ENDCHAR
STARTCHAR uni01ED
ENCODING 493
SWIDTH 480 0
DWIDTH 15 0
BBX 13 21 1 -6
BITMAP
FFF8
7FF0
0000
1FC0
3FE0
38E0
F078
F078
F078
F078
F078
F078
38E0
3FE0
1FC0
0700
0F00
1E00
1E00
0F80
07C0
ENDCHAR
STARTCHAR uni01EE
ENCODING 494
SWIDTH 480 0
DWIDTH 15 0
BBX 13 23 1 0
BITMAP
38E0
38E0
1FC0
0F80
0700
0000
7FF0
FFF8
0078
00F0
00E0
03C0
0FC0
1FC0
00E0
00F0
0078
F078
F078
F078
38E0
3FE0
1FC0
ENDCHAR
STARTCHAR uni01EF
ENCODING 495
SWIDTH 480 0
DWIDTH 15 0
BBX 13 24 1 -6
BITMAP
38E0
3FE0
1FC0
0700
0700
0000
3FF8
3FF8
0078
00E0
01E0
03C0
0700
0F80
1FC0
00E0
00F0
0078
F078
F078
F078
38E0
3FE0
1FC0
ENDCHAR
STARTCHAR uni01F0
ENCODING 496
SWIDTH 480 0
DWIDTH 15 0
BBX 12 24 3 -6
BITMAP
1C70
1FF0
0FE0
0380
0380
0000
0FE0
07E0
01E0
01E0
01E0
01E0
01E0
01E0
01E0
01E0
01E0
01E0
E1E0
E1E0
E1E0
E1E0
FFC0
7F80
ENDCHAR
STARTCHAR uni01F1
ENCODING 497
SWIDTH 480 0
DWIDTH 15 0
BBX 15 20 0 0
BITMAP
FC7E
FC7E
EF0E
EF0E
EF0E
EF0E
EF1E
EF3C
EF3C
EF3C
EF3C
EF3C
EF3C
EF3C
EF70
EF70
EF70
EF70
FE7E
FC7E
ENDCHAR
STARTCHAR uni01F2
ENCODING 498
SWIDTH 480 0
DWIDTH 15 0
BBX 15 20 0 0
BITMAP
FC00
FC00
EF00
EF00
EF00
EF00
EF00
EF00
EF7E
EF7E
EF0E
EF0E
EF1E
EF3C
EF3C
EF78
EF70
EF70
FE7E
FC7E
ENDCHAR
STARTCHAR uni01F3
ENCODING 499
SWIDTH 480 0
DWIDTH 15 0
BBX 15 20 0 0
BITMAP
0600
0F00
0F00
0F00
0F00
0F00
0F00
0F00
7F7E
FF7E
EF0E
EF0E
EF1E
EF3C
EF3C
EF78
EF70
EF70
FF7E
7F7E
ENDCHAR
STARTCHAR uni01F4
ENCODING 500
SWIDTH 480 0
DWIDTH 15 0
BBX 13 24 1 0
BITMAP
00E0
01E0
03C0
0700
0700
0000
1FC0
3FE0
38E0
F078
F030
F000
F000
F1F0
F3F8
F078
F078
F078
F078
F078
F078
38F8
3FF8
1FD8
ENDCHAR
STARTCHAR uni01F5
ENCODING 501
SWIDTH 480 0
DWIDTH 15 0
BBX 13 24 1 -6
BITMAP
03C0
0780
0700
1E00
0C00
0000
3FD8
7FF8
F0F8
F0E0
F0E0
F0E0
F0E0
7FE0
3FC0
F000
7FE0
3FE0
F078
F078
F078
F078
7FF0
3FE0
ENDCHAR
STARTCHAR uni01F6
ENCODING 502
SWIDTH 480 0
DWIDTH 15 0
BBX 13 20 1 0
BITMAP
6700
F700
F700
F700
F700
F700
F700
F700
F778
FF78
FF78
F778
F778
F778
F778
F778
F778
F778
F7F0
F3E0
ENDCHAR
STARTCHAR uni01F7
ENCODING 503
SWIDTH 480 0
DWIDTH 15 0
BBX 13 25 1 -5
BITMAP
6780
F7C0
FEE0
FCF0
F078
F078
F078
F078
F078
F0F0
F0E0
F3C0
F780
F700
FE00
FC00
F000
F000
F000
F000
F000
F000
F000
C000
4000
ENDCHAR
STARTCHAR uni01F8
ENCODING 504
SWIDTH 480 0
DWIDTH 15 0
BBX 13 23 1 0
BITMAP
0C00
1E00
0700
0780
03C0
0000
6030
F078
F878
FC78
FE78
FE78
FF78
F778
F778
F7F8
F3F8
F3F8
F1F8
F0F8
F078
F078
F078
ENDCHAR
STARTCHAR uni01F9
ENCODING 505
SWIDTH 480 0
DWIDTH 15 0
BBX 13 18 1 0
BITMAP
1E00
0F00
0700
03C0
0180
0000
F7C0
FFE0
F8E0
F078
F078
F078
F078
F078
F078
F078
F078
F078
ENDCHAR
STARTCHAR Aringacute
ENCODING 506
SWIDTH 480 0
DWIDTH 15 0
BBX 13 24 1 0
BITMAP
03C0
0780
0700
0000
0700
0700
18C0
18C0
18C0
0700
0700
0700
1FC0
3FE0
38E0
F078
F078
F078
FFF8
FFF8
F078
F078
F078
F078
ENDCHAR
STARTCHAR aringacute
ENCODING 507
SWIDTH 480 0
DWIDTH 15 0
BBX 13 24 1 0
BITMAP
03C0
0780
0700
0000
0700
0700
18C0
18C0
18C0
0700
0700
0000
3FE0
7FF0
F078
0078
3FF8
3FF8
F078
F078
F078
F078
7FF8
3FD8
ENDCHAR
STARTCHAR AEacute
ENCODING 508
SWIDTH 480 0
DWIDTH 15 0
BBX 13 24 1 0
BITMAP
00E0
01E0
03C0
0700
0700
0000
07F8
0FF0
1FC0
3BC0
3BC0
3BC0
F3C0
FFF0
FFF8
F3C0
F3C0
F3C0
F3C0
F3C0
F3C0
F3C0
F3F0
F3F8
ENDCHAR
STARTCHAR aeacute
ENCODING 509
SWIDTH 480 0
DWIDTH 15 0
BBX 13 18 1 0
BITMAP
00E0
01E0
03C0
0700
0700
0000
3EE0
7FF0
C778
0778
07F0
07E0
3F00
7F00
F700
F718
7FF0
3BE0
ENDCHAR
STARTCHAR Oslashacute
ENCODING 510
SWIDTH 480 0
DWIDTH 15 0
BBX 13 26 1 -2
BITMAP
03C0
0780
0700
1E00
0C20
0060
1FE0
3FE0
38E0
F0F8
F1F8
F378
F378
F378
F378
F678
F678
F678
F678
FC78
F878
38E0
3FE0
3FC0
C000
4000
ENDCHAR
STARTCHAR oslashacute
ENCODING 511
SWIDTH 480 0
DWIDTH 15 0
BBX 13 20 1 -2
BITMAP
00E0
01E0
03C0
0700
0710
0018
1FE0
3FE0
38E0
F378
F378
F378
F678
F678
F678
38E0
3FE0
3FC0
C000
4000
ENDCHAR
STARTCHAR uni0200
ENCODING 512
SWIDTH 480 0
DWIDTH 15 0
BBX 13 23 1 0
BITMAP
6180
F3C0
38E0
38E0
0000
0700
0F80
1FC0
38E0
38E0
38E0
F078
F078
F078
F078
FFF8
FFF8
F078
F078
F078
F078
F078
F078
ENDCHAR
STARTCHAR uni0201
ENCODING 513
SWIDTH 480 0
DWIDTH 15 0
BBX 13 17 1 0
BITMAP
6180
F3C0
38E0
38E0
0000
1FE0
3FF0
3878
0078
3FF8
3FF8
F078
F078
F078
F078
7FF8
3FD8
ENDCHAR
STARTCHAR uni0202
ENCODING 514
SWIDTH 480 0
DWIDTH 15 0
BBX 13 23 1 0
BITMAP
0F80
1FC0
38E0
38E0
3060
0000
0700
0700
1FC0
3FE0
38E0
F078
F078
F078
F078
FFF8
FFF8
F078
F078
F078
F078
F078
F078
ENDCHAR
STARTCHAR uni0203
ENCODING 515
SWIDTH 480 0
DWIDTH 15 0
BBX 13 18 1 0
BITMAP
1FC0
3FE0
38E0
3060
2020
0000
1FE0
3FF0
3878
0078
3FF8
3FF8
F078
F078
F078
F078
7FF8
3FD8
ENDCHAR
STARTCHAR uni0204
ENCODING 516
SWIDTH 480 0
DWIDTH 15 0
BBX 13 23 1 0
BITMAP
6180
F3C0
38E0
38E0
0000
FFF8
FFF0
F000
F000
F000
F000
F000
FF80
FFC0
F000
F000
F000
F000
F000
F000
F000
FFF0
FFF8
ENDCHAR
STARTCHAR uni0205
ENCODING 517
SWIDTH 480 0
DWIDTH 15 0
BBX 13 17 1 0
BITMAP
6180
F3C0
38E0
38E0
0000
1FC0
3FE0
38E0
F078
FFF8
FFF8
F000
F000
F000
3878
3FF0
1FE0
ENDCHAR
STARTCHAR uni0206
ENCODING 518
SWIDTH 480 0
DWIDTH 15 0
BBX 13 23 1 0
BITMAP
0F80
1FC0
38E0
38E0
3060
0000
7FF0
FFF8
F000
F000
F000
F000
F000
F000
FFC0
FF80
F000
F000
F000
F000
F000
FFF0
FFF8
ENDCHAR
STARTCHAR uni0207
ENCODING 519
SWIDTH 480 0
DWIDTH 15 0
BBX 13 18 1 0
BITMAP
1FC0
3FE0
38E0
3060
2020
0000
1FC0
3FE0
38E0
F078
FFF8
FFF8
F000
F000
F000
3878
3FF0
1FE0
ENDCHAR
STARTCHAR uni0208
ENCODING 520
SWIDTH 480 0
DWIDTH 15 0
BBX 13 23 1 0
BITMAP
6180
F3C0
38E0
38E0
0000
FFF8
7FF0
0700
0700
0700
0700
0700
0700
0700
0700
0700
0700
0700
0700
0700
0700
7FF0
FFF8
ENDCHAR
STARTCHAR uni0209
ENCODING 521
SWIDTH 480 0
DWIDTH 15 0
BBX 13 17 1 0
BITMAP
6180
F3C0
38E0
38E0
0000
3F00
3F00
0700
0700
0700
0700
0700
0700
0700
0700
7FF0
FFF8
ENDCHAR
STARTCHAR uni020A
ENCODING 522
SWIDTH 480 0
DWIDTH 15 0
BBX 13 23 1 0
BITMAP
0F80
1FC0
38E0
38E0
3060
0000
7FF0
FFF8
0700
0700
0700
0700
0700
0700
0700
0700
0700
0700
0700
0700
0700
7FF0
FFF8
ENDCHAR
STARTCHAR uni020B
ENCODING 523
SWIDTH 480 0
DWIDTH 15 0
BBX 13 18 1 0
BITMAP
1FC0
3FE0
38E0
3060
2020
0000
3F00
3F00
0700
0700
0700
0700
0700
0700
0700
0700
7FF0
FFF8
ENDCHAR
STARTCHAR uni020C
ENCODING 524
SWIDTH 480 0
DWIDTH 15 0
BBX 13 23 1 0
BITMAP
6180
F3C0
38E0
38E0
0000
1FC0
3FE0
38E0
F078
F078
F078
F078
F078
F078
F078
F078
F078
F078
F078
F078
38E0
3FE0
1FC0
ENDCHAR
STARTCHAR uni020D
ENCODING 525
SWIDTH 480 0
DWIDTH 15 0
BBX 13 17 1 0
BITMAP
6180
F3C0
38E0
38E0
0000
1FC0
3FE0
38E0
F078
F078
F078
F078
F078
F078
38E0
3FE0
1FC0
ENDCHAR
STARTCHAR uni020E
ENCODING 526
SWIDTH 480 0
DWIDTH 15 0
BBX 13 23 1 0
BITMAP
0F80
1FC0
38E0
38E0
3060
0000
0F80
1FC0
38E0
78F0
F078
F078
F078
F078
F078
F078
F078
F078
F078
F078
38E0
3FE0
1FC0
ENDCHAR
STARTCHAR uni020F
ENCODING 527
SWIDTH 480 0
DWIDTH 15 0
BBX 13 18 1 0
BITMAP
1FC0
3FE0
38E0
3060
2020
0000
1FC0
3FE0
38E0
F078
F078
F078
F078
F078
F078
38E0
3FE0
1FC0
ENDCHAR
STARTCHAR uni0210
ENCODING 528
SWIDTH 480 0
DWIDTH 15 0
BBX 13 23 1 0
BITMAP
6180
F3C0
38E0
38E0
0000
FFC0
FFE0
F0E0
F078
F078
F078
F078
F0F0
F0E0
FFC0
FFC0
F3C0
F0E0
F0E0
F0E0
F078
F078
F078
ENDCHAR
STARTCHAR uni0211
ENCODING 529
SWIDTH 480 0
DWIDTH 15 0
BBX 13 17 1 0
BITMAP
6180
F3C0
38E0
38E0
0000
F7E0
7FF0
3E78
3800
3800
3800
3800
3800
3800
3800
3800
3800
ENDCHAR
STARTCHAR uni0212
ENCODING 530
SWIDTH 480 0
DWIDTH 15 0
BBX 13 23 1 0
BITMAP
0F80
1FC0
38E0
38E0
3060
0000
7F80
FFC0
F0E0
F0F0
F078
F078
F0F0
F0E0
FFC0
FFC0
F3C0
F0E0
F0E0
F0E0
F078
F078
F078
ENDCHAR
STARTCHAR uni0213
ENCODING 531
SWIDTH 480 0
DWIDTH 15 0
BBX 13 18 1 0
BITMAP
1FC0
3FE0
38E0
3060
2020
0000
F7E0
7FF0
3E78
3800
3800
3800
3800
3800
3800
3800
3800
3800
ENDCHAR
STARTCHAR uni0214
ENCODING 532
SWIDTH 480 0
DWIDTH 15 0
BBX 13 23 1 0
BITMAP
6180
F3C0
38E0
38E0
0000
F078
F078
F078
F078
F078
F078
F078
F078
F078
F078
F078
F078
F078
F078
F078
38E0
3FE0
1FC0
ENDCHAR
STARTCHAR uni0215
ENCODING 533
SWIDTH 480 0
DWIDTH 15 0
BBX 13 17 1 0
BITMAP
6180
F3C0
38E0
38E0
0000
F078
F078
F078
F078
F078
F078
F078
F078
F078
38F8
3FF8
1F78
ENDCHAR
STARTCHAR uni0216
ENCODING 534
SWIDTH 480 0
DWIDTH 15 0
BBX 13 23 1 0
BITMAP
0F80
1FC0
38E0
38E0
3060
0000
6030
F078
F078
F078
F078
F078
F078
F078
F078
F078
F078
F078
F078
F078
38E0
3FE0
1FC0
ENDCHAR
STARTCHAR uni0217
ENCODING 535
SWIDTH 480 0
DWIDTH 15 0
BBX 13 18 1 0
BITMAP
1FC0
3FE0
38E0
3060
2020
0000
F078
F078
F078
F078
F078
F078
F078
F078
F078
38F8
3FF8
1F78
ENDCHAR
STARTCHAR Scommaaccent
ENCODING 536
SWIDTH 480 0
DWIDTH 15 0
BBX 13 26 1 -6
BITMAP
0F80
1FC0
38E0
78F0
F078
F000
F000
F000
3800
3F80
1FC0
00E0
00F0
0078
0078
6078
F078
38E0
3FE0
1FC0
0000
0780
07C0
07C0
0F80
1F00
ENDCHAR
STARTCHAR scommaaccent
ENCODING 537
SWIDTH 480 0
DWIDTH 15 0
BBX 13 18 1 -6
BITMAP
3FE0
7FF0
F078
F000
7FE0
3FE0
0078
0078
0078
F078
7FF0
3FE0
0000
0780
07C0
07C0
0F80
1F00
ENDCHAR
STARTCHAR Tcommaaccent
ENCODING 538
SWIDTH 480 0
DWIDTH 15 0
BBX 13 26 1 -6
BITMAP
7FF0
FFF8
0700
0700
0700
0700
0700
0700
0700
0700
0700
0700
0700
0700
0700
0700
0700
0700
0700
0700
0000
0780
07C0
07C0
0F80
1F00
ENDCHAR
STARTCHAR tcommaaccent
ENCODING 539
SWIDTH 480 0
DWIDTH 15 0
BBX 13 23 1 -6
BITMAP
0C00
1E00
1E00
1E00
1E00
FFC0
7F80
1E00
1E00
1E00
1E00
1E00
1E00
1E00
1E78
0FF0
07E0
0000
0780
07C0
07C0
0F80
1F00
ENDCHAR
STARTCHAR uni021C
ENCODING 540
SWIDTH 480 0
DWIDTH 15 0
BBX 13 20 1 0
BITMAP
0F80
1FC0
38E0
38E0
00E0
00E0
01E0
03C0
07C0
0FE0
1EE0
3878
3878
0078
00E0
01E0
03C0
1F00
7F00
F800
ENDCHAR
STARTCHAR uni021D
ENCODING 541
SWIDTH 480 0
DWIDTH 15 0
BBX 11 18 3 -6
BITMAP
7F00
FF80
E380
0380
0380
0380
0F00
1F00
1F00
7B80
F3C0
E1E0
01E0
03C0
0380
0F00
FE00
FC00
ENDCHAR
STARTCHAR uni021E
ENCODING 542
SWIDTH 480 0
DWIDTH 15 0
BBX 13 23 1 0
BITMAP
38E0
38E0
1FC0
0F80
0700
F078
F078
F078
F078
F078
F078
F078
FFF8
FFF8
F078
F078
F078
F078
F078
F078
F078
F078
F078
ENDCHAR
STARTCHAR uni021F
ENCODING 543
SWIDTH 480 0
DWIDTH 15 0
BBX 13 23 1 0
BITMAP
38E0
38E0
1FC0
0F80
0700
F000
F000
F000
F000
F000
F000
F7C0
FFE0
F8E0
F078
F078
F078
F078
F078
F078
F078
F078
F078
ENDCHAR
STARTCHAR uni0220
ENCODING 544
SWIDTH 480 0
DWIDTH 15 0
BBX 13 26 1 -6
BITMAP
6780
F7C0
F8E0
F8F0
F078
F078
F078
F078
F078
F078
F078
F078
F078
F078
F078
F078
F078
F078
F078
F078
0078
0078
0078
0078
0078
0078
ENDCHAR
STARTCHAR uni0221
ENCODING 545
SWIDTH 480 0
DWIDTH 15 0
BBX 13 23 1 -3
BITMAP
0180
03C0
03C0
03C0
03C0
03C0
03C0
03C0
1BC0
3FC0
3FC0
F3C0
F3C0
F3C0
F3C0
F3F0
F3F8
3FD8
3FD8
1FD8
00E0
01E0
0300
ENDCHAR
STARTCHAR uni0222
ENCODING 546
SWIDTH 480 0
DWIDTH 15 0
BBX 13 20 1 0
BITMAP
0180
03C0
00E0
38F0
3878
F078
F078
F078
38E0
3FE0
1FC0
38E0
78F0
F078
F078
F078
F078
38E0
3FE0
1FC0
ENDCHAR
STARTCHAR uni0223
ENCODING 547
SWIDTH 480 0
DWIDTH 15 0
BBX 13 15 1 0
BITMAP
38E0
78F0
F078
F078
78F0
38E0
1FC0
3FE0
38E0
F078
F078
F078
38E0
3FE0
1FC0
ENDCHAR
STARTCHAR uni0224
ENCODING 548
SWIDTH 480 0
DWIDTH 15 0
BBX 14 25 1 -5
BITMAP
7FF0
FFF8
0078
0078
0078
00E0
01E0
03C0
03C0
0780
0700
1E00
1E00
1E00
3800
7800
F000
F000
FFF0
FFF8
001C
003C
0078
0060
0020
ENDCHAR
STARTCHAR uni0225
ENCODING 549
SWIDTH 480 0
DWIDTH 15 0
BBX 12 17 3 -5
BITMAP
FFE0
FFE0
01E0
0380
0780
0F00
1C00
3C00
7800
E000
FFC0
FFE0
0070
00F0
01E0
0180
0080
ENDCHAR
STARTCHAR uni0226
ENCODING 550
SWIDTH 480 0
DWIDTH 15 0
BBX 13 23 1 0
BITMAP
0700
0700
0700
0700
0000
0700
0F80
1FC0
38E0
38E0
38E0
F078
F078
F078
F078
FFF8
FFF8
F078
F078
F078
F078
F078
F078
ENDCHAR
STARTCHAR uni0227
ENCODING 551
SWIDTH 480 0
DWIDTH 15 0
BBX 13 17 1 0
BITMAP
0700
0700
0700
0700
0000
1FE0
3FF0
3878
0078
3FF8
3FF8
F078
F078
F078
F078
7FF8
3FD8
ENDCHAR
STARTCHAR uni0228
ENCODING 552
SWIDTH 480 0
DWIDTH 15 0
BBX 13 26 1 -6
BITMAP
7FF0
FFF8
F000
F000
F000
F000
F000
F000
F000
FF80
FFC0
F000
F000
F000
F000
F000
F000
F000
FFF0
FFF8
0700
0780
03C0
3BC0
3F80
1F00
ENDCHAR
STARTCHAR uni0229
ENCODING 553
SWIDTH 480 0
DWIDTH 15 0
BBX 13 18 1 -6
BITMAP
1FC0
3FE0
38E0
F078
FFF8
FFF8
F000
F000
F000
3878
3FF0
1FE0
0700
0780
03C0
3BC0
3F80
1F00
ENDCHAR
STARTCHAR uni022A
ENCODING 554
SWIDTH 480 0
DWIDTH 15 0
BBX 13 24 1 0
BITMAP
FFF8
7FF0
0000
38E0
38E0
38E0
0000
0F80
1FC0
38E0
78F0
F078
F078
F078
F078
F078
F078
F078
F078
F078
F078
38E0
3FE0
1FC0
ENDCHAR
STARTCHAR uni022B
ENCODING 555
SWIDTH 480 0
DWIDTH 15 0
BBX 13 20 1 0
BITMAP
7FF0
FFF8
0000
38E0
38E0
38E0
38E0
0000
1FC0
3FE0
38E0
F078
F078
F078
F078
F078
F078
38E0
3FE0
1FC0
ENDCHAR
STARTCHAR uni022C
ENCODING 556
SWIDTH 480 0
DWIDTH 15 0
BBX 13 24 1 0
BITMAP
FFF8
7FF0
0000
1E60
3FE0
3FE0
33C0
2180
0000
1FC0
3FE0
38E0
F078
F078
F078
F078
F078
F078
F078
F078
F078
38E0
3FE0
1FC0
ENDCHAR
STARTCHAR uni022D
ENCODING 557
SWIDTH 480 0
DWIDTH 15 0
BBX 13 21 1 0
BITMAP
FFF8
7FF0
0000
1E60
3FE0
3FE0
33C0
2180
0000
1FC0
3FE0
38E0
F078
F078
F078
F078
F078
F078
38E0
3FE0
1FC0
ENDCHAR
STARTCHAR uni022E
ENCODING 558
SWIDTH 480 0
DWIDTH 15 0
BBX 13 23 1 0
BITMAP
0700
0700
0700
0700
0000
1FC0
3FE0
38E0
F078
F078
F078
F078
F078
F078
F078
F078
F078
F078
F078
F078
38E0
3FE0
1FC0
ENDCHAR
STARTCHAR uni022F
ENCODING 559
SWIDTH 480 0
DWIDTH 15 0
BBX 13 17 1 0
BITMAP
0700
0700
0700
0700
0000
1FC0
3FE0
38E0
F078
F078
F078
F078
F078
F078
38E0
3FE0
1FC0
ENDCHAR
STARTCHAR uni0230
ENCODING 560
SWIDTH 480 0
DWIDTH 15 0
BBX 13 24 1 0
BITMAP
FFF8
7FF0
0000
0700
0700
0700
0000
0F80
1FC0
38E0
78F0
F078
F078
F078
F078
F078
F078
F078
F078
F078
F078
38E0
3FE0
1FC0
ENDCHAR
STARTCHAR uni0231
ENCODING 561
SWIDTH 480 0
DWIDTH 15 0
BBX 13 20 1 0
BITMAP
7FF0
FFF8
0000
0700
0700
0700
0700
0000
1FC0
3FE0
38E0
F078
F078
F078
F078
F078
F078
38E0
3FE0
1FC0
ENDCHAR
STARTCHAR uni0232
ENCODING 562
SWIDTH 480 0
DWIDTH 15 0
BBX 13 23 1 0
BITMAP
7FF0
FFF8
0000
6030
F078
F078
78F0
38E0
38E0
3FE0
1FC0
1FC0
0F80
0700
0700
0700
0700
0700
0700
0700
0700
0700
0700
ENDCHAR
STARTCHAR uni0233
ENCODING 563
SWIDTH 480 0
DWIDTH 15 0
BBX 13 21 1 -6
BITMAP
FFF8
7FF0
0000
F078
F078
F078
F078
F078
F078
F078
F078
F078
38F8
3FF8
1F78
0078
6078
F078
38E0
3FE0
1FC0
ENDCHAR
STARTCHAR uni0234
ENCODING 564
SWIDTH 480 0
DWIDTH 15 0
BBX 13 23 1 -3
BITMAP
7C00
FE00
1E00
1E00
1E00
1E00
1E00
1E00
1E00
1E00
1E00
1E00
1E00
1E00
1E00
1E20
1E60
1ED8
0F98
0718
03E0
07E0
0600
ENDCHAR
STARTCHAR uni0235
ENCODING 565
SWIDTH 480 0
DWIDTH 15 0
BBX 13 17 1 -5
BITMAP
F700
FF80
FBC0
F3C0
F3C0
F3C0
F3C0
F3C0
F3C0
F3F8
F3F8
F3D8
03D8
01F0
00E0
0300
0100
ENDCHAR
STARTCHAR uni0236
ENCODING 566
SWIDTH 480 0
DWIDTH 15 0
BBX 13 20 1 -3
BITMAP
0C00
1E00
1E00
1E00
1E00
FFC0
7F80
1E00
1E00
1E00
1E00
1E00
1E20
1E60
1FD8
0F98
0718
03E0
07E0
0600
ENDCHAR
STARTCHAR uni0237
ENCODING 567
SWIDTH 480 0
DWIDTH 15 0
BBX 11 18 3 -6
BITMAP
0FE0
07E0
01E0
01E0
01E0
01E0
01E0
01E0
01E0
01E0
01E0
01E0
E1E0
E1E0
E1E0
E1E0
FFC0
7F80
ENDCHAR
STARTCHAR uni0238
ENCODING 568
SWIDTH 480 0
DWIDTH 15 0
BBX 13 20 1 0
BITMAP
0700
0700
0700
0700
0700
0700
0700
0700
3FE0
7FF0
F778
C718
C718
C718
C718
C718
C718
DFD8
7FF0
3760
ENDCHAR
STARTCHAR uni0239
ENCODING 569
SWIDTH 480 0
DWIDTH 15 0
BBX 13 18 1 -6
BITMAP
3FE0
7FF0
F778
C718
C718
C718
C718
C718
C718
DFD8
7FF0
3760
0700
0700
0700
0700
0700
0700
ENDCHAR
STARTCHAR uni023A
ENCODING 570
SWIDTH 480 0
DWIDTH 15 0
BBX 15 18 0 0
BITMAP
0386
07CE
0FEE
1C7C
1C78
1C70
79FC
7BFC
7BBC
7F3C
7FFC
7FFC
783C
F83C
F83C
F83C
F83C
783C
ENDCHAR
STARTCHAR uni023B
ENCODING 571
SWIDTH 480 0
DWIDTH 15 0
BBX 15 20 0 0
BITMAP
07C0
0FE0
1C76
3C7E
783E
783C
7878
7870
79E0
7BC0
7B80
7F00
7E00
7C00
7800
F818
F83C
DC70
9FF0
0FE0
ENDCHAR
STARTCHAR uni023C
ENCODING 572
SWIDTH 480 0
DWIDTH 15 0
BBX 15 14 0 0
BITMAP
000E
000E
0FFC
1FFC
1C7C
79E0
7BC0
7B80
7F00
7E00
7C00
7C3C
FFF8
EFF0
ENDCHAR
STARTCHAR uni023D
ENCODING 573
SWIDTH 480 0
DWIDTH 15 0
BBX 14 20 0 0
BITMAP
3000
7800
7800
7800
7800
7800
7800
7800
7800
FE00
FF00
7800
7800
7800
7800
7800
7800
7800
7FF8
7FFC
ENDCHAR
STARTCHAR uni023E
ENCODING 574
SWIDTH 480 0
DWIDTH 15 0
BBX 13 20 1 0
BITMAP
7FF0
FFF8
0700
0710
0718
0778
07F0
07E0
07C0
0780
0700
1F00
3F00
3F00
F700
E700
C700
0700
0700
0700
ENDCHAR
STARTCHAR uni023F
ENCODING 575
SWIDTH 480 0
DWIDTH 15 0
BBX 13 17 1 -5
BITMAP
3FE0
7FF0
F078
F000
7FE0
3FE0
0078
0078
0078
F078
7FF0
3FE0
3800
3F30
1F78
03E0
01E0
ENDCHAR
STARTCHAR uni0240
ENCODING 576
SWIDTH 480 0
DWIDTH 15 0
BBX 11 17 3 -5
BITMAP
FFE0
FFE0
01E0
0380
0780
0F00
1C00
3C00
7800
E000
E000
E000
E000
FCC0
7DE0
0F80
0780
ENDCHAR
STARTCHAR uni0241
ENCODING 577
SWIDTH 480 0
DWIDTH 15 0
BBX 13 20 1 0
BITMAP
0F80
1FC0
38E0
78F0
F078
F078
6078
0078
00E0
07E0
07C0
0700
0700
0700
0700
0700
0700
0700
0700
0700
ENDCHAR
STARTCHAR uni0242
ENCODING 578
SWIDTH 480 0
DWIDTH 15 0
BBX 13 12 1 0
BITMAP
1FC0
3FE0
38E0
F078
F078
F078
00E0
07E0
07C0
0700
0700
0700
ENDCHAR
STARTCHAR uni0243
ENCODING 579
SWIDTH 480 0
DWIDTH 15 0
BBX 15 20 0 0
BITMAP
3F80
7F80
79E6
78FE
787E
787C
7878
7870
79E0
7FE0
7FE0
7F70
7E78
7C3C
783C
F83C
F83C
F870
FFF0
7FE0
ENDCHAR
STARTCHAR uni0244
ENCODING 580
SWIDTH 480 0
DWIDTH 15 0
BBX 15 20 0 0
BITMAP
3018
783C
783E
783E
783E
783C
787C
787C
79FC
7BFC
7BBC
7F3C
7E3C
7C3C
783C
F83C
F83C
DC70
9FF0
0FE0
ENDCHAR
STARTCHAR uni0245
ENCODING 581
SWIDTH 480 0
DWIDTH 15 0
BBX 13 20 1 0
BITMAP
0700
0700
0700
0700
0700
1FC0
1FC0
1FC0
1FC0
3FE0
38E0
38E0
38E0
38E0
F078
F078
F078
F078
F078
F078
ENDCHAR
STARTCHAR uni0246
ENCODING 582
SWIDTH 480 0
DWIDTH 15 0
BBX 15 20 0 0
BITMAP
3FF8
7FFC
7806
780E
780E
783C
7878
7870
79E0
7FF0
7FF0
7F00
7E00
7C00
7800
F800
F800
F800
FFF8
7FFC
ENDCHAR
STARTCHAR uni0247
ENCODING 583
SWIDTH 480 0
DWIDTH 15 0
BBX 14 12 0 0
BITMAP
0FFC
1FF8
1C70
79FC
7BFC
7BBC
7FFC
7FF8
7C00
7C3C
FFF8
EFF0
ENDCHAR
STARTCHAR uni0248
ENCODING 584
SWIDTH 480 0
DWIDTH 15 0
BBX 14 20 1 0
BITMAP
07FC
07FC
00E0
00E0
00E0
00E0
00E0
00E0
00E0
07FC
07FC
00E0
00E0
00E0
F0E0
F0E0
F0E0
3BC0
3F80
1F00
ENDCHAR
STARTCHAR uni0249
ENCODING 585
SWIDTH 480 0
DWIDTH 15 0
BBX 12 23 3 -6
BITMAP
00C0
01E0
01E0
00C0
0000
0FE0
07E0
01E0
01E0
07F0
0FF0
01E0
01E0
01E0
01E0
01E0
01E0
E1E0
E1E0
E1E0
E1E0
FFC0
7F80
ENDCHAR
STARTCHAR uni024A
ENCODING 586
SWIDTH 480 0
DWIDTH 15 0
BBX 14 26 1 -6
BITMAP
0F90
1FD8
38F8
78F8
F078
F078
F078
F078
F078
F078
F078
F078
F078
F078
F078
F078
F078
38F8
3FF8
1FF8
0078
0078
0078
0078
003C
001C
ENDCHAR
STARTCHAR uni024B
ENCODING 587
SWIDTH 480 0
DWIDTH 15 0
BBX 14 18 1 -6
BITMAP
1F78
3FF8
38F8
F078
F078
F078
F078
F078
F078
38F8
3FF8
1F78
0078
0078
0078
0078
003C
001C
ENDCHAR
STARTCHAR uni024C
ENCODING 588
SWIDTH 480 0
DWIDTH 15 0
BBX 14 20 0 0
BITMAP
3FC0
7FE0
7870
7878
783C
783C
783C
783C
783C
7878
7870
FFE0
FFE0
79E0
7870
7870
7870
783C
783C
783C
ENDCHAR
STARTCHAR uni024D
ENCODING 589
SWIDTH 480 0
DWIDTH 15 0
BBX 13 12 1 0
BITMAP
F7E0
7FF0
3E78
3800
7F00
FF00
3800
3800
3800
3800
3800
3800
ENDCHAR
STARTCHAR uni024E
ENCODING 590
SWIDTH 480 0
DWIDTH 15 0
BBX 15 20 0 0
BITMAP
3018
783C
783C
FFFE
FFFE
1C70
1FF0
0FE0
0FE0
07C0
0380
0380
0380
0380
0380
0380
0380
0380
0380
0380
ENDCHAR
STARTCHAR uni024F
ENCODING 591
SWIDTH 480 0
DWIDTH 15 0
BBX 15 18 0 -6
BITMAP
783C
783C
783C
783C
FFFE
FFFE
783C
783C
783C
1C7C
1FFC
0FBC
003C
303C
783C
1C70
1FF0
0FE0
ENDCHAR
STARTCHAR uni0250
ENCODING 592
SWIDTH 480 0
DWIDTH 15 0
BBX 13 12 1 0
BITMAP
DFE0
FFF0
F078
F078
F078
F078
FFE0
FFE0
F000
F0E0
7FE0
3FC0
ENDCHAR
STARTCHAR uni0251
ENCODING 593
SWIDTH 480 0
DWIDTH 15 0
BBX 13 12 1 0
BITMAP
1FE0
3FE0
3BE0
F0E0
F0E0
F0E0
F0E0
F0E0
F0E0
3BE0
3FF0
1F78
ENDCHAR
STARTCHAR uni0252
ENCODING 594
SWIDTH 480 0
DWIDTH 15 0
BBX 13 12 1 0
BITMAP
F7C0
7FE0
3EE0
3878
3878
3878
3878
3878
3878
3EE0
3FE0
3FC0
ENDCHAR
STARTCHAR uni0253
ENCODING 595
SWIDTH 480 0
DWIDTH 15 0
BBX 13 20 1 0
BITMAP
0F80
1FC0
3800
7800
F000
F000
F000
F000
F7C0
FFE0
F8E0
F078
F078
F078
F078
F078
F078
F8E0
FFE0
F7C0
ENDCHAR
STARTCHAR uni0254
ENCODING 596
SWIDTH 480 0
DWIDTH 15 0
BBX 13 12 1 0
BITMAP
3FC0
7FE0
F0E0
0078
0078
0078
0078
0078
0078
F0E0
7FE0
3FC0
ENDCHAR
STARTCHAR uni0255
ENCODING 597
SWIDTH 480 0
DWIDTH 15 0
BBX 13 15 1 -3
BITMAP
1FE0
3FF0
3878
F000
F000
F000
F0E0
F1F0
F378
3B78
3FF0
1FE0
0600
0600
0600
ENDCHAR
STARTCHAR uni0256
ENCODING 598
SWIDTH 480 0
DWIDTH 15 0
BBX 14 25 1 -5
BITMAP
0030
0078
0078
0078
0078
0078
0078
0078
1F78
3FF8
38F8
F078
F078
F078
F078
F078
F078
38F8
3FF8
1F78
0078
0078
0078
001C
001C
ENDCHAR
STARTCHAR uni0257
ENCODING 599
SWIDTH 480 0
DWIDTH 15 0
BBX 14 21 1 0
BITMAP
007C
00FC
00E0
00E0
00E0
00E0
00E0
00E0
00E0
1EE0
3FE0
3BE0
F0E0
F0E0
F0E0
F0E0
F0E0
F0E0
3BE0
3FE0
1EE0
ENDCHAR
STARTCHAR uni0258
ENCODING 600
SWIDTH 480 0
DWIDTH 15 0
BBX 13 12 1 0
BITMAP
1FC0
3FE0
38E0
F078
FFF8
FFF8
0078
0078
0078
F0E0
7FE0
3FC0
ENDCHAR
STARTCHAR uni0259
ENCODING 601
SWIDTH 480 0
DWIDTH 15 0
BBX 13 12 1 0
BITMAP
3FC0
7FE0
F0E0
0078
0078
0078
FFF8
FFF8
F078
38E0
3FE0
1FC0
ENDCHAR
STARTCHAR uni025A
ENCODING 602
SWIDTH 480 0
DWIDTH 15 0
BBX 14 12 1 0
BITMAP
3F00
7F9C
F3DC
00EC
07E4
07E0
F8E0
F8E0
F0E0
3BC0
3F80
1F00
ENDCHAR
STARTCHAR uni025B
ENCODING 603
SWIDTH 480 0
DWIDTH 15 0
BBX 13 12 1 0
BITMAP
3FE0
7FF0
F078
F000
7F00
3F00
F000
F000
F000
F078
7FF0
3FE0
ENDCHAR
STARTCHAR uni025C
ENCODING 604
SWIDTH 480 0
DWIDTH 15 0
BBX 13 12 1 0
BITMAP
3FE0
7FF0
F078
0078
07F0
07E0
0078
0078
0078
F078
7FF0
3FE0
ENDCHAR
STARTCHAR uni025D
ENCODING 605
SWIDTH 480 0
DWIDTH 15 0
BBX 14 12 1 0
BITMAP
3F00
7FE4
F3EC
03D8
0F90
1F00
03C0
03C0
03C0
F3C0
7F80
3F00
ENDCHAR
STARTCHAR uni025E
ENCODING 606
SWIDTH 480 0
DWIDTH 15 0
BBX 13 12 1 0
BITMAP
3FE0
7FF0
F078
F078
F1F0
F3E0
F078
F078
F078
F078
7FF0
3FE0
ENDCHAR
STARTCHAR uni025F
ENCODING 607
SWIDTH 480 0
DWIDTH 15 0
BBX 13 18 1 -6
BITMAP
03C0
03C0
03C0
03C0
03C0
03C0
03C0
03C0
03C0
1FF8
0FF0
03C0
03C0
63C0
F3C0
F3C0
7F80
3F00
ENDCHAR
STARTCHAR uni0260
ENCODING 608
SWIDTH 480 0
DWIDTH 15 0
BBX 14 23 1 -6
BITMAP
001C
001C
0078
0078
0078
1F78
3FF8
38F8
F078
F078
F078
F078
F078
F078
38F8
3FF8
1F78
0078
6078
F078
38E0
3FE0
1FC0
ENDCHAR
STARTCHAR uni0261
ENCODING 609
SWIDTH 480 0
DWIDTH 15 0
BBX 13 18 1 -6
BITMAP
1F78
3FF8
38F8
F078
F078
F078
F078
F078
F078
38F8
3FF8
1F78
0078
6078
F078
38E0
3FE0
1FC0
ENDCHAR
STARTCHAR uni0262
ENCODING 610
SWIDTH 480 0
DWIDTH 15 0
BBX 13 12 1 0
BITMAP
1FC0
3FE0
38E0
F078
F030
F000
F3F8
F1F8
F078
38F8
3FF8
1FD8
ENDCHAR
STARTCHAR uni0263
ENCODING 611
SWIDTH 480 0
DWIDTH 15 0
BBX 13 17 1 -5
BITMAP
F078
F078
F078
38E0
38E0
38E0
1FC0
1FC0
1FC0
0700
0F80
1FC0
38E0
38E0
38E0
1FC0
0F80
ENDCHAR
STARTCHAR uni0264
ENCODING 612
SWIDTH 480 0
DWIDTH 15 0
BBX 11 12 1 0
BITMAP
F0E0
79E0
3BC0
1F00
1F00
1F00
1F00
3F80
3BC0
3BC0
3F80
1F00
ENDCHAR
STARTCHAR uni0265
ENCODING 613
SWIDTH 480 0
DWIDTH 15 0
BBX 13 18 1 -6
BITMAP
F078
F078
F078
F078
F078
F078
F078
F078
F078
38F8
3FF8
1F78
0078
0078
0078
0078
0078
0078
ENDCHAR
STARTCHAR uni0266
ENCODING 614
SWIDTH 480 0
DWIDTH 15 0
BBX 13 20 1 0
BITMAP
0F80
1FC0
38E0
78E0
F000
F000
F000
F000
F7C0
FFE0
F8E0
F078
F078
F078
F078
F078
F078
F078
F078
F078
ENDCHAR
STARTCHAR uni0267
ENCODING 615
SWIDTH 480 0
DWIDTH 15 0
BBX 13 26 1 -6
BITMAP
0F80
1FC0
38E0
78E0
F000
F000
F000
F000
F7C0
FFE0
F8E0
F078
F078
F078
F078
F078
F078
F078
F078
F078
0078
0078
0078
0078
00F0
00E0
ENDCHAR
STARTCHAR uni0268
ENCODING 616
SWIDTH 480 0
DWIDTH 15 0
BBX 13 17 1 0
BITMAP
0700
0700
0700
0700
0000
3F00
3F00
0700
0700
3FE0
3FE0
0700
0700
0700
0700
7FF0
FFF8
ENDCHAR
STARTCHAR uni0269
ENCODING 617
SWIDTH 480 0
DWIDTH 15 0
BBX 8 12 4 0
BITMAP
F8
78
38
38
38
38
38
38
38
38
3F
1F
ENDCHAR
STARTCHAR uni026A
ENCODING 618
SWIDTH 480 0
DWIDTH 15 0
BBX 13 12 1 0
BITMAP
FFF8
7FF0
0700
0700
0700
0700
0700
0700
0700
0700
7FF0
FFF8
ENDCHAR
STARTCHAR uni026B
ENCODING 619
SWIDTH 480 0
DWIDTH 15 0
BBX 13 20 1 0
BITMAP
3F00
3F00
0700
0700
0700
0700
0700
0700
3F18
7FF8
FFF8
C7E0
47E0
0700
0700
0700
0700
0700
7FF0
FFF8
ENDCHAR
STARTCHAR uni026C
ENCODING 620
SWIDTH 480 0
DWIDTH 15 0
BBX 13 20 1 0
BITMAP
3F00
3F00
0700
0700
0700
0700
0700
0700
3F00
7F00
F700
3FF8
3FF0
0700
0700
0700
0700
0700
7FF0
FFF8
ENDCHAR
STARTCHAR uni026D
ENCODING 621
SWIDTH 480 0
DWIDTH 15 0
BBX 8 26 3 -6
BITMAP
FC
FC
1C
1C
1C
1C
1C
1C
1C
1C
1C
1C
1C
1C
1C
1C
1C
1C
1C
1C
1C
1C
1C
1C
1E
0F
ENDCHAR
STARTCHAR uni026E
ENCODING 622
SWIDTH 480 0
DWIDTH 15 0
BBX 14 26 1 -6
BITMAP
7800
F800
3800
3800
3800
3800
3800
3800
3FFC
3FFC
381C
381C
383C
3878
38E0
38F0
3878
381C
7C1C
FE1C
001C
381C
381C
1E78
0FF0
07E0
ENDCHAR
STARTCHAR uni026F
ENCODING 623
SWIDTH 480 0
DWIDTH 15 0
BBX 13 12 1 0
BITMAP
F778
F778
F778
F778
F778
F778
F778
F778
F778
FFF8
7FF8
3BD8
ENDCHAR
STARTCHAR uni0270
ENCODING 624
SWIDTH 480 0
DWIDTH 15 0
BBX 13 18 1 -6
BITMAP
F778
F778
F778
F778
F778
F778
F778
F778
F778
FFF8
7FF8
3BF8
0078
0078
0078
0078
0078
0078
ENDCHAR
STARTCHAR uni0271
ENCODING 625
SWIDTH 480 0
DWIDTH 15 0
BBX 13 18 1 -6
BITMAP
DEE0
FFF0
FFF8
F778
F778
F778
F778
F778
F778
F778
F778
F778
0078
0078
0078
0078
00F0
00E0
ENDCHAR
STARTCHAR uni0272
ENCODING 626
SWIDTH 480 0
DWIDTH 15 0
BBX 14 18 0 -6
BITMAP
7BE0
7FF0
7C70
783C
783C
783C
783C
783C
783C
783C
783C
783C
7800
7800
7800
7800
F000
E000
ENDCHAR
STARTCHAR uni0273
ENCODING 627
SWIDTH 480 0
DWIDTH 15 0
BBX 14 18 1 -6
BITMAP
F7C0
FFE0
F8E0
F078
F078
F078
F078
F078
F078
F078
F078
F078
0078
0078
0078
0078
003C
001C
ENDCHAR
STARTCHAR uni0274
ENCODING 628
SWIDTH 480 0
DWIDTH 15 0
BBX 13 12 1 0
BITMAP
F078
F878
F878
FE78
FF78
F778
F778
F7F8
F3F8
F0F8
F0F8
F078
ENDCHAR
STARTCHAR uni0275
ENCODING 629
SWIDTH 480 0
DWIDTH 15 0
BBX 13 12 1 0
BITMAP
1FC0
3FE0
38E0
F078
FFF8
FFF8
F078
F078
F078
38E0
3FE0
1FC0
ENDCHAR
STARTCHAR uni0276
ENCODING 630
SWIDTH 480 0
DWIDTH 15 0
BBX 13 12 1 0
BITMAP
3FF8
7FF0
F700
F700
F7E0
F7E0
F700
F700
F700
F700
7FF0
3FF8
ENDCHAR
STARTCHAR uni0277
ENCODING 631
SWIDTH 480 0
DWIDTH 15 0
BBX 13 12 1 0
BITMAP
1FC0
3FE0
38E0
F078
F078
F078
F778
F778
F778
F778
7FF0
3FE0
ENDCHAR
STARTCHAR uni0278
ENCODING 632
SWIDTH 480 0
DWIDTH 15 0
BBX 13 24 1 -6
BITMAP
0700
0700
0700
0700
0700
0700
3FE0
7FF0
F778
F778
F778
F778
F778
F778
F778
F778
7FF0
3FE0
0700
0700
0700
0700
0700
0700
ENDCHAR
STARTCHAR uni0279
ENCODING 633
SWIDTH 480 0
DWIDTH 15 0
BBX 13 12 1 0
BITMAP
00E0
00E0
00E0
00E0
00E0
00E0
00E0
00E0
00E0
F3E0
7FF0
3F78
ENDCHAR
STARTCHAR uni027A
ENCODING 634
SWIDTH 480 0
DWIDTH 15 0
BBX 13 20 1 0
BITMAP
00E0
00E0
00E0
00E0
00E0
00E0
00E0
00E0
00E0
00E0
00E0
00E0
00E0
00E0
00E0
00E0
00E0
F3E0
7FF0
3F78
ENDCHAR
STARTCHAR uni027B
ENCODING 635
SWIDTH 480 0
DWIDTH 15 0
BBX 13 18 1 -6
BITMAP
03C0
03C0
03C0
03C0
03C0
03C0
03C0
03C0
03C0
F7C0
7FC0
3FC0
03C0
03C0
03C0
03D8
01F0
00E0
ENDCHAR
STARTCHAR uni027C
ENCODING 636
SWIDTH 480 0
DWIDTH 15 0
BBX 13 18 1 -6
BITMAP
F7E0
7FF0
3E78
3800
3800
3800
3800
3800
3800
3800
3800
3800
3800
3800
3800
3800
3800
3800
ENDCHAR
STARTCHAR uni027D
ENCODING 637
SWIDTH 480 0
DWIDTH 15 0
BBX 13 18 1 -6
BITMAP
F7E0
7FF0
3E78
3800
3800
3800
3800
3800
3800
3800
3800
3800
3800
3800
3800
38C0
3F80
1F00
ENDCHAR
STARTCHAR uni027E
ENCODING 638
SWIDTH 480 0
DWIDTH 15 0
BBX 11 12 3 0
BITMAP
1F80
3FC0
79E0
E000
E000
E000
E000
E000
E000
E000
E000
E000
ENDCHAR
STARTCHAR uni027F
ENCODING 639
SWIDTH 480 0
DWIDTH 15 0
BBX 11 12 3 0
BITMAP
7F00
FF80
E380
01E0
01E0
01E0
01E0
01E0
01E0
01E0
01E0
01E0
ENDCHAR
STARTCHAR uni0280
ENCODING 640
SWIDTH 480 0
DWIDTH 15 0
BBX 13 12 1 0
BITMAP
FFE0
FFF0
F078
F078
F0F0
F0E0
FFC0
FFE0
F0E0
F078
F078
F078
ENDCHAR
STARTCHAR uni0281
ENCODING 641
SWIDTH 480 0
DWIDTH 15 0
BBX 13 12 1 0
BITMAP
F078
F078
F078
F0E0
FFE0
FFC0
F0E0
F0F0
F078
F078
FFF0
FFE0
ENDCHAR
STARTCHAR uni0282
ENCODING 642
SWIDTH 480 0
DWIDTH 15 0
BBX 13 18 1 -6
BITMAP
3FE0
7FF0
F078
F000
7FE0
3FE0
0078
0078
0078
F078
FFF0
FFE0
F000
F000
F000
3800
3F00
1F00
ENDCHAR
STARTCHAR uni0283
ENCODING 643
SWIDTH 480 0
DWIDTH 15 0
BBX 9 26 3 -6
BITMAP
0780
0F80
1C00
1C00
1C00
1C00
1C00
1C00
1C00
1C00
1C00
1C00
1C00
1C00
1C00
1C00
1C00
1C00
1C00
1C00
1C00
1C00
1C00
1C00
FC00
F800
ENDCHAR
STARTCHAR uni0284
ENCODING 644
SWIDTH 480 0
DWIDTH 15 0
BBX 13 24 1 -6
BITMAP
00F8
01F0
03C0
03C0
03C0
03C0
03C0
03C0
03C0
03C0
03C0
03C0
03C0
03C0
03C0
1FF8
0FF0
03C0
03C0
63C0
F3C0
F3C0
7F80
3F00
ENDCHAR
STARTCHAR uni0285
ENCODING 645
SWIDTH 480 0
DWIDTH 15 0
BBX 9 18 3 -6
BITMAP
F800
FC00
1C00
1C00
1C00
1C00
1C00
1C00
1C00
1C00
1C00
1C00
1C00
1C00
1C00
1C00
1F80
0F80
ENDCHAR
STARTCHAR uni0286
ENCODING 646
SWIDTH 480 0
DWIDTH 15 0
BBX 13 26 1 -6
BITMAP
01E0
03E0
0700
0700
0700
0700
0700
0700
0700
0700
0700
0700
0700
0700
0700
0700
0700
0700
0700
0700
3FE0
7FF0
F778
F778
7F30
3E00
ENDCHAR
STARTCHAR uni0287
ENCODING 647
SWIDTH 480 0
DWIDTH 15 0
BBX 13 18 1 -6
BITMAP
3F00
7F80
F3C0
03C0
03C0
03C0
03C0
03C0
03C0
03C0
0FF0
1FF8
03C0
03C0
03C0
03C0
03C0
03C0
ENDCHAR
STARTCHAR uni0288
ENCODING 648
SWIDTH 480 0
DWIDTH 15 0
BBX 10 23 1 -6
BITMAP
0C00
1E00
1E00
1E00
1E00
FFC0
7F80
1E00
1E00
1E00
1E00
1E00
1E00
1E00
1E00
1E00
1E00
1E00
1E00
1E00
1E00
0F80
07C0
ENDCHAR
STARTCHAR uni0289
ENCODING 649
SWIDTH 480 0
DWIDTH 15 0
BBX 15 12 0 0
BITMAP
783C
783C
783C
783C
FFFE
FFFE
783C
783C
783C
1C7C
1FFC
0FBC
ENDCHAR
STARTCHAR uni028A
ENCODING 650
SWIDTH 480 0
DWIDTH 15 0
BBX 13 12 1 0
BITMAP
F8F8
78F0
38E0
F078
F078
F078
F078
F078
F078
38E0
3FE0
1FC0
ENDCHAR
STARTCHAR uni028B
ENCODING 651
SWIDTH 480 0
DWIDTH 15 0
BBX 13 12 1 0
BITMAP
F3C0
F1E0
F0E0
F0E0
F0F0
F078
F078
F0F8
F0F8
FFE0
7FE0
3FC0
ENDCHAR
STARTCHAR uni028C
ENCODING 652
SWIDTH 480 0
DWIDTH 15 0
BBX 13 12 1 0
BITMAP
0700
0700
0700
1FC0
1FC0
1FC0
38E0
38E0
38E0
F078
F078
F078
ENDCHAR
STARTCHAR uni028D
ENCODING 653
SWIDTH 480 0
DWIDTH 15 0
BBX 13 12 1 0
BITMAP
38E0
7FF0
FFF8
F778
F778
F778
F778
F778
F078
F078
F078
F078
ENDCHAR
STARTCHAR uni028E
ENCODING 654
SWIDTH 480 0
DWIDTH 15 0
BBX 13 18 1 0
BITMAP
03E0
07F0
0778
0778
0F30
1E00
1E00
1F00
1F00
3FC0
3FC0
3BC0
38E0
78E0
F0E0
F078
F078
F078
ENDCHAR
STARTCHAR uni028F
ENCODING 655
SWIDTH 480 0
DWIDTH 15 0
BBX 13 12 1 0
BITMAP
F078
F078
F078
38E0
3FE0
1FC0
0700
0700
0700
0700
0700
0700
ENDCHAR
STARTCHAR uni0290
ENCODING 656
SWIDTH 480 0
DWIDTH 15 0
BBX 12 18 3 -6
BITMAP
FFE0
FFE0
01E0
0380
0780
0F00
1C00
3C00
7800
E000
FFC0
FFE0
01E0
01E0
01E0
01E0
00F0
0070
ENDCHAR
STARTCHAR uni0291
ENCODING 657
SWIDTH 480 0
DWIDTH 15 0
BBX 11 15 3 -3
BITMAP
FFE0
FFE0
01E0
0380
0780
0F00
1C00
3F80
7B80
EC60
FFC0
FF80
1800
1800
1800
ENDCHAR
STARTCHAR uni0292
ENCODING 658
SWIDTH 480 0
DWIDTH 15 0
BBX 13 18 1 -6
BITMAP
3FF8
3FF8
0078
00E0
01E0
03C0
0700
0FE0
1FE0
0078
0078
0078
F078
F078
F078
38E0
3FE0
1FC0
ENDCHAR
STARTCHAR uni0293
ENCODING 659
SWIDTH 480 0
DWIDTH 15 0
BBX 13 18 1 -6
BITMAP
3FF8
3FF8
0078
00E0
01E0
03C0
0700
0FE0
1FE0
0078
3C78
3E78
F778
F7F0
F3E0
38E0
3FF0
1F78
ENDCHAR
STARTCHAR uni0294
ENCODING 660
SWIDTH 480 0
DWIDTH 15 0
BBX 13 20 1 0
BITMAP
0F80
1FC0
38E0
78F0
F078
F078
6078
0078
00E0
07E0
07C0
0700
0700
0700
0700
0700
0700
0700
0700
0700
ENDCHAR
STARTCHAR uni0295
ENCODING 661
SWIDTH 480 0
DWIDTH 15 0
BBX 13 20 1 0
BITMAP
0F80
1FC0
38E0
78F0
F078
F078
F030
F000
3800
3F00
1F00
0700
0700
0700
0700
0700
0700
0700
0700
0700
ENDCHAR
STARTCHAR uni0296
ENCODING 662
SWIDTH 480 0
DWIDTH 15 0
BBX 13 20 1 0
BITMAP
0700
0700
0700
0700
0700
0700
0700
0700
0700
0780
07C0
00E0
00F0
0078
F078
F078
F078
38E0
3FE0
1FC0
ENDCHAR
STARTCHAR uni0297
ENCODING 663
SWIDTH 480 0
DWIDTH 15 0
BBX 13 18 1 -3
BITMAP
1FE0
3FF0
3878
F000
F000
F000
F000
F000
F000
F000
F000
F000
F000
F000
F000
3878
3FF0
1FE0
ENDCHAR
STARTCHAR uni0298
ENCODING 664
SWIDTH 480 0
DWIDTH 15 0
BBX 13 12 1 0
BITMAP
1FC0
3FE0
38E0
F078
F778
F778
F778
F778
F078
38E0
3FE0
1FC0
ENDCHAR
STARTCHAR uni0299
ENCODING 665
SWIDTH 480 0
DWIDTH 15 0
BBX 13 12 1 0
BITMAP
FFE0
FFF0
F078
F078
FFF0
FFE0
F078
F078
F078
F078
FFF0
FFE0
ENDCHAR
STARTCHAR uni029A
ENCODING 666
SWIDTH 480 0
DWIDTH 15 0
BBX 13 12 1 0
BITMAP
3FE0
7FF0
F078
F078
7C78
3E78
F078
F078
F078
F078
7FF0
3FE0
ENDCHAR
STARTCHAR uni029B
ENCODING 667
SWIDTH 480 0
DWIDTH 15 0
BBX 14 17 1 0
BITMAP
001C
001C
0078
0078
0078
1FF8
3FF8
3878
F000
F000
F000
F3F8
F1F8
F078
38F8
3FF8
1FD8
ENDCHAR
STARTCHAR uni029C
ENCODING 668
SWIDTH 480 0
DWIDTH 15 0
BBX 13 12 1 0
BITMAP
F078
F078
F078
F078
FFF8
FFF8
F078
F078
F078
F078
F078
F078
ENDCHAR
STARTCHAR uni029D
ENCODING 669
SWIDTH 480 0
DWIDTH 15 0
BBX 14 23 1 -6
BITMAP
00E0
00E0
00E0
00E0
0000
07E0
07E0
00E0
00E0
00E0
00E0
00E0
00E0
00E0
00E0
3CE0
3EE0
F7E0
F7E0
F3E0
F0F8
7FFC
3FDC
ENDCHAR
STARTCHAR uni029E
ENCODING 670
SWIDTH 480 0
DWIDTH 15 0
BBX 13 18 1 -6
BITMAP
F078
7878
3878
1E78
0FF8
07F8
03F8
07F8
0778
1E78
3C78
3878
0078
0078
0078
0078
0078
0078
ENDCHAR
STARTCHAR uni029F
ENCODING 671
SWIDTH 480 0
DWIDTH 15 0
BBX 9 12 3 0
BITMAP
E000
E000
E000
E000
E000
E000
E000
E000
E000
E000
FF80
FF80
ENDCHAR
STARTCHAR uni02A0
ENCODING 672
SWIDTH 480 0
DWIDTH 15 0
BBX 14 26 1 -6
BITMAP
001C
001C
0078
0078
0078
0078
0078
0078
1F78
3FF8
38F8
F078
F078
F078
F078
F078
F078
38F8
3FF8
1F78
0078
0078
0078
0078
0078
0078
ENDCHAR
STARTCHAR uni02A1
ENCODING 673
SWIDTH 480 0
DWIDTH 15 0
BBX 13 20 1 0
BITMAP
0F80
1FC0
38E0
78F0
F078
F078
6078
0078
00E0
07E0
07C0
0700
0700
0700
3FE0
3FE0
0700
0700
0700
0700
ENDCHAR
STARTCHAR uni02A2
ENCODING 674
SWIDTH 480 0
DWIDTH 15 0
BBX 13 20 1 0
BITMAP
0F80
1FC0
38E0
78F0
F078
F078
F030
F000
3800
3F00
1F00
0700
0700
0700
3FE0
3FE0
0700
0700
0700
0700
ENDCHAR
STARTCHAR uni02A3
ENCODING 675
SWIDTH 480 0
DWIDTH 15 0
BBX 15 20 0 0
BITMAP
0380
0380
0380
0380
0380
0380
0380
0380
7BFE
FFFE
EF8E
E38E
E39E
E3BC
E3BC
E3F8
E3F0
EFF0
FFFE
7BFE
ENDCHAR
STARTCHAR uni02A4
ENCODING 676
SWIDTH 480 0
DWIDTH 15 0
BBX 15 26 0 -6
BITMAP
0380
0380
0380
0380
0380
0380
0380
0380
7BFE
FFFE
EF8E
E38E
E39E
E3BC
E3F0
E3F8
E3BC
EF8E
FF8E
7B8E
000E
000E
000E
0F3C
07F8
03F0
ENDCHAR
STARTCHAR uni02A5
ENCODING 677
SWIDTH 480 0
DWIDTH 15 0
BBX 15 23 0 -3
BITMAP
0600
0F00
0F00
0F00
0F00
0F00
0F00
0F00
7FFE
FFFE
EF0E
EF3C
EF78
EF70
EFEC
EFFE
EFB6
EF36
FFFE
7FFC
0060
0060
0060
ENDCHAR
STARTCHAR uni02A6
ENCODING 678
SWIDTH 480 0
DWIDTH 15 0
BBX 14 17 0 0
BITMAP
3000
7800
7800
7800
7800
FFF0
FFF8
7BBC
7B80
7BC0
79E0
7870
7878
783C
783C
3FF8
1FF0
ENDCHAR
STARTCHAR uni02A7
ENCODING 679
SWIDTH 480 0
DWIDTH 15 0
BBX 15 26 0 -6
BITMAP
001E
003E
0070
3070
7870
7870
7870
7870
FFF0
FFF0
7870
7870
7870
7870
7870
7870
7870
7870
3E70
1F70
0070
0070
0070
0070
03F0
03E0
ENDCHAR
STARTCHAR uni02A8
ENCODING 680
SWIDTH 480 0
DWIDTH 15 0
BBX 15 20 0 -3
BITMAP
3000
7800
7800
7800
7800
FFFC
FFFE
79EE
7B80
7B80
7B80
7B8C
7B9E
7BB6
79B6
3FFE
1FFC
0060
0060
0060
ENDCHAR
STARTCHAR uni02A9
ENCODING 681
SWIDTH 480 0
DWIDTH 15 0
BBX 14 26 0 -6
BITMAP
1F80
1F80
79E0
79E0
79E0
7800
7800
7800
FFF0
FFF8
7BBC
7BBC
7BBC
7BBC
7BBC
7BBC
7BBC
7BBC
7BBC
7BBC
003C
003C
003C
003C
0078
0070
ENDCHAR
STARTCHAR uni02AA
ENCODING 682
SWIDTH 480 0
DWIDTH 15 0
BBX 13 20 1 0
BITMAP
7800
F800
3800
3800
3800
3800
3800
3800
3BE0
3FF0
3F78
3F00
3FE0
3BE0
3878
3878
3878
3878
7FF0
FFE0
ENDCHAR
STARTCHAR uni02AB
ENCODING 683
SWIDTH 480 0
DWIDTH 15 0
BBX 13 20 1 0
BITMAP
7800
F800
3800
3800
3800
3800
3800
3800
3FF8
3FF8
3878
38E0
38E0
38E0
3BC0
3BC0
3BC0
3F00
7FF0
FFF8
ENDCHAR
STARTCHAR uni02AC
ENCODING 684
SWIDTH 480 0
DWIDTH 15 0
BBX 13 20 1 0
BITMAP
6030
F078
F078
F778
F778
F778
FFF8
FFF8
38E0
38E0
0000
F078
F078
F078
F778
F778
F778
FFF8
7FF0
38E0
ENDCHAR
STARTCHAR uni02AD
ENCODING 685
SWIDTH 480 0
DWIDTH 15 0
BBX 13 12 1 3
BITMAP
FFF8
FFF8
F078
F078
6030
0000
0000
7FF0
FFF8
F078
F078
F078
ENDCHAR
STARTCHAR uni02AE
ENCODING 686
SWIDTH 480 0
DWIDTH 15 0
BBX 13 18 1 -6
BITMAP
3878
7C78
DE78
1E78
1E78
1E78
1E78
1E78
1E78
06F8
07F8
0378
0078
0078
0078
0078
0078
0078
ENDCHAR
STARTCHAR uni02AF
ENCODING 687
SWIDTH 480 0
DWIDTH 15 0
BBX 13 18 1 -6
BITMAP
30C0
78C0
D8C0
18C0
18C0
18C0
18C0
18C0
18C0
1BC0
0FC0
06C0
00C0
00C0
00C0
00D8
00F0
0060
ENDCHAR
STARTCHAR uni02B0
ENCODING 688
SWIDTH 480 0
DWIDTH 15 0
BBX 10 12 1 9
BITMAP
F000
F000
F000
F700
FF80
FBC0
F3C0
F3C0
F3C0
F3C0
F3C0
F3C0
ENDCHAR
STARTCHAR uni02B1
ENCODING 689
SWIDTH 480 0
DWIDTH 15 0
BBX 10 14 1 9
BITMAP
3C00
3E00
F000
F000
F000
F700
FF80
FBC0
F3C0
F3C0
F3C0
F3C0
F3C0
F3C0
ENDCHAR
STARTCHAR uni02B2
ENCODING 690
SWIDTH 480 0
DWIDTH 15 0
BBX 10 16 1 7
BITMAP
0180
03C0
03C0
0180
0000
1FC0
0FC0
03C0
03C0
03C0
03C0
F3C0
F3C0
F3C0
3F00
3F00
ENDCHAR
STARTCHAR uni02B3
ENCODING 691
SWIDTH 480 0
DWIDTH 15 0
BBX 10 9 1 9
BITMAP
F700
FF80
FBC0
F000
F000
F000
F000
F000
F000
ENDCHAR
STARTCHAR uni02B4
ENCODING 692
SWIDTH 480 0
DWIDTH 15 0
BBX 10 9 1 9
BITMAP
03C0
03C0
03C0
03C0
03C0
03C0
F7C0
7FC0
3BC0
ENDCHAR
STARTCHAR uni02B5
ENCODING 693
SWIDTH 480 0
DWIDTH 15 0
BBX 11 12 1 6
BITMAP
03C0
03C0
03C0
03C0
03C0
03C0
F7C0
7FC0
3BC0
03C0
01E0
00E0
ENDCHAR
STARTCHAR uni02B6
ENCODING 694
SWIDTH 480 0
DWIDTH 15 0
BBX 11 9 1 9
BITMAP
F0E0
F0E0
F0E0
FFC0
FFE0
F0E0
F0E0
FFE0
FFC0
ENDCHAR
STARTCHAR uni02B7
ENCODING 695
SWIDTH 480 0
DWIDTH 15 0
BBX 13 9 1 9
BITMAP
F778
F778
F778
F778
F778
F778
3FE0
3FE0
38E0
ENDCHAR
STARTCHAR uni02B8
ENCODING 696
SWIDTH 480 0
DWIDTH 15 0
BBX 11 12 1 6
BITMAP
F0E0
F0E0
F0E0
F0E0
F0E0
F0E0
F0E0
7FE0
3FE0
00E0
3FE0
3FC0
ENDCHAR
STARTCHAR uni02B9
ENCODING 697
SWIDTH 480 0
DWIDTH 15 0
BBX 8 7 3 13
BITMAP
06
0F
1C
3C
78
E0
E0
ENDCHAR
STARTCHAR uni02BA
ENCODING 698
SWIDTH 480 0
DWIDTH 15 0
BBX 14 7 1 13
BITMAP
071C
071C
1E78
3CF0
38E0
F3C0
6180
ENDCHAR
STARTCHAR uni02BB
ENCODING 699
SWIDTH 480 0
DWIDTH 15 0
BBX 5 7 4 13
BITMAP
38
38
F0
F8
F8
F8
78
ENDCHAR
STARTCHAR afii57929
ENCODING 700
SWIDTH 480 0
DWIDTH 15 0
BBX 5 7 6 13
BITMAP
F0
F8
F8
F8
78
E0
E0
ENDCHAR
STARTCHAR afii64937
ENCODING 701
SWIDTH 480 0
DWIDTH 15 0
BBX 5 7 6 13
BITMAP
F0
F8
F8
F0
E0
78
30
ENDCHAR
STARTCHAR uni02BE
ENCODING 702
SWIDTH 480 0
DWIDTH 15 0
BBX 5 7 6 13
BITMAP
E0
E0
78
78
78
E0
E0
ENDCHAR
STARTCHAR uni02BF
ENCODING 703
SWIDTH 480 0
DWIDTH 15 0
BBX 5 7 6 13
BITMAP
30
78
E0
E0
E0
78
30
ENDCHAR
STARTCHAR uni02C0
ENCODING 704
SWIDTH 480 0
DWIDTH 15 0
BBX 8 10 3 10
BITMAP
3C
7C
EF
EF
0F
1C
1C
1C
1C
1C
ENDCHAR
STARTCHAR uni02C1
ENCODING 705
SWIDTH 480 0
DWIDTH 15 0
BBX 8 10 3 10
BITMAP
3C
7C
EF
E6
E0
78
78
78
78
30
ENDCHAR
STARTCHAR uni02C2
ENCODING 706
SWIDTH 480 0
DWIDTH 15 0
BBX 9 8 3 12
BITMAP
0380
0380
1F00
FE00
F800
1F00
1F80
0380
ENDCHAR
STARTCHAR uni02C3
ENCODING 707
SWIDTH 480 0
DWIDTH 15 0
BBX 9 8 3 12
BITMAP
E000
E000
7C00
3F80
0F80
7C00
FC00
E000
ENDCHAR
STARTCHAR uni02C4
ENCODING 708
SWIDTH 480 0
DWIDTH 15 0
BBX 8 10 3 10
BITMAP
10
18
18
3C
7C
6C
EE
EF
C3
82
ENDCHAR
STARTCHAR uni02C5
ENCODING 709
SWIDTH 480 0
DWIDTH 15 0
BBX 8 10 3 10
BITMAP
82
C3
EF
EE
6C
7C
3C
18
18
10
ENDCHAR
STARTCHAR circumflex
ENCODING 710
SWIDTH 480 0
DWIDTH 15 0
BBX 9 5 3 15
BITMAP
1C00
1C00
7F00
FF80
E380
ENDCHAR
STARTCHAR caron
ENCODING 711
SWIDTH 480 0
DWIDTH 15 0
BBX 9 5 3 15
BITMAP
E380
E380
7F00
3E00
1C00
ENDCHAR
STARTCHAR uni02C8
ENCODING 712
SWIDTH 480 0
DWIDTH 15 0
BBX 3 8 6 12
BITMAP
E0
E0
E0
E0
E0
E0
E0
E0
ENDCHAR
STARTCHAR macron
ENCODING 713
SWIDTH 480 0
DWIDTH 15 0
BBX 13 2 1 19
BITMAP
FFF8
7FF0
ENDCHAR
STARTCHAR uni02CA
ENCODING 714
SWIDTH 480 0
DWIDTH 15 0
BBX 7 5 4 15
BITMAP
0C
1E
38
78
F0
ENDCHAR
STARTCHAR uni02CB
ENCODING 715
SWIDTH 480 0
DWIDTH 15 0
BBX 7 5 4 15
BITMAP
60
F0
38
3C
1E
ENDCHAR
STARTCHAR uni02CC
ENCODING 716
SWIDTH 480 0
DWIDTH 15 0
BBX 3 8 6 -5
BITMAP
E0
E0
E0
E0
E0
E0
E0
E0
ENDCHAR
STARTCHAR uni02CD
ENCODING 717
SWIDTH 480 0
DWIDTH 15 0
BBX 13 2 1 -5
BITMAP
FFF8
7FF0
ENDCHAR
STARTCHAR uni02CE
ENCODING 718
SWIDTH 480 0
DWIDTH 15 0
BBX 7 5 4 -6
BITMAP
60
F0
38
3C
1E
ENDCHAR
STARTCHAR uni02CF
ENCODING 719
SWIDTH 480 0
DWIDTH 15 0
BBX 7 5 4 -6
BITMAP
0C
1E
38
78
F0
ENDCHAR
STARTCHAR uni02D0
ENCODING 720
SWIDTH 480 0
DWIDTH 15 0
BBX 8 12 3 0
BITMAP
FF
FE
7C
18
10
00
00
10
18
7C
FE
FF
ENDCHAR
STARTCHAR uni02D1
ENCODING 721
SWIDTH 480 0
DWIDTH 15 0
BBX 8 5 3 7
BITMAP
FF
FE
7C
18
10
ENDCHAR
STARTCHAR uni02D2
ENCODING 722
SWIDTH 480 0
DWIDTH 15 0
BBX 5 10 6 1
BITMAP
E0
E0
F8
F8
78
78
F8
F8
E0
E0
ENDCHAR
STARTCHAR uni02D3
ENCODING 723
SWIDTH 480 0
DWIDTH 15 0
BBX 5 10 6 1
BITMAP
30
78
F8
F0
E0
E0
F0
F8
78
30
ENDCHAR
STARTCHAR uni02D4
ENCODING 724
SWIDTH 480 0
DWIDTH 15 0
BBX 8 7 3 4
BITMAP
10
18
18
18
18
FF
FE
ENDCHAR
STARTCHAR uni02D5
ENCODING 725
SWIDTH 480 0
DWIDTH 15 0
BBX 8 6 3 0
BITMAP
FF
FE
18
18
18
18
ENDCHAR
STARTCHAR uni02D6
ENCODING 726
SWIDTH 480 0
DWIDTH 15 0
BBX 8 11 3 0
BITMAP
10
18
18
18
18
FF
FE
18
18
18
18
ENDCHAR
STARTCHAR uni02D7
ENCODING 727
SWIDTH 480 0
DWIDTH 15 0
BBX 8 5 3 3
BITMAP
82
C3
FF
FF
C3
ENDCHAR
STARTCHAR breve
ENCODING 728
SWIDTH 480 0
DWIDTH 15 0
BBX 9 4 3 19
BITMAP
E380
E380
7F00
3E00
ENDCHAR
STARTCHAR dotaccent
ENCODING 729
SWIDTH 480 0
DWIDTH 15 0
BBX 3 4 6 19
BITMAP
E0
E0
E0
E0
ENDCHAR
STARTCHAR ring
ENCODING 730
SWIDTH 480 0
DWIDTH 15 0
BBX 7 7 4 16
BITMAP
38
38
C6
C6
C6
38
38
ENDCHAR
STARTCHAR ogonek
ENCODING 731
SWIDTH 480 0
DWIDTH 15 0
BBX 7 6 4 -6
BITMAP
38
78
F0
F0
7C
3E
ENDCHAR
STARTCHAR tilde
ENCODING 732
SWIDTH 480 0
DWIDTH 15 0
BBX 9 5 3 15
BITMAP
3080
7980
FF80
FF80
CF00
ENDCHAR
STARTCHAR hungarumlaut
ENCODING 733
SWIDTH 480 0
DWIDTH 15 0
BBX 13 5 1 18
BITMAP
0C30
1E78
38E0
79E0
F3C0
ENDCHAR
STARTCHAR uni02DE
ENCODING 734
SWIDTH 480 0
DWIDTH 15 0
BBX 13 8 1 4
BITMAP
1E00
3E00
3E00
F718
E7F8
C7F8
03E0
01E0
ENDCHAR
STARTCHAR uni02DF
ENCODING 735
SWIDTH 480 0
DWIDTH 15 0
BBX 11 8 1 15
BITMAP
60E0
F0E0
3BC0
3F80
1F00
3BC0
79E0
F0E0
ENDCHAR
STARTCHAR uni02E0
ENCODING 736
SWIDTH 480 0
DWIDTH 15 0
BBX 11 11 1 7
BITMAP
F0E0
79E0
3BC0
1F00
1F00
1F00
3BC0
3BC0
3BC0
1F00
0F00
ENDCHAR
STARTCHAR uni02E1
ENCODING 737
SWIDTH 480 0
DWIDTH 15 0
BBX 7 12 1 9
BITMAP
F8
78
38
38
38
38
38
38
38
38
7C
FE
ENDCHAR
STARTCHAR uni02E2
ENCODING 738
SWIDTH 480 0
DWIDTH 15 0
BBX 8 9 1 9
BITMAP
3F
7F
F0
38
3C
1E
07
7F
FE
ENDCHAR
STARTCHAR uni02E3
ENCODING 739
SWIDTH 480 0
DWIDTH 15 0
BBX 8 9 1 9
BITMAP
F7
F7
F7
3E
3E
3E
F7
F7
F7
ENDCHAR
STARTCHAR uni02E4
ENCODING 740
SWIDTH 480 0
DWIDTH 15 0
BBX 10 12 1 9
BITMAP
3F00
7F80
F3C0
F000
7800
3800
1E00
1E00
1E00
1E00
1E00
1E00
ENDCHAR
STARTCHAR uni02E5
ENCODING 741
SWIDTH 480 0
DWIDTH 15 0
BBX 9 20 3 0
BITMAP
FF80
FF80
0380
0380
0380
0380
0380
0380
0380
0380
0380
0380
0380
0380
0380
0380
0380
0380
0380
0380
ENDCHAR
STARTCHAR uni02E6
ENCODING 742
SWIDTH 480 0
DWIDTH 15 0
BBX 9 20 3 0
BITMAP
0380
0380
0380
0380
0380
FF80
FF80
0380
0380
0380
0380
0380
0380
0380
0380
0380
0380
0380
0380
0380
ENDCHAR
STARTCHAR uni02E7
ENCODING 743
SWIDTH 480 0
DWIDTH 15 0
BBX 9 20 3 0
BITMAP
0380
0380
0380
0380
0380
0380
0380
0380
0380
FF80
FF80
0380
0380
0380
0380
0380
0380
0380
0380
0380
ENDCHAR
STARTCHAR uni02E8
ENCODING 744
SWIDTH 480 0
DWIDTH 15 0
BBX 9 20 3 0
BITMAP
0380
0380
0380
0380
0380
0380
0380
0380
0380
0380
0380
0380
0380
0380
FF80
FF80
0380
0380
0380
0380
ENDCHAR
STARTCHAR uni02E9
ENCODING 745
SWIDTH 480 0
DWIDTH 15 0
BBX 9 20 3 0
BITMAP
0380
0380
0380
0380
0380
0380
0380
0380
0380
0380
0380
0380
0380
0380
0380
0380
0380
0380
FF80
FF80
ENDCHAR
STARTCHAR uni02EA
ENCODING 746
SWIDTH 480 0
DWIDTH 15 0
BBX 7 6 4 0
BITMAP
FE
7E
1E
1E
1E
1E
ENDCHAR
STARTCHAR uni02EB
ENCODING 747
SWIDTH 480 0
DWIDTH 15 0
BBX 7 8 4 -3
BITMAP
60
F0
F0
FC
FE
F0
F0
F0
ENDCHAR
STARTCHAR uni02EC
ENCODING 748
SWIDTH 480 0
DWIDTH 15 0
BBX 9 5 3 -5
BITMAP
E380
FF80
7F00
1C00
1C00
ENDCHAR
STARTCHAR uni02ED
ENCODING 749
SWIDTH 480 0
DWIDTH 15 0
BBX 9 7 3 10
BITMAP
FF80
FF80
0000
0000
0000
FF80
FF80
ENDCHAR
STARTCHAR uni02EE
ENCODING 750
SWIDTH 480 0
DWIDTH 15 0
BBX 13 7 1 13
BITMAP
78F0
F8F8
F8F8
78F8
3878
F0E0
60E0
ENDCHAR
STARTCHAR uni02EF
ENCODING 751
SWIDTH 480 0
DWIDTH 15 0
BBX 8 9 3 -6
BITMAP
C3
E7
EF
6C
7C
7C
18
18
18
ENDCHAR
STARTCHAR uni02F0
ENCODING 752
SWIDTH 480 0
DWIDTH 15 0
BBX 8 9 3 -6
BITMAP
18
18
18
7C
7C
6C
EF
E7
C3
ENDCHAR
STARTCHAR uni02F1
ENCODING 753
SWIDTH 480 0
DWIDTH 15 0
BBX 9 8 3 -6
BITMAP
0380
0380
1F00
FE00
F800
1F00
1F80
0380
ENDCHAR
STARTCHAR uni02F2
ENCODING 754
SWIDTH 480 0
DWIDTH 15 0
BBX 9 8 3 -6
BITMAP
E000
E000
7C00
3F80
0F80
7C00
FC00
E000
ENDCHAR
STARTCHAR uni02F3
ENCODING 755
SWIDTH 480 0
DWIDTH 15 0
BBX 7 6 4 -6
BITMAP
38
7C
C6
C6
7C
38
ENDCHAR
STARTCHAR uni02F4
ENCODING 756
SWIDTH 480 0
DWIDTH 15 0
BBX 7 5 4 7
BITMAP
F0
78
38
1E
0C
ENDCHAR
STARTCHAR uni02F5
ENCODING 757
SWIDTH 480 0
DWIDTH 15 0
BBX 13 5 1 7
BITMAP
F3C0
79E0
38E0
1E78
0C30
ENDCHAR
STARTCHAR uni02F6
ENCODING 758
SWIDTH 480 0
DWIDTH 15 0
BBX 13 5 1 7
BITMAP
1E78
3CF0
38E0
F3C0
6180
ENDCHAR
STARTCHAR uni02F7
ENCODING 759
SWIDTH 480 0
DWIDTH 15 0
BBX 13 5 1 -5
BITMAP
3E78
7F78
F778
F3E0
61E0
ENDCHAR
STARTCHAR uni02F8
ENCODING 760
SWIDTH 480 0
DWIDTH 15 0
BBX 5 12 6 6
BITMAP
F8
F8
F8
00
00
00
00
00
00
F8
F8
F8
ENDCHAR
STARTCHAR uni02F9
ENCODING 761
SWIDTH 480 0
DWIDTH 15 0
BBX 5 8 6 10
BITMAP
F8
F0
C0
C0
C0
C0
C0
80
ENDCHAR
STARTCHAR uni02FA
ENCODING 762
SWIDTH 480 0
DWIDTH 15 0
BBX 5 8 4 10
BITMAP
F8
78
18
18
18
18
18
08
ENDCHAR
STARTCHAR uni02FB
ENCODING 763
SWIDTH 480 0
DWIDTH 15 0
BBX 5 8 6 0
BITMAP
80
C0
C0
C0
C0
C0
F0
F8
ENDCHAR
STARTCHAR uni02FC
ENCODING 764
SWIDTH 480 0
DWIDTH 15 0
BBX 5 8 4 0
BITMAP
08
18
18
18
18
18
78
F8
ENDCHAR
STARTCHAR uni02FD
ENCODING 765
SWIDTH 480 0
DWIDTH 15 0
BBX 13 6 1 -6
BITMAP
C018
C018
C018
FFF8
FFF8
FFF8
ENDCHAR
STARTCHAR uni02FE
ENCODING 766
SWIDTH 480 0
DWIDTH 15 0
BBX 13 5 1 -5
BITMAP
C000
C000
C000
FFF8
7FF0
ENDCHAR
STARTCHAR uni02FF
ENCODING 767
SWIDTH 480 0
DWIDTH 15 0
BBX 13 8 1 -5
BITMAP
1800
3800
3800
FFF8
7FF0
3800
1800
0800
ENDCHAR
STARTCHAR gravecomb
ENCODING 768
SWIDTH 480 0
DWIDTH 15 0
BBX 7 5 4 19
BITMAP
F0
78
38
1E
0C
ENDCHAR
STARTCHAR acutecomb
ENCODING 769
SWIDTH 480 0
DWIDTH 15 0
BBX 7 5 4 19
BITMAP
1E
3C
38
F0
60
ENDCHAR
STARTCHAR uni0302
ENCODING 770
SWIDTH 480 0
DWIDTH 15 0
BBX 9 5 3 19
BITMAP
1C00
3E00
7F00
E380
E380
ENDCHAR
STARTCHAR tildecomb
ENCODING 771
SWIDTH 480 0
DWIDTH 15 0
BBX 9 5 3 19
BITMAP
7980
FF80
FF80
CF00
8600
ENDCHAR
STARTCHAR uni0304
ENCODING 772
SWIDTH 480 0
DWIDTH 15 0
BBX 9 2 3 21
BITMAP
FF80
FF80
ENDCHAR
STARTCHAR uni0305
ENCODING 773
SWIDTH 480 0
DWIDTH 15 0
BBX 15 2 0 21
BITMAP
FFFE
FFFE
ENDCHAR
STARTCHAR uni0306
ENCODING 774
SWIDTH 480 0
DWIDTH 15 0
BBX 11 3 1 21
BITMAP
F0E0
7FE0
3FC0
ENDCHAR
STARTCHAR uni0307
ENCODING 775
SWIDTH 480 0
DWIDTH 15 0
BBX 3 3 6 21
BITMAP
E0
E0
E0
ENDCHAR
STARTCHAR uni0308
ENCODING 776
SWIDTH 480 0
DWIDTH 15 0
BBX 9 3 3 21
BITMAP
E380
E380
E380
ENDCHAR
STARTCHAR hookabovecomb
ENCODING 777
SWIDTH 480 0
DWIDTH 15 0
BBX 9 6 3 18
BITMAP
7F00
FF80
E380
0F00
1E00
1C00
ENDCHAR
STARTCHAR uni030A
ENCODING 778
SWIDTH 480 0
DWIDTH 15 0
BBX 8 5 3 19
BITMAP
7C
FE
EF
7C
3C
ENDCHAR
STARTCHAR uni030B
ENCODING 779
SWIDTH 480 0
DWIDTH 15 0
BBX 13 5 1 19
BITMAP
1E78
3CF0
38E0
F3C0
6180
ENDCHAR
STARTCHAR uni030C
ENCODING 780
SWIDTH 480 0
DWIDTH 15 0
BBX 9 5 3 19
BITMAP
E380
FF80
7F00
1C00
1C00
ENDCHAR
STARTCHAR uni030D
ENCODING 781
SWIDTH 480 0
DWIDTH 15 0
BBX 3 6 6 18
BITMAP
E0
E0
E0
E0
E0
E0
ENDCHAR
STARTCHAR uni030E
ENCODING 782
SWIDTH 480 0
DWIDTH 15 0
BBX 9 6 3 18
BITMAP
E380
E380
E380
E380
E380
E380
ENDCHAR
STARTCHAR uni030F
ENCODING 783
SWIDTH 480 0
DWIDTH 15 0
BBX 13 5 1 19
BITMAP
F3C0
79E0
38E0
1E78
0C30
ENDCHAR
STARTCHAR uni0310
ENCODING 784
SWIDTH 480 0
DWIDTH 15 0
BBX 13 5 1 19
BITMAP
0700
6730
F078
3FE0
3FE0
ENDCHAR
STARTCHAR uni0311
ENCODING 785
SWIDTH 480 0
DWIDTH 15 0
BBX 11 3 1 21
BITMAP
3FC0
7FE0
F0E0
ENDCHAR
STARTCHAR uni0312
ENCODING 786
SWIDTH 480 0
DWIDTH 15 0
BBX 5 6 4 18
BITMAP
38
78
F0
F8
78
30
ENDCHAR
STARTCHAR uni0313
ENCODING 787
SWIDTH 480 0
DWIDTH 15 0
BBX 5 6 4 18
BITMAP
30
78
F8
38
78
F0
ENDCHAR
STARTCHAR uni0314
ENCODING 788
SWIDTH 480 0
DWIDTH 15 0
BBX 5 6 4 18
BITMAP
30
78
F8
F0
78
38
ENDCHAR
STARTCHAR uni0315
ENCODING 789
SWIDTH 480 0
DWIDTH 15 0
BBX 5 6 10 18
BITMAP
30
78
F8
38
78
F0
ENDCHAR
STARTCHAR uni0316
ENCODING 790
SWIDTH 480 0
DWIDTH 15 0
BBX 7 5 4 -6
BITMAP
60
F0
38
3C
1E
ENDCHAR
STARTCHAR uni0317
ENCODING 791
SWIDTH 480 0
DWIDTH 15 0
BBX 7 5 4 -6
BITMAP
0C
1E
38
78
F0
ENDCHAR
STARTCHAR uni0318
ENCODING 792
SWIDTH 480 0
DWIDTH 15 0
BBX 8 5 3 -6
BITMAP
06
0F
FF
FF
0F
ENDCHAR
STARTCHAR uni0319
ENCODING 793
SWIDTH 480 0
DWIDTH 15 0
BBX 8 5 3 -6
BITMAP
E0
E0
FF
FE
E0
ENDCHAR
STARTCHAR uni031A
ENCODING 794
SWIDTH 480 0
DWIDTH 15 0
BBX 8 5 7 19
BITMAP
FF
7F
07
07
07
ENDCHAR
STARTCHAR uni031B
ENCODING 795
SWIDTH 480 0
DWIDTH 15 0
BBX 5 5 10 15
BITMAP
38
38
38
78
F0
ENDCHAR
STARTCHAR uni031C
ENCODING 796
SWIDTH 480 0
DWIDTH 15 0
BBX 7 6 4 -6
BITMAP
3E
7C
F0
F0
7C
3E
ENDCHAR
STARTCHAR uni031D
ENCODING 797
SWIDTH 480 0
DWIDTH 15 0
BBX 9 5 3 -6
BITMAP
1C00
1C00
1C00
FF80
FF80
ENDCHAR
STARTCHAR uni031E
ENCODING 798
SWIDTH 480 0
DWIDTH 15 0
BBX 9 5 3 -6
BITMAP
FF80
FF80
1C00
1C00
1C00
ENDCHAR
STARTCHAR uni031F
ENCODING 799
SWIDTH 480 0
DWIDTH 15 0
BBX 9 5 3 -6
BITMAP
1C00
1C00
FF80
FF80
1C00
ENDCHAR
STARTCHAR uni0320
ENCODING 800
SWIDTH 480 0
DWIDTH 15 0
BBX 9 2 3 -5
BITMAP
FF80
FF80
ENDCHAR
STARTCHAR uni0321
ENCODING 801
SWIDTH 480 0
DWIDTH 15 0
BBX 7 6 7 -6
BITMAP
1E
1E
1E
1E
7C
F8
ENDCHAR
STARTCHAR uni0322
ENCODING 802
SWIDTH 480 0
DWIDTH 15 0
BBX 5 6 10 -6
BITMAP
F0
F0
F0
F0
78
38
ENDCHAR
STARTCHAR dotbelowcomb
ENCODING 803
SWIDTH 480 0
DWIDTH 15 0
BBX 3 4 6 -5
BITMAP
E0
E0
E0
E0
ENDCHAR
STARTCHAR uni0324
ENCODING 804
SWIDTH 480 0
DWIDTH 15 0
BBX 9 4 3 -5
BITMAP
E380
E380
E380
E380
ENDCHAR
STARTCHAR uni0325
ENCODING 805
SWIDTH 480 0
DWIDTH 15 0
BBX 8 5 3 -6
BITMAP
3C
7C
EF
FE
7C
ENDCHAR
STARTCHAR uni0326
ENCODING 806
SWIDTH 480 0
DWIDTH 15 0
BBX 7 5 4 -6
BITMAP
3C
3E
3E
7C
F8
ENDCHAR
STARTCHAR uni0327
ENCODING 807
SWIDTH 480 0
DWIDTH 15 0
BBX 8 6 3 -6
BITMAP
1C
1E
0F
EF
FE
7C
ENDCHAR
STARTCHAR uni0328
ENCODING 808
SWIDTH 480 0
DWIDTH 15 0
BBX 9 6 3 -6
BITMAP
1C00
3C00
7800
E380
FF80
7F00
ENDCHAR
STARTCHAR uni0329
ENCODING 809
SWIDTH 480 0
DWIDTH 15 0
BBX 3 6 6 -6
BITMAP
E0
E0
E0
E0
E0
E0
ENDCHAR
STARTCHAR uni032A
ENCODING 810
SWIDTH 480 0
DWIDTH 15 0
BBX 13 5 1 -6
BITMAP
7FF0
FFF8
F078
F078
F078
ENDCHAR
STARTCHAR uni032B
ENCODING 811
SWIDTH 480 0
DWIDTH 15 0
BBX 13 5 1 -6
BITMAP
6730
F778
F778
7FF0
3FE0
ENDCHAR
STARTCHAR uni032C
ENCODING 812
SWIDTH 480 0
DWIDTH 15 0
BBX 9 5 3 -6
BITMAP
E380
E380
7F00
3E00
1C00
ENDCHAR
STARTCHAR uni032D
ENCODING 813
SWIDTH 480 0
DWIDTH 15 0
BBX 9 5 3 -6
BITMAP
1C00
1C00
7F00
FF80
E380
ENDCHAR
STARTCHAR uni032E
ENCODING 814
SWIDTH 480 0
DWIDTH 15 0
BBX 11 4 1 -5
BITMAP
60E0
F0E0
3FC0
3F80
ENDCHAR
STARTCHAR uni032F
ENCODING 815
SWIDTH 480 0
DWIDTH 15 0
BBX 11 4 1 -5
BITMAP
3F80
3FC0
F0E0
60E0
ENDCHAR
STARTCHAR uni0330
ENCODING 816
SWIDTH 480 0
DWIDTH 15 0
BBX 9 5 3 -6
BITMAP
3080
7980
FF80
FF80
CF00
ENDCHAR
STARTCHAR uni0331
ENCODING 817
SWIDTH 480 0
DWIDTH 15 0
BBX 9 2 3 -3
BITMAP
FF80
FF80
ENDCHAR
STARTCHAR uni0332
ENCODING 818
SWIDTH 480 0
DWIDTH 15 0
BBX 15 2 0 -3
BITMAP
FFFE
FFFE
ENDCHAR
STARTCHAR uni0333
ENCODING 819
SWIDTH 480 0
DWIDTH 15 0
BBX 15 5 0 -6
BITMAP
FFFE
FFFE
0000
FFFE
FFFE
ENDCHAR
STARTCHAR uni0334
ENCODING 820
SWIDTH 480 0
DWIDTH 15 0
BBX 9 5 3 6
BITMAP
3080
7980
FF80
FF80
CF00
ENDCHAR
STARTCHAR uni0335
ENCODING 821
SWIDTH 480 0
DWIDTH 15 0
BBX 9 2 3 7
BITMAP
FF80
FF80
ENDCHAR
STARTCHAR uni0336
ENCODING 822
SWIDTH 480 0
DWIDTH 15 0
BBX 15 2 0 7
BITMAP
FFFE
FFFE
ENDCHAR
STARTCHAR uni0337
ENCODING 823
SWIDTH 480 0
DWIDTH 15 0
BBX 13 11 1 3
BITMAP
0030
0078
00E0
01E0
03C0
0700
0F00
1E00
3800
7800
F000
ENDCHAR
STARTCHAR uni0338
ENCODING 824
SWIDTH 480 0
DWIDTH 15 0
BBX 13 23 1 -2
BITMAP
0078
0078
0078
00E0
00E0
00E0
03C0
03C0
03C0
0700
0700
0700
0700
0F00
1E00
1E00
3C00
3800
3800
7800
F000
F000
6000
ENDCHAR
STARTCHAR uni0339
ENCODING 825
SWIDTH 480 0
DWIDTH 15 0
BBX 7 6 4 -6
BITMAP
F8
7C
1E
1E
7C
F8
ENDCHAR
STARTCHAR uni033A
ENCODING 826
SWIDTH 480 0
DWIDTH 15 0
BBX 13 5 1 -6
BITMAP
6030
F078
F078
FFF8
FFF8
ENDCHAR
STARTCHAR uni033B
ENCODING 827
SWIDTH 480 0
DWIDTH 15 0
BBX 9 5 3 -6
BITMAP
FF80
FF80
E380
FF80
FF80
ENDCHAR
STARTCHAR uni033C
ENCODING 828
SWIDTH 480 0
DWIDTH 15 0
BBX 14 5 0 -6
BITMAP
3CF0
7DF0
EFBC
E798
0300
ENDCHAR
STARTCHAR uni033D
ENCODING 829
SWIDTH 480 0
DWIDTH 15 0
BBX 13 5 1 19
BITMAP
F078
7FF0
1FC0
F078
6030
ENDCHAR
STARTCHAR uni033E
ENCODING 830
SWIDTH 480 0
DWIDTH 15 0
BBX 5 6 4 18
BITMAP
38
78
F0
38
78
F0
ENDCHAR
STARTCHAR uni033F
ENCODING 831
SWIDTH 480 0
DWIDTH 15 0
BBX 15 5 0 19
BITMAP
FFFE
FFFE
0000
FFFE
FFFE
ENDCHAR
STARTCHAR uni0340
ENCODING 832
SWIDTH 480 0
DWIDTH 15 0
BBX 7 5 4 19
BITMAP
F0
78
38
1E
0C
ENDCHAR
STARTCHAR uni0341
ENCODING 833
SWIDTH 480 0
DWIDTH 15 0
BBX 7 5 4 19
BITMAP
1E
3C
38
F0
60
ENDCHAR
STARTCHAR uni0342
ENCODING 834
SWIDTH 480 0
DWIDTH 15 0
BBX 9 5 3 19
BITMAP
7980
FF80
FF80
CF00
8600
ENDCHAR
STARTCHAR uni0343
ENCODING 835
SWIDTH 480 0
DWIDTH 15 0
BBX 5 6 4 18
BITMAP
30
78
F8
38
78
F0
ENDCHAR
STARTCHAR uni0344
ENCODING 836
SWIDTH 480 0
DWIDTH 15 0
BBX 13 5 1 19
BITMAP
03C0
67F0
F778
FE78
7C30
ENDCHAR
STARTCHAR uni0345
ENCODING 837
SWIDTH 480 0
DWIDTH 15 0
BBX 5 5 4 -6
BITMAP
60
F0
F0
78
38
ENDCHAR
STARTCHAR uni0346
ENCODING 838
SWIDTH 480 0
DWIDTH 15 0
BBX 9 3 3 21
BITMAP
FF80
FF80
E380
ENDCHAR
STARTCHAR uni0347
ENCODING 839
SWIDTH 480 0
DWIDTH 15 0
BBX 13 5 1 -6
BITMAP
7FF0
FFF8
0000
7FF0
FFF8
ENDCHAR
STARTCHAR uni0348
ENCODING 840
SWIDTH 480 0
DWIDTH 15 0
BBX 9 5 3 -6
BITMAP
E380
E380
E380
E380
E380
ENDCHAR
STARTCHAR uni0349
ENCODING 841
SWIDTH 480 0
DWIDTH 15 0
BBX 7 5 4 -6
BITMAP
7C
FE
1E
1E
1E
ENDCHAR
STARTCHAR uni034A
ENCODING 842
SWIDTH 480 0
DWIDTH 15 0
BBX 13 11 1 13
BITMAP
03C0
03C0
03C0
3F18
7FF8
FFF8
C7E0
4FE0
1E00
1E00
0C00
ENDCHAR
STARTCHAR uni034B
ENCODING 843
SWIDTH 480 0
DWIDTH 15 0
BBX 9 9 3 15
BITMAP
0F00
0600
0000
7B80
FF80
EF00
0000
3000
7800
ENDCHAR
STARTCHAR uni034C
ENCODING 844
SWIDTH 480 0
DWIDTH 15 0
BBX 9 8 3 16
BITMAP
7B80
FF80
EF00
0000
3380
7B80
EF00
E600
ENDCHAR
STARTCHAR uni034D
ENCODING 845
SWIDTH 480 0
DWIDTH 15 0
BBX 13 5 1 -6
BITMAP
2020
3060
FFF8
7FF0
3060
ENDCHAR
STARTCHAR uni034E
ENCODING 846
SWIDTH 480 0
DWIDTH 15 0
BBX 8 6 3 -6
BITMAP
18
3C
7C
DB
9A
18
ENDCHAR
STARTCHAR uni034F
ENCODING 847
SWIDTH 480 0
DWIDTH 15 0
BBX 1 1 14 -6
BITMAP
00
ENDCHAR
STARTCHAR uni0350
ENCODING 848
SWIDTH 480 0
DWIDTH 15 0
BBX 8 5 4 19
BITMAP
F8
7F
1F
F8
78
ENDCHAR
STARTCHAR uni0351
ENCODING 849
SWIDTH 480 0
DWIDTH 15 0
BBX 5 6 6 18
BITMAP
78
F0
E0
E0
F0
78
ENDCHAR
STARTCHAR uni0352
ENCODING 850
SWIDTH 480 0
DWIDTH 15 0
BBX 13 6 1 18
BITMAP
3FE0
7FF0
F078
0700
0700
0700
ENDCHAR
STARTCHAR uni0353
ENCODING 851
SWIDTH 480 0
DWIDTH 15 0
BBX 7 6 4 -6
BITMAP
C6
7C
38
38
7C
C6
ENDCHAR
STARTCHAR uni0354
ENCODING 852
SWIDTH 480 0
DWIDTH 15 0
BBX 8 5 3 -6
BITMAP
1E
1F
F8
FE
1F
ENDCHAR
STARTCHAR uni0355
ENCODING 853
SWIDTH 480 0
DWIDTH 15 0
BBX 8 5 3 -6
BITMAP
F0
F8
1F
FE
F8
ENDCHAR
STARTCHAR uni0356
ENCODING 854
SWIDTH 480 0
DWIDTH 15 0
BBX 11 6 1 -6
BITMAP
00C0
60C0
F0C0
1F60
7F60
F360
ENDCHAR
STARTCHAR uni0357
ENCODING 855
SWIDTH 480 0
DWIDTH 15 0
BBX 5 6 6 18
BITMAP
E0
F0
78
78
F0
E0
ENDCHAR
STARTCHAR uni0358
ENCODING 856
SWIDTH 480 0
DWIDTH 15 0
BBX 3 3 12 21
BITMAP
E0
E0
E0
ENDCHAR
STARTCHAR uni0359
ENCODING 857
SWIDTH 480 0
DWIDTH 15 0
BBX 13 8 1 -6
BITMAP
38E0
38E0
1FC0
7FF0
FFF8
1FC0
3FE0
38E0
ENDCHAR
STARTCHAR uni035A
ENCODING 858
SWIDTH 480 0
DWIDTH 15 0
BBX 11 5 3 -6
BITMAP
3380
7B80
CC60
FFC0
7B80
ENDCHAR
STARTCHAR uni035B
ENCODING 859
SWIDTH 480 0
DWIDTH 15 0
BBX 13 8 1 16
BITMAP
1E00
3C00
3800
FFF8
7FF0
00E0
03C0
0180
ENDCHAR
STARTCHAR uni035C
ENCODING 860
SWIDTH 480 0
DWIDTH 15 0
BBX 12 3 3 -6
BITMAP
C030
FFF0
7FE0
ENDCHAR
STARTCHAR uni035D
ENCODING 861
SWIDTH 480 0
DWIDTH 15 0
BBX 12 3 3 21
BITMAP
C030
FFF0
7FE0
ENDCHAR
STARTCHAR uni035E
ENCODING 862
SWIDTH 480 0
DWIDTH 15 0
BBX 9 2 6 21
BITMAP
FF80
FF80
ENDCHAR
STARTCHAR uni035F
ENCODING 863
SWIDTH 480 0
DWIDTH 15 0
BBX 9 2 6 -5
BITMAP
FF80
FF80
ENDCHAR
STARTCHAR uni0360
ENCODING 864
SWIDTH 480 0
DWIDTH 15 0
BBX 12 3 3 21
BITMAP
7C30
FFF0
C3E0
ENDCHAR
STARTCHAR uni0361
ENCODING 865
SWIDTH 480 0
DWIDTH 15 0
BBX 12 3 3 21
BITMAP
7FE0
FFF0
C030
ENDCHAR
STARTCHAR uni0362
ENCODING 866
SWIDTH 480 0
DWIDTH 15 0
BBX 9 5 6 -6
BITMAP
0200
0300
FF80
FF80
0300
ENDCHAR
STARTCHAR uni0363
ENCODING 867
SWIDTH 480 0
DWIDTH 15 0
BBX 7 8 4 15
BITMAP
38
38
06
3E
3E
C6
7E
3E
ENDCHAR
STARTCHAR uni0364
ENCODING 868
SWIDTH 480 0
DWIDTH 15 0
BBX 7 8 4 15
BITMAP
38
38
C6
FE
FE
C0
78
38
ENDCHAR
STARTCHAR uni0365
ENCODING 869
SWIDTH 480 0
DWIDTH 15 0
BBX 5 9 4 15
BITMAP
30
20
00
F0
70
30
30
78
F8
ENDCHAR
STARTCHAR uni0366
ENCODING 870
SWIDTH 480 0
DWIDTH 15 0
BBX 7 7 4 16
BITMAP
38
38
C6
C6
C6
38
38
ENDCHAR
STARTCHAR uni0367
ENCODING 871
SWIDTH 480 0
DWIDTH 15 0
BBX 7 7 4 16
BITMAP
44
C6
C6
C6
C6
3E
3C
ENDCHAR
STARTCHAR uni0368
ENCODING 872
SWIDTH 480 0
DWIDTH 15 0
BBX 5 7 4 16
BITMAP
38
38
C0
C0
C0
38
38
ENDCHAR
STARTCHAR uni0369
ENCODING 873
SWIDTH 480 0
DWIDTH 15 0
BBX 7 9 4 15
BITMAP
06
06
06
3E
7E
C6
C6
7E
3E
ENDCHAR
STARTCHAR uni036A
ENCODING 874
SWIDTH 480 0
DWIDTH 15 0
BBX 7 9 4 15
BITMAP
C0
C0
C0
F8
FC
C6
C6
C6
C6
ENDCHAR
STARTCHAR uni036B
ENCODING 875
SWIDTH 480 0
DWIDTH 15 0
BBX 8 7 4 16
BITMAP
64
F6
DB
DB
DB
DB
49
ENDCHAR
STARTCHAR uni036C
ENCODING 876
SWIDTH 480 0
DWIDTH 15 0
BBX 7 7 4 16
BITMAP
48
D8
F6
E4
C0
C0
40
ENDCHAR
STARTCHAR uni036D
ENCODING 877
SWIDTH 480 0
DWIDTH 15 0
BBX 7 9 4 15
BITMAP
30
30
30
F8
78
30
30
3C
1E
ENDCHAR
STARTCHAR uni036E
ENCODING 878
SWIDTH 480 0
DWIDTH 15 0
BBX 7 7 4 16
BITMAP
44
C6
C6
7C
38
38
38
ENDCHAR
STARTCHAR uni036F
ENCODING 879
SWIDTH 480 0
DWIDTH 15 0
BBX 7 7 4 16
BITMAP
44
C6
38
38
38
C6
44
ENDCHAR
STARTCHAR uni0370
ENCODING 880
SWIDTH 480 0
DWIDTH 15 0
BBX 10 20 1 0
BITMAP
6000
F000
F000
F000
F000
F000
F000
F000
F000
FF80
FFC0
F000
F000
F000
F000
F000
F000
F000
F000
F000
ENDCHAR
STARTCHAR uni0371
ENCODING 881
SWIDTH 480 0
DWIDTH 15 0
BBX 11 12 0 0
BITMAP
7800
FC00
DC00
1C00
1FC0
1FE0
1C00
1C00
1C00
1C00
1C00
1C00
ENDCHAR
STARTCHAR uni0372
ENCODING 882
SWIDTH 480 0
DWIDTH 15 0
BBX 13 20 1 0
BITMAP
7FF0
FFF8
C718
C718
C718
C718
4710
0700
0700
0700
0700
0700
0700
0700
0700
0700
0700
0700
0700
0700
ENDCHAR
STARTCHAR uni0373
ENCODING 883
SWIDTH 480 0
DWIDTH 15 0
BBX 9 20 3 0
BITMAP
3F80
7F80
DD80
DD80
DD80
DD80
9C80
1C00
1C00
1C00
1C00
1C00
1C00
1C00
1C00
1C00
1C00
1C00
1C00
1C00
ENDCHAR
STARTCHAR uni0374
ENCODING 884
SWIDTH 480 0
DWIDTH 15 0
BBX 7 5 4 15
BITMAP
0C
1E
38
78
F0
ENDCHAR
STARTCHAR uni0375
ENCODING 885
SWIDTH 480 0
DWIDTH 15 0
BBX 7 5 4 -5
BITMAP
1E
3C
38
F0
60
ENDCHAR
STARTCHAR uni0376
ENCODING 886
SWIDTH 480 0
DWIDTH 15 0
BBX 13 20 1 0
BITMAP
6030
F078
F0F8
F0F8
F0F8
F3F8
F3F8
F3F8
F778
F778
F778
FE78
FE78
FE78
F878
F878
F878
F078
F078
F078
ENDCHAR
STARTCHAR uni0377
ENCODING 887
SWIDTH 480 0
DWIDTH 15 0
BBX 14 12 1 0
BITMAP
F078
F0F8
F0F8
F3F8
F3F8
F378
F678
FE78
FE78
F878
F83C
F01C
ENDCHAR
STARTCHAR uni037A
ENCODING 890
SWIDTH 480 0
DWIDTH 15 0
BBX 5 5 4 -6
BITMAP
60
F0
F0
78
38
ENDCHAR
STARTCHAR uni037B
ENCODING 891
SWIDTH 480 0
DWIDTH 15 0
BBX 13 12 1 0
BITMAP
3FC0
7FE0
F0E0
0078
0078
0078
0078
0078
0078
F0E0
7FE0
3FC0
ENDCHAR
STARTCHAR uni037C
ENCODING 892
SWIDTH 480 0
DWIDTH 15 0
BBX 13 12 1 0
BITMAP
1FE0
3FF0
3878
F000
F180
F3C0
F3C0
F180
F000
3878
3FF0
1FE0
ENDCHAR
STARTCHAR uni037D
ENCODING 893
SWIDTH 480 0
DWIDTH 15 0
BBX 13 12 1 0
BITMAP
3FC0
7FE0
F0E0
0078
0C78
1E78
1E78
0C78
0078
F0E0
7FE0
3FC0
ENDCHAR
STARTCHAR uni037E
ENCODING 894
SWIDTH 480 0
DWIDTH 15 0
BBX 7 14 4 -2
BITMAP
3E
3E
3E
00
00
00
00
00
00
3E
3E
3E
F8
78
ENDCHAR
STARTCHAR tonos
ENCODING 900
SWIDTH 480 0
DWIDTH 15 0
BBX 7 5 4 15
BITMAP
0C
1E
38
78
F0
ENDCHAR
STARTCHAR dieresistonos
ENCODING 901
SWIDTH 480 0
DWIDTH 15 0
BBX 13 5 1 15
BITMAP
0180
03C0
F778
FF78
FE78
ENDCHAR
STARTCHAR Alphatonos
ENCODING 902
SWIDTH 480 0
DWIDTH 15 0
BBX 13 20 1 0
BITMAP
3980
3BC0
F7E0
FFF0
DE78
1E78
1E78
1E78
1E78
1E78
1E78
1FF8
1FF8
1E78
1E78
1E78
1E78
1E78
1E78
1E78
ENDCHAR
STARTCHAR anoteleia
ENCODING 903
SWIDTH 480 0
DWIDTH 15 0
BBX 5 5 6 7
BITMAP
F8
F8
F8
F8
F0
ENDCHAR
STARTCHAR Epsilontonos
ENCODING 904
SWIDTH 480 0
DWIDTH 15 0
BBX 14 20 0 0
BITMAP
3FF8
7FFC
EF00
EF00
CF00
0F00
0F00
0F00
0F00
0FF0
0FF0
0F00
0F00
0F00
0F00
0F00
0F00
0F00
0FF8
0FFC
ENDCHAR
STARTCHAR Etatonos
ENCODING 905
SWIDTH 480 0
DWIDTH 15 0
BBX 14 20 0 0
BITMAP
3E18
7F3C
EF3C
EF3C
CF3C
0F3C
0F3C
0F3C
0F3C
0FFC
0FFC
0F3C
0F3C
0F3C
0F3C
0F3C
0F3C
0F3C
0F3C
0F3C
ENDCHAR
STARTCHAR Iotatonos
ENCODING 906
SWIDTH 480 0
DWIDTH 15 0
BBX 14 20 0 0
BITMAP
3FF8
7FFC
E1E0
E1E0
C1E0
01E0
01E0
01E0
01E0
01E0
01E0
01E0
01E0
01E0
01E0
01E0
01E0
01E0
07F8
0FFC
ENDCHAR
STARTCHAR Omicrontonos
ENCODING 908
SWIDTH 480 0
DWIDTH 15 0
BBX 14 20 0 0
BITMAP
30C0
79E0
E3F0
E7F8
CF3C
0F3C
0F3C
0F3C
0F3C
0F3C
0F3C
0F3C
0F3C
0F3C
0F3C
0F3C
0F3C
03F0
03F0
01E0
ENDCHAR
STARTCHAR Upsilontonos
ENCODING 910
SWIDTH 480 0
DWIDTH 15 0
BBX 14 20 0 0
BITMAP
3E18
7F3C
EF3C
EF3C
CF3C
0F3C
0F3C
0F3C
03F0
03F0
03F0
01E0
01E0
01E0
01E0
01E0
01E0
01E0
01E0
01E0
ENDCHAR
STARTCHAR Omegatonos
ENCODING 911
SWIDTH 480 0
DWIDTH 15 0
BBX 13 20 1 0
BITMAP
3980
3BC0
F7E0
FFF0
DE78
1E78
1E78
1E78
1E78
1E78
1E78
1E78
1E78
1E78
1E78
0FF0
07E0
03C0
0FF0
1FF8
ENDCHAR
STARTCHAR iotadieresistonos
ENCODING 912
SWIDTH 480 0
DWIDTH 15 0
BBX 13 20 1 0
BITMAP
0180
03C0
F778
FF78
FE78
0000
0000
0000
0700
0700
0700
0700
0700
0700
0700
0700
0700
0778
07F0
03E0
ENDCHAR
STARTCHAR Alpha
ENCODING 913
SWIDTH 480 0
DWIDTH 15 0
BBX 13 20 1 0
BITMAP
0700
0700
1FC0
3FE0
38E0
38E0
78F0
F078
F078
F078
F078
FFF8
FFF8
F078
F078
F078
F078
F078
F078
F078
ENDCHAR
STARTCHAR Beta
ENCODING 914
SWIDTH 480 0
DWIDTH 15 0
BBX 13 20 1 0
BITMAP
7F00
FF00
F3C0
F1E0
F0E0
F0E0
F0E0
F0E0
F3C0
FFC0
FFC0
F0E0
F0F0
F078
F078
F078
F078
F0E0
FFE0
FFC0
ENDCHAR
STARTCHAR Gamma
ENCODING 915
SWIDTH 480 0
DWIDTH 15 0
BBX 13 20 1 0
BITMAP
7FF0
FFF8
F000
F000
F000
F000
F000
F000
F000
F000
F000
F000
F000
F000
F000
F000
F000
F000
F000
F000
ENDCHAR
STARTCHAR Delta
ENCODING 916
SWIDTH 480 0
DWIDTH 15 0
BBX 13 20 1 0
BITMAP
0700
0700
0700
0700
0700
1FC0
1FC0
1FC0
1FC0
3FE0
38E0
38E0
38E0
38E0
F078
F078
F078
F078
FFF8
FFF8
ENDCHAR
STARTCHAR Epsilon
ENCODING 917
SWIDTH 480 0
DWIDTH 15 0
BBX 13 20 1 0
BITMAP
7FF0
FFF8
F000
F000
F000
F000
F000
F000
F000
FF80
FFC0
F000
F000
F000
F000
F000
F000
F000
FFF0
FFF8
ENDCHAR
STARTCHAR Zeta
ENCODING 918
SWIDTH 480 0
DWIDTH 15 0
BBX 13 20 1 0
BITMAP
7FF0
FFF8
0078
0078
0078
00E0
01E0
03C0
03C0
0780
0700
1E00
1E00
1E00
3800
7800
F000
F000
FFF0
FFF8
ENDCHAR
STARTCHAR Eta
ENCODING 919
SWIDTH 480 0
DWIDTH 15 0
BBX 13 20 1 0
BITMAP
6030
F078
F078
F078
F078
F078
F078
F078
F078
FFF8
FFF8
F078
F078
F078
F078
F078
F078
F078
F078
F078
ENDCHAR
STARTCHAR Theta
ENCODING 920
SWIDTH 480 0
DWIDTH 15 0
BBX 13 20 1 0
BITMAP
0F80
1FC0
38E0
78F0
F078
F078
F078
F078
F078
FFF8
FFF8
F078
F078
F078
F078
F078
F078
38E0
3FE0
1FC0
ENDCHAR
STARTCHAR Iota
ENCODING 921
SWIDTH 480 0
DWIDTH 15 0
BBX 13 20 1 0
BITMAP
7FF0
FFF8
0700
0700
0700
0700
0700
0700
0700
0700
0700
0700
0700
0700
0700
0700
0700
0700
7FF0
FFF8
ENDCHAR
STARTCHAR Kappa
ENCODING 922
SWIDTH 480 0
DWIDTH 15 0
BBX 13 20 1 0
BITMAP
6030
F078
F078
F0F0
F0E0
F0E0
F1E0
F3C0
F3C0
FF80
FF00
F3C0
F3C0
F3C0
F0E0
F0E0
F0E0
F078
F078
F078
ENDCHAR
STARTCHAR Lambda
ENCODING 923
SWIDTH 480 0
DWIDTH 15 0
BBX 13 20 1 0
BITMAP
0700
0700
0700
0700
0700
1FC0
1FC0
1FC0
1FC0
3FE0
38E0
38E0
38E0
38E0
F078
F078
F078
F078
F078
F078
ENDCHAR
STARTCHAR Mu
ENCODING 924
SWIDTH 480 0
DWIDTH 15 0
BBX 13 20 1 0
BITMAP
6030
F078
F078
F8F8
F8F8
F8F8
FFF8
FFF8
F778
F778
F778
F778
F778
F778
F078
F078
F078
F078
F078
F078
ENDCHAR
STARTCHAR Nu
ENCODING 925
SWIDTH 480 0
DWIDTH 15 0
BBX 13 20 1 0
BITMAP
6030
F078
F878
F878
F878
FE78
FE78
FE78
F778
F778
F778
F3F8
F3F8
F3F8
F0F8
F0F8
F0F8
F078
F078
F078
ENDCHAR
STARTCHAR Xi
ENCODING 926
SWIDTH 480 0
DWIDTH 15 0
BBX 13 20 1 0
BITMAP
7FF0
FFF8
0000
0000
0000
0000
0000
0000
0000
3FE0
3FE0
0000
0000
0000
0000
0000
0000
0000
7FF0
FFF8
ENDCHAR
STARTCHAR Omicron
ENCODING 927
SWIDTH 480 0
DWIDTH 15 0
BBX 13 20 1 0
BITMAP
0F80
1FC0
38E0
78F0
F078
F078
F078
F078
F078
F078
F078
F078
F078
F078
F078
F078
F078
38E0
3FE0
1FC0
ENDCHAR
STARTCHAR Pi
ENCODING 928
SWIDTH 480 0
DWIDTH 15 0
BBX 13 20 1 0
BITMAP
7FF0
FFF8
38E0
38E0
38E0
38E0
38E0
38E0
38E0
38E0
38E0
38E0
38E0
38E0
38E0
38E0
38E0
38E0
38E0
38E0
ENDCHAR
STARTCHAR Rho
ENCODING 929
SWIDTH 480 0
DWIDTH 15 0
BBX 13 20 1 0
BITMAP
7F80
FFC0
F0E0
F0F0
F078
F078
F078
F078
F078
F0F0
F0E0
FFC0
FF80
F000
F000
F000
F000
F000
F000
F000
ENDCHAR
STARTCHAR Sigma
ENCODING 931
SWIDTH 480 0
DWIDTH 15 0
BBX 13 20 1 0
BITMAP
7FF0
FFF8
F000
7800
3800
1E00
0F00
0700
03C0
03C0
03C0
0700
0F00
1E00
3800
7800
F000
F000
FFF0
FFF8
ENDCHAR
STARTCHAR Tau
ENCODING 932
SWIDTH 480 0
DWIDTH 15 0
BBX 13 20 1 0
BITMAP
7FF0
FFF8
0700
0700
0700
0700
0700
0700
0700
0700
0700
0700
0700
0700
0700
0700
0700
0700
0700
0700
ENDCHAR
STARTCHAR Upsilon
ENCODING 933
SWIDTH 480 0
DWIDTH 15 0
BBX 13 20 1 0
BITMAP
6030
F078
F078
78F0
38E0
38E0
3FE0
1FC0
1FC0
0F80
0700
0700
0700
0700
0700
0700
0700
0700
0700
0700
ENDCHAR
STARTCHAR Phi
ENCODING 934
SWIDTH 480 0
DWIDTH 15 0
BBX 13 20 1 0
BITMAP
0700
0700
0700
3FE0
3FE0
F778
F778
F778
F778
F778
F778
F778
F778
F778
F778
7FF0
3FE0
0700
0700
0700
ENDCHAR
STARTCHAR Chi
ENCODING 935
SWIDTH 480 0
DWIDTH 15 0
BBX 13 20 1 0
BITMAP
6030
F078
F078
78F0
38E0
38E0
3FE0
1FC0
1FC0
0F80
0700
1FC0
1FC0
1FC0
38E0
38E0
38E0
F078
F078
F078
ENDCHAR
STARTCHAR Psi
ENCODING 936
SWIDTH 480 0
DWIDTH 15 0
BBX 13 20 1 0
BITMAP
6730
F778
F778
F778
F778
F778
F778
F778
F778
F778
F778
F778
7FF0
3FE0
0700
0700
0700
0700
0700
0700
ENDCHAR
STARTCHAR Omega
ENCODING 937
SWIDTH 480 0
DWIDTH 15 0
BBX 13 20 1 0
BITMAP
0F80
1FC0
38E0
78F0
F078
F078
F078
F078
F078
F078
F078
F078
F078
F078
F078
78F0
38E0
18C0
78F0
F8F8
ENDCHAR
STARTCHAR Iotadieresis
ENCODING 938
SWIDTH 480 0
DWIDTH 15 0
BBX 13 23 1 0
BITMAP
6030
F078
F078
6030
0000
FFF8
7FF0
0700
0700
0700
0700
0700
0700
0700
0700
0700
0700
0700
0700
0700
0700
7FF0
FFF8
ENDCHAR
STARTCHAR Upsilondieresis
ENCODING 939
SWIDTH 480 0
DWIDTH 15 0
BBX 13 23 1 0
BITMAP
6030
F078
F078
6030
0000
F078
78F0
38E0
38E0
3FE0
1FC0
1FC0
0F80
0700
0700
0700
0700
0700
0700
0700
0700
0700
0700
ENDCHAR
STARTCHAR alphatonos
ENCODING 940
SWIDTH 480 0
DWIDTH 15 0
BBX 13 20 1 0
BITMAP
00E0
00E0
03C0
0780
0700
0000
0000
0000
3F78
7FF8
F0F8
F078
F078
F078
F078
F0F8
F0F8
F378
7F78
3E78
ENDCHAR
STARTCHAR epsilontonos
ENCODING 941
SWIDTH 480 0
DWIDTH 15 0
BBX 13 20 1 0
BITMAP
00E0
00E0
03C0
0780
0700
0000
0000
0000
3FE0
7FF0
F078
F000
7F80
3FC0
F000
F000
F000
F078
7FF0
3FE0
ENDCHAR
STARTCHAR etatonos
ENCODING 942
SWIDTH 480 0
DWIDTH 15 0
BBX 13 26 1 -6
BITMAP
00E0
00E0
03C0
0780
0700
0000
0000
0000
F7C0
FFE0
F8E0
F078
F078
F078
F078
F078
F078
F078
F078
F078
0078
0078
0078
0078
0078
0078
ENDCHAR
STARTCHAR iotatonos
ENCODING 943
SWIDTH 480 0
DWIDTH 15 0
BBX 8 20 4 0
BITMAP
0C
1E
38
78
F0
00
00
00
F0
F0
F0
F0
F0
F0
F0
F0
F0
F7
7F
3E
ENDCHAR
STARTCHAR upsilondieresistonos
ENCODING 944
SWIDTH 480 0
DWIDTH 15 0
BBX 13 20 1 0
BITMAP
0180
03C0
F778
FF78
FE78
0000
0000
0000
F078
F078
F078
F078
F078
F078
F078
F078
F078
38E0
3FE0
1FC0
ENDCHAR
STARTCHAR alpha
ENCODING 945
SWIDTH 480 0
DWIDTH 15 0
BBX 13 12 1 0
BITMAP
3F78
7FF8
F0F8
F078
F078
F078
F078
F0F8
F0F8
F378
7F78
3E78
ENDCHAR
STARTCHAR beta
ENCODING 946
SWIDTH 480 0
DWIDTH 15 0
BBX 13 26 1 -6
BITMAP
0F00
1F00
3BC0
79E0
F0E0
F0E0
F1E0
F3C0
FFC0
FFE0
F0E0
F078
F078
F078
F078
F078
F078
FEE0
FFE0
F7C0
F000
F000
F000
F000
F000
F000
ENDCHAR
STARTCHAR gamma
ENCODING 947
SWIDTH 480 0
DWIDTH 15 0
BBX 13 18 1 -6
BITMAP
F078
F078
F078
F078
78F0
38E0
38E0
3FE0
1FC0
1FC0
0F80
0700
0700
0700
0700
0700
0700
0700
ENDCHAR
STARTCHAR delta
ENCODING 948
SWIDTH 480 0
DWIDTH 15 0
BBX 13 20 1 0
BITMAP
3F80
3FC0
F0E0
78E0
3800
1E00
0F00
0700
1FC0
3FE0
38E0
F078
F078
F078
F078
F078
F078
38E0
3FE0
1FC0
ENDCHAR
STARTCHAR epsilon
ENCODING 949
SWIDTH 480 0
DWIDTH 15 0
BBX 13 12 1 0
BITMAP
3FE0
7FF0
F078
F000
7F80
3FC0
F000
F000
F000
F078
7FF0
3FE0
ENDCHAR
STARTCHAR zeta
ENCODING 950
SWIDTH 480 0
DWIDTH 15 0
BBX 13 25 1 -5
BITMAP
7FF0
FFF8
0700
0F00
1E00
3800
3800
3800
F000
F000
F000
F000
F000
F000
F000
F000
F000
3800
3FE0
1FE0
0078
0078
0078
07E0
07E0
ENDCHAR
STARTCHAR eta
ENCODING 951
SWIDTH 480 0
DWIDTH 15 0
BBX 13 18 1 -6
BITMAP
F7C0
FFE0
F8E0
F078
F078
F078
F078
F078
F078
F078
F078
F078
0078
0078
0078
0078
0078
0078
ENDCHAR
STARTCHAR theta
ENCODING 952
SWIDTH 480 0
DWIDTH 15 0
BBX 11 20 1 0
BITMAP
0F00
1F00
3BC0
79E0
F0E0
F0E0
F0E0
F0E0
F0E0
FFE0
FFE0
F0E0
F0E0
F0E0
F0E0
F0E0
F0E0
3BC0
3F80
1F00
ENDCHAR
STARTCHAR iota
ENCODING 953
SWIDTH 480 0
DWIDTH 15 0
BBX 8 12 4 0
BITMAP
F0
F0
F0
F0
F0
F0
F0
F0
F0
F7
7F
3E
ENDCHAR
STARTCHAR kappa
ENCODING 954
SWIDTH 480 0
DWIDTH 15 0
BBX 13 12 1 0
BITMAP
F078
F0F0
F0E0
F3C0
FF80
FF00
FF00
FF80
F3C0
F0E0
F0F0
F078
ENDCHAR
STARTCHAR lambda
ENCODING 955
SWIDTH 480 0
DWIDTH 15 0
BBX 13 20 1 0
BITMAP
0F80
1FC0
38E0
78F0
F078
0078
0078
0078
1F78
3FF8
38F8
F078
F078
F078
F078
F078
F078
F078
F078
F078
ENDCHAR
STARTCHAR mu
ENCODING 956
SWIDTH 480 0
DWIDTH 15 0
BBX 13 18 1 -6
BITMAP
F078
F078
F078
F078
F078
F078
F078
F078
F078
F8F8
FFF8
FF78
F000
F000
F000
F000
F000
F000
ENDCHAR
STARTCHAR nu
ENCODING 957
SWIDTH 480 0
DWIDTH 15 0
BBX 13 12 1 0
BITMAP
F078
F078
F078
38E0
38E0
38E0
1FC0
1FC0
1FC0
0700
0700
0700
ENDCHAR
STARTCHAR xi
ENCODING 958
SWIDTH 480 0
DWIDTH 15 0
BBX 13 25 1 -5
BITMAP
7FF0
FFF8
0700
0F00
1E00
3800
3800
3800
1E00
0FE0
07E0
1E00
3C00
3800
F000
F000
F000
F000
7FE0
3FE0
0078
0078
0078
07E0
07E0
ENDCHAR
STARTCHAR omicron
ENCODING 959
SWIDTH 480 0
DWIDTH 15 0
BBX 13 12 1 0
BITMAP
1FC0
3FE0
38E0
F078
F078
F078
F078
F078
F078
38E0
3FE0
1FC0
ENDCHAR
STARTCHAR pi
ENCODING 960
SWIDTH 480 0
DWIDTH 15 0
BBX 13 12 1 0
BITMAP
FFF8
7FF0
38E0
38E0
38E0
38E0
38E0
38E0
38E0
38E0
38E0
38E0
ENDCHAR
STARTCHAR rho
ENCODING 961
SWIDTH 480 0
DWIDTH 15 0
BBX 13 18 1 -6
BITMAP
1FC0
3FE0
38E0
F078
F078
F078
F078
F078
F078
F8E0
FFE0
FFC0
F000
F000
F000
F000
F000
F000
ENDCHAR
STARTCHAR sigma1
ENCODING 962
SWIDTH 480 0
DWIDTH 15 0
BBX 13 17 1 -5
BITMAP
1FE0
3FF0
3878
F000
F000
F000
F000
F000
F000
3800
3FE0
1FE0
0078
0078
0078
07E0
07E0
ENDCHAR
STARTCHAR sigma
ENCODING 963
SWIDTH 480 0
DWIDTH 15 0
BBX 13 12 1 0
BITMAP
1FF8
3FF0
3BC0
F0E0
F0F0
F078
F078
F078
F078
38E0
3FE0
1FC0
ENDCHAR
STARTCHAR tau
ENCODING 964
SWIDTH 480 0
DWIDTH 15 0
BBX 13 12 1 0
BITMAP
FFF8
7FF0
0700
0700
0700
0700
0700
0700
0700
0778
07F0
03E0
ENDCHAR
STARTCHAR upsilon
ENCODING 965
SWIDTH 480 0
DWIDTH 15 0
BBX 13 12 1 0
BITMAP
F078
F078
F078
F078
F078
F078
F078
F078
F078
38E0
3FE0
1FC0
ENDCHAR
STARTCHAR phi
ENCODING 966
SWIDTH 480 0
DWIDTH 15 0
BBX 13 18 1 -6
BITMAP
3BE0
7FF0
F778
F778
F778
F778
F778
F778
F778
F778
7FF0
3FE0
0700
0700
0700
0700
0700
0700
ENDCHAR
STARTCHAR chi
ENCODING 967
SWIDTH 480 0
DWIDTH 15 0
BBX 13 18 1 -6
BITMAP
F078
F078
F078
38E0
38E0
38E0
1FC0
0F80
0700
0700
0F80
1FC0
38E0
38E0
38E0
F078
F078
F078
ENDCHAR
STARTCHAR psi
ENCODING 968
SWIDTH 480 0
DWIDTH 15 0
BBX 13 18 1 -6
BITMAP
F778
F778
F778
F778
F778
F778
F778
F778
F778
F778
7FF0
3FE0
0700
0700
0700
0700
0700
0700
ENDCHAR
STARTCHAR omega
ENCODING 969
SWIDTH 480 0
DWIDTH 15 0
BBX 13 12 1 0
BITMAP
F078
F778
F778
F778
F778
F778
F778
F778
F778
FFF8
7FF0
38E0
ENDCHAR
STARTCHAR iotadieresis
ENCODING 970
SWIDTH 480 0
DWIDTH 15 0
BBX 13 18 1 0
BITMAP
F078
F078
F078
0000
0000
0000
0700
0700
0700
0700
0700
0700
0700
0700
0700
0778
07F0
03E0
ENDCHAR
STARTCHAR upsilondieresis
ENCODING 971
SWIDTH 480 0
DWIDTH 15 0
BBX 13 18 1 0
BITMAP
F078
F078
F078
0000
0000
0000
F078
F078
F078
F078
F078
F078
F078
F078
F078
38E0
3FE0
1FC0
ENDCHAR
STARTCHAR omicrontonos
ENCODING 972
SWIDTH 480 0
DWIDTH 15 0
BBX 13 20 1 0
BITMAP
00E0
00E0
03C0
0780
0700
0000
0000
0000
1FC0
3FE0
38E0
F078
F078
F078
F078
F078
F078
38E0
3FE0
1FC0
ENDCHAR
STARTCHAR upsilontonos
ENCODING 973
SWIDTH 480 0
DWIDTH 15 0
BBX 13 20 1 0
BITMAP
00E0
00E0
03C0
0780
0700
0000
0000
0000
F078
F078
F078
F078
F078
F078
F078
F078
F078
38E0
3FE0
1FC0
ENDCHAR
STARTCHAR omegatonos
ENCODING 974
SWIDTH 480 0
DWIDTH 15 0
BBX 13 20 1 0
BITMAP
00E0
00E0
03C0
0780
0700
0000
0000
0000
F078
F778
F778
F778
F778
F778
F778
F778
F778
FFF8
7FF0
38E0
ENDCHAR
STARTCHAR uni03CF
ENCODING 975
SWIDTH 480 0
DWIDTH 15 0
BBX 13 25 1 -5
BITMAP
6030
F078
F078
F0F0
F0E0
F0E0
F1E0
F3C0
F3C0
FF80
FF00
F3C0
F3C0
F3C0
F0E0
F0E0
F0E0
F078
F0F8
F0F8
03E0
07E0
07C0
0700
0700
ENDCHAR
STARTCHAR uni03D0
ENCODING 976
SWIDTH 480 0
DWIDTH 15 0
BBX 13 20 1 0
BITMAP
0F00
1F00
3BC0
79E0
F0E0
F0E0
F1E0
F3C0
F7C0
FFE0
F8E0
F078
F078
F078
F078
F078
F078
38E0
3FE0
1FC0
ENDCHAR
STARTCHAR theta1
ENCODING 977
SWIDTH 480 0
DWIDTH 15 0
BBX 14 20 0 0
BITMAP
1F80
1F80
79E0
78F0
7870
7870
3C70
1C70
0FFC
E7F8
E070
7870
7870
7870
7870
7870
7870
1DE0
1FC0
0F80
ENDCHAR
STARTCHAR Upsilon1
ENCODING 978
SWIDTH 480 0
DWIDTH 15 0
BBX 15 20 0 0
BITMAP
3018
783C
DC76
9C72
0C60
0FE0
07C0
0380
0380
0380
0380
0380
0380
0380
0380
0380
0380
0380
0380
0380
ENDCHAR
STARTCHAR uni03D3
ENCODING 979
SWIDTH 480 0
DWIDTH 15 0
BBX 15 20 0 0
BITMAP
3018
783C
DC76
9C72
0C60
6FE0
E7C0
E380
C380
8380
0380
0380
0380
0380
0380
0380
0380
0380
0380
0380
ENDCHAR
STARTCHAR uni03D4
ENCODING 980
SWIDTH 480 0
DWIDTH 15 0
BBX 15 21 0 0
BITMAP
783C
783C
783C
0000
3018
783C
DC76
9C72
0C60
0FE0
0FE0
0FE0
0380
0380
0380
0380
0380
0380
0380
0380
0380
ENDCHAR
STARTCHAR phi1
ENCODING 981
SWIDTH 480 0
DWIDTH 15 0
BBX 13 26 1 -6
BITMAP
0700
0700
0700
0700
0700
0700
0700
0700
3FE0
7FF0
F778
F778
F778
F778
F778
F778
F778
F778
7FF0
3FE0
0700
0700
0700
0700
0700
0700
ENDCHAR
STARTCHAR omega1
ENCODING 982
SWIDTH 480 0
DWIDTH 15 0
BBX 15 12 0 0
BITMAP
FFFE
FFFE
783C
7BBC
7BBC
7BBC
7BBC
7BBC
7BBC
7FFC
3FF8
1C70
ENDCHAR
STARTCHAR uni03D7
ENCODING 983
SWIDTH 480 0
DWIDTH 15 0
BBX 13 26 1 -6
BITMAP
3800
3800
1E00
0F00
0700
0000
0000
0000
F018
7838
3878
1EE0
1FE0
1FC0
1F00
3F80
3BC0
F0F8
E0F8
C078
0078
00F0
00E0
03C0
0F80
1F00
ENDCHAR
STARTCHAR uni03D8
ENCODING 984
SWIDTH 480 0
DWIDTH 15 0
BBX 13 25 1 -5
BITMAP
0F80
1FC0
38E0
78F0
F078
F078
F078
F078
F078
F078
F078
F078
F078
F078
F078
F078
F078
38E0
3FE0
1FC0
0700
0700
0700
0700
0700
ENDCHAR
STARTCHAR uni03D9
ENCODING 985
SWIDTH 480 0
DWIDTH 15 0
BBX 13 17 1 -5
BITMAP
1FC0
3FE0
38E0
F078
F078
F078
F078
F078
F078
38E0
3FE0
1FC0
0700
0700
0700
0700
0700
ENDCHAR
STARTCHAR uni03DA
ENCODING 986
SWIDTH 480 0
DWIDTH 15 0
BBX 13 25 1 -5
BITMAP
07E0
07E0
1E78
3C30
3800
F000
F000
F000
F000
F000
F000
F000
F000
F000
F000
7800
3800
1FE0
0FF0
0078
0078
0078
0078
03E0
01E0
ENDCHAR
STARTCHAR uni03DB
ENCODING 987
SWIDTH 480 0
DWIDTH 15 0
BBX 13 19 1 -5
BITMAP
0030
0078
1FE0
3FE0
3800
F000
F000
F000
F000
F000
F000
3800
3FE0
1FE0
0078
0078
0078
03E0
01E0
ENDCHAR
STARTCHAR uni03DC
ENCODING 988
SWIDTH 480 0
DWIDTH 15 0
BBX 13 20 1 0
BITMAP
7FF0
FFF8
F000
F000
F000
F000
F000
F000
F000
FF80
FFC0
F000
F000
F000
F000
F000
F000
F000
F000
F000
ENDCHAR
STARTCHAR uni03DD
ENCODING 989
SWIDTH 480 0
DWIDTH 15 0
BBX 11 18 3 -6
BITMAP
FFE0
FFC0
E000
E000
E000
E000
FF80
FF80
E000
E000
E000
E000
E000
E000
E000
E000
E000
E000
ENDCHAR
STARTCHAR uni03DE
ENCODING 990
SWIDTH 480 0
DWIDTH 15 0
BBX 15 20 0 0
BITMAP
E000
E000
F800
F800
7800
783C
787C
787C
79FC
7BFC
7BBC
7F3C
7E3C
7C3C
783C
303C
003C
003E
001E
000E
ENDCHAR
STARTCHAR uni03DF
ENCODING 991
SWIDTH 480 0
DWIDTH 15 0
BBX 13 25 1 -5
BITMAP
0700
0700
0700
0F00
1E00
1E00
3C00
3800
3800
7800
F000
F000
FFF0
FFF8
0078
00F0
00E0
00E0
01E0
03C0
03C0
0780
0700
0700
0700
ENDCHAR
STARTCHAR uni03E0
ENCODING 992
SWIDTH 480 0
DWIDTH 15 0
BBX 13 20 1 0
BITMAP
0700
0700
0700
0700
0700
1FC0
1FC0
1FC0
1FC0
3FE0
38E0
38E0
38E0
38E0
F3F8
F7F8
F778
F778
F778
F778
ENDCHAR
STARTCHAR uni03E1
ENCODING 993
SWIDTH 480 0
DWIDTH 15 0
BBX 14 25 0 -5
BITMAP
E000
E000
7800
3C00
1C00
0F00
0780
0380
03E0
07E0
0FE0
1C70
3CF0
79F0
03F0
07F8
0F3C
0C3C
043C
003C
003C
003C
003C
003C
0018
ENDCHAR
STARTCHAR uni03E2
ENCODING 994
SWIDTH 480 0
DWIDTH 15 0
BBX 14 23 0 -3
BITMAP
E678
EF7C
7BBC
7BBC
7BBC
7BBC
7BBC
7BBC
7BBC
7BBC
7BBC
7BBC
7BBC
7BBC
7BBC
3FFC
1FFC
003C
1FF8
1FF0
7800
7800
7800
ENDCHAR
STARTCHAR uni03E3
ENCODING 995
SWIDTH 480 0
DWIDTH 15 0
BBX 13 15 1 -3
BITMAP
F778
F778
F778
F778
F778
F778
F778
7FF8
3FF8
0078
3FF0
3FE0
F000
F000
F000
ENDCHAR
STARTCHAR uni03E4
ENCODING 996
SWIDTH 480 0
DWIDTH 15 0
BBX 13 20 1 0
BITMAP
0C30
1E78
3F78
7F78
F778
F078
F078
F078
F0F8
79F8
3BF8
1F78
0F78
0078
0078
0078
0078
0078
0078
0078
ENDCHAR
STARTCHAR uni03E5
ENCODING 997
SWIDTH 480 0
DWIDTH 15 0
BBX 13 12 1 0
BITMAP
1E78
3F78
3F78
F778
F778
F078
38F8
3FF8
1FF8
0078
0078
0078
ENDCHAR
STARTCHAR uni03E6
ENCODING 998
SWIDTH 480 0
DWIDTH 15 0
BBX 13 25 1 -5
BITMAP
7C00
FE00
3800
3800
3800
3800
3800
3800
3BC0
3FE0
3EE0
3878
3878
3878
3878
3878
3878
3878
7C78
FE78
00E0
3FE0
3FC0
F000
6000
ENDCHAR
STARTCHAR uni03E7
ENCODING 999
SWIDTH 480 0
DWIDTH 15 0
BBX 13 14 1 0
BITMAP
0700
0700
3FE0
7FF0
F778
3E78
3C78
0078
0078
3C78
3E78
F778
F7F0
F3E0
ENDCHAR
STARTCHAR uni03E8
ENCODING 1000
SWIDTH 480 0
DWIDTH 15 0
BBX 13 20 1 0
BITMAP
0F80
1FC0
38E0
78F0
F078
F078
7878
3878
00E0
0FE0
1FC0
3800
78E0
F0E0
F078
F078
F078
38E0
3FE0
1FC0
ENDCHAR
STARTCHAR uni03E9
ENCODING 1001
SWIDTH 480 0
DWIDTH 15 0
BBX 13 15 1 -3
BITMAP
3FE0
7FF0
F078
F078
7878
3878
00E0
01E0
03C0
1F00
7F00
F800
1F00
0FF0
03F8
ENDCHAR
STARTCHAR uni03EA
ENCODING 1002
SWIDTH 480 0
DWIDTH 15 0
BBX 15 20 0 0
BITMAP
F01E
F83E
DC76
9C72
1C70
1C70
1FF0
0FE0
0FE0
07C0
0380
0FE0
0FE0
0FE0
1C70
1C70
1C70
783C
7FFC
7FFC
ENDCHAR
STARTCHAR uni03EB
ENCODING 1003
SWIDTH 480 0
DWIDTH 15 0
BBX 15 12 0 0
BITMAP
F83E
FC7E
DC76
0FE0
07C0
0380
0380
07C0
0FE0
1C70
3FF8
7FFC
ENDCHAR
STARTCHAR uni03EC
ENCODING 1004
SWIDTH 480 0
DWIDTH 15 0
BBX 13 21 1 0
BITMAP
0078
0FF0
1FE0
3800
7800
F000
F3E0
F7F0
F778
F078
F078
F078
F078
F078
F078
F078
F078
F078
38E0
3FE0
1FC0
ENDCHAR
STARTCHAR uni03ED
ENCODING 1005
SWIDTH 480 0
DWIDTH 15 0
BBX 13 14 1 0
BITMAP
0030
0078
3FE0
7FE0
F000
F3E0
F7F0
F778
F078
F078
F078
F078
7FF0
3FE0
ENDCHAR
STARTCHAR uni03EE
ENCODING 1006
SWIDTH 480 0
DWIDTH 15 0
BBX 13 20 1 0
BITMAP
0F80
1FC0
0700
0700
0700
3FE0
7FF0
F778
C718
6730
3760
0700
0700
0700
0700
0700
0700
0700
0F80
1FC0
ENDCHAR
STARTCHAR uni03EF
ENCODING 1007
SWIDTH 480 0
DWIDTH 15 0
BBX 13 12 1 0
BITMAP
07C0
0790
0718
3FE0
7FE0
C700
0700
0700
0700
0700
0F00
1F00
ENDCHAR
STARTCHAR uni03F0
ENCODING 1008
SWIDTH 480 0
DWIDTH 15 0
BBX 13 12 1 0
BITMAP
F018
7838
3878
1EE0
1FE0
1FC0
1F00
3F80
3BC0
F0E0
E0F0
C078
ENDCHAR
STARTCHAR uni03F1
ENCODING 1009
SWIDTH 480 0
DWIDTH 15 0
BBX 13 18 1 -6
BITMAP
1FC0
3FE0
38E0
F078
F078
F078
F078
F078
F078
F8E0
FFE0
FFC0
F000
F000
F000
3800
3FE0
1FE0
ENDCHAR
STARTCHAR uni03F2
ENCODING 1010
SWIDTH 480 0
DWIDTH 15 0
BBX 13 12 1 0
BITMAP
1FE0
3FF0
3818
F000
F000
F000
F000
F000
F000
3818
3FF0
1FE0
ENDCHAR
STARTCHAR uni03F3
ENCODING 1011
SWIDTH 480 0
DWIDTH 15 0
BBX 11 23 1 -6
BITMAP
00E0
00E0
00E0
00E0
0000
07E0
07E0
00E0
00E0
00E0
00E0
00E0
00E0
00E0
00E0
00E0
00E0
F0E0
F0E0
F0E0
F0E0
7FE0
3FC0
ENDCHAR
STARTCHAR uni03F4
ENCODING 1012
SWIDTH 480 0
DWIDTH 15 0
BBX 13 20 1 0
BITMAP
0F80
1FC0
38E0
78F0
F078
F078
F078
F078
F078
FFF8
FFF8
F078
F078
F078
F078
F078
F078
38E0
3FE0
1FC0
ENDCHAR
STARTCHAR uni03F5
ENCODING 1013
SWIDTH 480 0
DWIDTH 15 0
BBX 11 12 1 0
BITMAP
1FE0
3FE0
3800
F000
FF80
FFC0
F000
F000
F000
3800
3FE0
1FE0
ENDCHAR
STARTCHAR uni03F6
ENCODING 1014
SWIDTH 480 0
DWIDTH 15 0
BBX 11 12 1 0
BITMAP
FF00
7F80
03C0
00E0
00E0
00E0
3FE0
3FE0
00E0
03C0
7F80
FF00
ENDCHAR
STARTCHAR uni03F7
ENCODING 1015
SWIDTH 480 0
DWIDTH 15 0
BBX 13 20 1 0
BITMAP
6000
F000
F000
FF00
FF00
F0E0
F0F0
F078
F078
F078
F078
F078
F078
F078
F0E0
FFE0
FF00
F000
F000
F000
ENDCHAR
STARTCHAR uni03F8
ENCODING 1016
SWIDTH 480 0
DWIDTH 15 0
BBX 13 24 1 -6
BITMAP
F000
F000
F000
F000
F000
F000
FFC0
FFE0
F8E0
F078
F078
F078
F078
F078
F078
F8E0
FFE0
FFC0
F000
F000
F000
F000
F000
F000
ENDCHAR
STARTCHAR uni03F9
ENCODING 1017
SWIDTH 480 0
DWIDTH 15 0
BBX 13 20 1 0
BITMAP
0F80
1FC0
3860
7830
F018
F000
F000
F000
F000
F000
F000
F000
F000
F000
F000
F010
F018
3860
3FE0
1FC0
ENDCHAR
STARTCHAR uni03FA
ENCODING 1018
SWIDTH 480 0
DWIDTH 15 0
BBX 13 20 1 0
BITMAP
6030
F078
F8F8
FFF8
FFF8
FFF8
FFF8
F778
F078
F078
F078
F078
F078
F078
F078
F078
F078
F078
F078
F078
ENDCHAR
STARTCHAR uni03FB
ENCODING 1019
SWIDTH 480 0
DWIDTH 15 0
BBX 13 18 1 -6
BITMAP
F078
F8F8
F8F8
F8F8
FFF8
F778
F778
F778
F078
F078
F078
F078
F000
F000
F000
F000
F000
F000
ENDCHAR
STARTCHAR uni03FC
ENCODING 1020
SWIDTH 480 0
DWIDTH 15 0
BBX 14 18 0 -6
BITMAP
0FE0
1FF0
1C70
783C
783C
783C
783C
783C
783C
7C70
7FF0
7FE0
7800
FF80
FF80
7800
7800
7800
ENDCHAR
STARTCHAR uni03FD
ENCODING 1021
SWIDTH 480 0
DWIDTH 15 0
BBX 13 20 1 0
BITMAP
0F80
1FC0
38E0
78F0
F078
0078
0078
0078
0078
0078
0078
0078
0078
0078
0078
6078
F078
38E0
3FE0
1FC0
ENDCHAR
STARTCHAR uni03FE
ENCODING 1022
SWIDTH 480 0
DWIDTH 15 0
BBX 13 20 1 0
BITMAP
0F80
1FC0
38E0
78F0
F078
F000
F000
F000
F000
F180
F3C0
F3C0
F180
F000
F000
F030
F078
38E0
3FE0
1FC0
ENDCHAR
STARTCHAR uni03FF
ENCODING 1023
SWIDTH 480 0
DWIDTH 15 0
BBX 13 20 1 0
BITMAP
0F80
1FC0
38E0
78F0
F078
0078
0078
0078
0078
0C78
1E78
1E78
0C78
0078
0078
6078
F078
38E0
3FE0
1FC0
ENDCHAR
STARTCHAR uni0400
ENCODING 1024
SWIDTH 480 0
DWIDTH 15 0
BBX 13 24 1 0
BITMAP
3E00
3F00
0700
0000
7FF0
FFF8
F000
F000
F000
F000
F000
F000
F000
FF80
FFC0
F000
F000
F000
F000
F000
F000
F000
FFF0
FFF8
ENDCHAR
STARTCHAR afii10023
ENCODING 1025
SWIDTH 480 0
DWIDTH 15 0
BBX 13 24 1 0
BITMAP
38E0
38E0
38E0
0000
7FF0
FFF8
F000
F000
F000
F000
F000
F000
F000
FF80
FFC0
F000
F000
F000
F000
F000
F000
F000
FFF0
FFF8
ENDCHAR
STARTCHAR afii10051
ENCODING 1026
SWIDTH 480 0
DWIDTH 15 0
BBX 14 23 0 -3
BITMAP
FFF0
FFF0
0F00
0F00
0F00
0F00
0FF0
0FF0
0F3C
0F3C
0F3C
0F3C
0F3C
0F3C
0F3C
0F3C
0F3C
0F3C
0F3C
0F3C
003C
0078
0070
ENDCHAR
STARTCHAR afii10052
ENCODING 1027
SWIDTH 480 0
DWIDTH 15 0
BBX 13 24 1 0
BITMAP
07C0
0F80
1E00
0000
7FF0
FFF8
F000
F000
F000
F000
F000
F000
F000
F000
F000
F000
F000
F000
F000
F000
F000
F000
F000
F000
ENDCHAR
STARTCHAR afii10053
ENCODING 1028
SWIDTH 480 0
DWIDTH 15 0
BBX 13 20 1 0
BITMAP
0F80
1FC0
38E0
78F0
F078
F000
F000
F000
F000
FFE0
FFE0
F000
F000
F000
F000
F030
F078
38E0
3FE0
1FC0
ENDCHAR
STARTCHAR afii10054
ENCODING 1029
SWIDTH 480 0
DWIDTH 15 0
BBX 13 20 1 0
BITMAP
0F80
1FC0
38E0
78F0
F078
F000
F000
F000
3800
3F80
1FC0
00E0
00F0
0078
0078
6078
F078
38E0
3FE0
1FC0
ENDCHAR
STARTCHAR afii10055
ENCODING 1030
SWIDTH 480 0
DWIDTH 15 0
BBX 13 20 1 0
BITMAP
7FF0
FFF8
0700
0700
0700
0700
0700
0700
0700
0700
0700
0700
0700
0700
0700
0700
0700
0700
7FF0
FFF8
ENDCHAR
STARTCHAR afii10056
ENCODING 1031
SWIDTH 480 0
DWIDTH 15 0
BBX 13 24 1 0
BITMAP
38E0
38E0
38E0
0000
7FF0
FFF8
0700
0700
0700
0700
0700
0700
0700
0700
0700
0700
0700
0700
0700
0700
0700
0700
7FF0
FFF8
ENDCHAR
STARTCHAR afii10057
ENCODING 1032
SWIDTH 480 0
DWIDTH 15 0
BBX 13 20 1 0
BITMAP
07F0
07F8
0078
0078
0078
0078
0078
0078
0078
0078
0078
0078
0078
0078
F078
F078
F078
38E0
3FE0
1FC0
ENDCHAR
STARTCHAR afii10058
ENCODING 1033
SWIDTH 480 0
DWIDTH 15 0
BBX 14 20 0 0
BITMAP
3F80
7F80
7B80
7B80
7B80
7B80
7B80
7B80
7BF0
7BF0
7BB0
7BBC
7BBC
7BBC
7BBC
7BBC
7BBC
7BB0
F3F0
E3F0
ENDCHAR
STARTCHAR afii10059
ENCODING 1034
SWIDTH 480 0
DWIDTH 15 0
BBX 13 20 1 0
BITMAP
6700
F700
F700
F700
F700
F700
F700
F700
F700
FFE0
FFE0
F760
F770
F778
F778
F778
F778
F760
F7E0
F7E0
ENDCHAR
STARTCHAR afii10060
ENCODING 1035
SWIDTH 480 0
DWIDTH 15 0
BBX 14 20 0 0
BITMAP
FFF0
FFF0
0F00
0F00
0F00
0F00
0F70
0F70
0FBC
0FBC
0F3C
0F3C
0F3C
0F3C
0F3C
0F3C
0F3C
0F3C
0F3C
0F3C
ENDCHAR
STARTCHAR afii10061
ENCODING 1036
SWIDTH 480 0
DWIDTH 15 0
BBX 13 24 1 0
BITMAP
00E0
01E0
03C0
0700
6730
F078
F078
F0F0
F0E0
F0E0
F1E0
F3C0
F3C0
FF80
FF00
F3C0
F3C0
F3C0
F0E0
F0E0
F0E0
F078
F078
F078
ENDCHAR
STARTCHAR uni040D
ENCODING 1037
SWIDTH 480 0
DWIDTH 15 0
BBX 13 24 1 0
BITMAP
1E00
0F00
0700
03C0
61F0
F078
F078
F078
F078
F078
F0F8
F0F8
F3F8
F7F8
F7F8
FF78
FF78
FE78
F878
F878
F078
F078
F078
F078
ENDCHAR
STARTCHAR afii10062
ENCODING 1038
SWIDTH 480 0
DWIDTH 15 0
BBX 13 24 1 0
BITMAP
38E0
3FE0
1FC0
0000
6030
F078
F078
F078
F078
F078
F078
F078
F078
7FF8
3FF8
0078
0078
0078
0078
0078
0078
F078
7FF0
3FE0
ENDCHAR
STARTCHAR afii10145
ENCODING 1039
SWIDTH 480 0
DWIDTH 15 0
BBX 13 23 1 -3
BITMAP
6030
F078
F078
F078
F078
F078
F078
F078
F078
F078
F078
F078
F078
F078
F078
F078
F078
F078
FFF8
FFF8
0700
0700
0700
ENDCHAR
STARTCHAR afii10017
ENCODING 1040
SWIDTH 480 0
DWIDTH 15 0
BBX 13 20 1 0
BITMAP
0700
0700
1FC0
3FE0
38E0
38E0
78F0
F078
F078
F078
F078
FFF8
FFF8
F078
F078
F078
F078
F078
F078
F078
ENDCHAR
STARTCHAR afii10018
ENCODING 1041
SWIDTH 480 0
DWIDTH 15 0
BBX 13 20 1 0
BITMAP
7FE0
FFE0
F000
F000
F000
F000
F000
F000
F000
FF80
FFC0
F0E0
F0F0
F078
F078
F078
F078
F0E0
FFE0
FFC0
ENDCHAR
STARTCHAR afii10019
ENCODING 1042
SWIDTH 480 0
DWIDTH 15 0
BBX 13 20 1 0
BITMAP
7F00
FF00
F3C0
F1E0
F0E0
F0E0
F0E0
F0E0
F3C0
FFC0
FFC0
F0E0
F0F0
F078
F078
F078
F078
F0E0
FFE0
FFC0
ENDCHAR
STARTCHAR afii10020
ENCODING 1043
SWIDTH 480 0
DWIDTH 15 0
BBX 13 20 1 0
BITMAP
7FF0
FFF8
F000
F000
F000
F000
F000
F000
F000
F000
F000
F000
F000
F000
F000
F000
F000
F000
F000
F000
ENDCHAR
STARTCHAR afii10021
ENCODING 1044
SWIDTH 480 0
DWIDTH 15 0
BBX 13 23 1 -3
BITMAP
07E0
07E0
1EE0
3CE0
38E0
38E0
38E0
38E0
38E0
38E0
38E0
38E0
38E0
38E0
38E0
38E0
38E0
38E0
7FF0
FFF8
F078
F078
F078
ENDCHAR
STARTCHAR afii10022
ENCODING 1045
SWIDTH 480 0
DWIDTH 15 0
BBX 13 20 1 0
BITMAP
7FF0
FFF8
F000
F000
F000
F000
F000
F000
F000
FF80
FFC0
F000
F000
F000
F000
F000
F000
F000
FFF0
FFF8
ENDCHAR
STARTCHAR afii10024
ENCODING 1046
SWIDTH 480 0
DWIDTH 15 0
BBX 13 20 1 0
BITMAP
6730
F778
F778
F778
F778
F778
F778
F778
3FE0
3FE0
1FC0
3FE0
7FF0
F778
F778
F778
F778
F778
F778
F778
ENDCHAR
STARTCHAR afii10025
ENCODING 1047
SWIDTH 480 0
DWIDTH 15 0
BBX 13 20 1 0
BITMAP
0F80
1FC0
38E0
78F0
F078
F078
6078
0078
00E0
07E0
07C0
00E0
00F0
0078
F078
F078
F078
38E0
3FE0
1FC0
ENDCHAR
STARTCHAR afii10026
ENCODING 1048
SWIDTH 480 0
DWIDTH 15 0
BBX 13 20 1 0
BITMAP
6030
F078
F078
F078
F078
F078
F0F8
F0F8
F3F8
F7F8
F7F8
FF78
FF78
FE78
F878
F878
F078
F078
F078
F078
ENDCHAR
STARTCHAR afii10027
ENCODING 1049
SWIDTH 480 0
DWIDTH 15 0
BBX 13 24 1 0
BITMAP
38E0
3FE0
1FC0
0000
6030
F078
F078
F078
F078
F078
F0F8
F0F8
F3F8
F7F8
F7F8
FF78
FF78
FE78
F878
F878
F078
F078
F078
F078
ENDCHAR
STARTCHAR afii10028
ENCODING 1050
SWIDTH 480 0
DWIDTH 15 0
BBX 13 20 1 0
BITMAP
6030
F078
F078
F0F0
F0E0
F0E0
F1E0
F3C0
F3C0
FF80
FF00
F3C0
F3C0
F3C0
F0E0
F0E0
F0E0
F078
F078
F078
ENDCHAR
STARTCHAR afii10029
ENCODING 1051
SWIDTH 480 0
DWIDTH 15 0
BBX 13 20 1 0
BITMAP
07F0
07F8
1E78
3C78
3878
3878
3878
3878
3878
3878
3878
3878
3878
3878
3878
3878
3878
F878
F878
F078
ENDCHAR
STARTCHAR afii10030
ENCODING 1052
SWIDTH 480 0
DWIDTH 15 0
BBX 13 20 1 0
BITMAP
6030
F078
F078
F8F8
F8F8
F8F8
FFF8
FFF8
F778
F778
F778
F778
F778
F778
F078
F078
F078
F078
F078
F078
ENDCHAR
STARTCHAR afii10031
ENCODING 1053
SWIDTH 480 0
DWIDTH 15 0
BBX 13 20 1 0
BITMAP
6030
F078
F078
F078
F078
F078
F078
F078
F078
FFF8
FFF8
F078
F078
F078
F078
F078
F078
F078
F078
F078
ENDCHAR
STARTCHAR afii10032
ENCODING 1054
SWIDTH 480 0
DWIDTH 15 0
BBX 13 20 1 0
BITMAP
0F80
1FC0
38E0
78F0
F078
F078
F078
F078
F078
F078
F078
F078
F078
F078
F078
F078
F078
38E0
3FE0
1FC0
ENDCHAR
STARTCHAR afii10033
ENCODING 1055
SWIDTH 480 0
DWIDTH 15 0
BBX 13 20 1 0
BITMAP
7FF0
FFF8
F078
F078
F078
F078
F078
F078
F078
F078
F078
F078
F078
F078
F078
F078
F078
F078
F078
F078
ENDCHAR
STARTCHAR afii10034
ENCODING 1056
SWIDTH 480 0
DWIDTH 15 0
BBX 13 20 1 0
BITMAP
7F80
FFC0
F0E0
F0F0
F078
F078
F078
F078
F078
F0F0
F0E0
FFC0
FF80
F000
F000
F000
F000
F000
F000
F000
ENDCHAR
STARTCHAR afii10035
ENCODING 1057
SWIDTH 480 0
DWIDTH 15 0
BBX 13 20 1 0
BITMAP
0F80
1FC0
38E0
78F0
F078
F000
F000
F000
F000
F000
F000
F000
F000
F000
F000
F030
F078
38E0
3FE0
1FC0
ENDCHAR
STARTCHAR afii10036
ENCODING 1058
SWIDTH 480 0
DWIDTH 15 0
BBX 13 20 1 0
BITMAP
7FF0
FFF8
0700
0700
0700
0700
0700
0700
0700
0700
0700
0700
0700
0700
0700
0700
0700
0700
0700
0700
ENDCHAR
STARTCHAR afii10037
ENCODING 1059
SWIDTH 480 0
DWIDTH 15 0
BBX 13 20 1 0
BITMAP
6030
F078
F078
F078
F078
F078
F078
F078
F078
7FF8
3FF8
0078
0078
0078
0078
0078
0078
F078
7FF0
3FE0
ENDCHAR
STARTCHAR afii10038
ENCODING 1060
SWIDTH 480 0
DWIDTH 15 0
BBX 13 20 1 0
BITMAP
0700
0700
3FE0
7FF0
F778
F778
F778
F778
F778
F778
F778
F778
F778
F778
F778
7FF0
3FE0
0700
0700
0700
ENDCHAR
STARTCHAR afii10039
ENCODING 1061
SWIDTH 480 0
DWIDTH 15 0
BBX 13 20 1 0
BITMAP
6030
F078
F078
78F0
38E0
38E0
3FE0
1FC0
1FC0
0F80
0700
1FC0
1FC0
1FC0
38E0
38E0
38E0
F078
F078
F078
ENDCHAR
STARTCHAR afii10040
ENCODING 1062
SWIDTH 480 0
DWIDTH 15 0
BBX 14 23 1 -3
BITMAP
6030
F078
F078
F078
F078
F078
F078
F078
F078
F078
F078
F078
F078
F078
F078
F078
F078
F078
FFFC
FFFC
001C
001C
001C
ENDCHAR
STARTCHAR afii10041
ENCODING 1063
SWIDTH 480 0
DWIDTH 15 0
BBX 13 20 1 0
BITMAP
6030
F078
F078
F078
F078
F078
F078
F078
F078
F078
F078
3FF8
3FF8
0078
0078
0078
0078
0078
0078
0078
ENDCHAR
STARTCHAR afii10042
ENCODING 1064
SWIDTH 480 0
DWIDTH 15 0
BBX 13 20 1 0
BITMAP
6730
F778
F778
F778
F778
F778
F778
F778
F778
F778
F778
F778
F778
F778
F778
F778
F778
F778
FFF8
FFF8
ENDCHAR
STARTCHAR afii10043
ENCODING 1065
SWIDTH 480 0
DWIDTH 15 0
BBX 14 23 1 -3
BITMAP
6730
F778
F778
F778
F778
F778
F778
F778
F778
F778
F778
F778
F778
F778
F778
F778
F778
F778
FFFC
FFFC
001C
001C
001C
ENDCHAR
STARTCHAR afii10044
ENCODING 1066
SWIDTH 480 0
DWIDTH 15 0
BBX 13 20 1 0
BITMAP
7C00
FE00
DE00
5E00
1E00
1E00
1E00
1E00
1FE0
1FF0
1E78
1E78
1E78
1E78
1E78
1E78
1E78
1E78
1FF0
1FE0
ENDCHAR
STARTCHAR afii10045
ENCODING 1067
SWIDTH 480 0
DWIDTH 15 0
BBX 13 20 1 0
BITMAP
6030
F078
F078
F078
F078
F078
F078
F078
FE78
FF78
F778
F778
F778
F778
F778
F778
F778
F778
FF78
FE78
ENDCHAR
STARTCHAR afii10046
ENCODING 1068
SWIDTH 480 0
DWIDTH 15 0
BBX 13 20 1 0
BITMAP
6000
F000
F000
F000
F000
F000
F000
F000
FFC0
FFE0
F0E0
F078
F078
F078
F078
F078
F078
F0E0
FFE0
FFC0
ENDCHAR
STARTCHAR afii10047
ENCODING 1069
SWIDTH 480 0
DWIDTH 15 0
BBX 13 20 1 0
BITMAP
0F80
1FC0
38E0
78F0
F078
0078
0078
0078
0078
3FF8
3FF8
0078
0078
0078
0078
6078
F078
38E0
3FE0
1FC0
ENDCHAR
STARTCHAR afii10048
ENCODING 1070
SWIDTH 480 0
DWIDTH 15 0
BBX 13 20 1 0
BITMAP
61E0
F3E0
F778
F778
F778
F778
F778
F778
F778
FF78
FF78
F778
F778
F778
F778
F778
F778
F778
F7F0
F3E0
ENDCHAR
STARTCHAR afii10049
ENCODING 1071
SWIDTH 480 0
DWIDTH 15 0
BBX 13 20 1 0
BITMAP
0FF0
1FF8
3878
7878
F078
F078
F078
F078
F078
7878
3878
1FF8
1FF8
1E78
3878
3878
3878
F078
F078
F078
ENDCHAR
STARTCHAR afii10065
ENCODING 1072
SWIDTH 480 0
DWIDTH 15 0
BBX 13 12 1 0
BITMAP
1FE0
3FF0
3878
0078
3FF8
3FF8
F078
F078
F078
F078
7FF8
3FD8
ENDCHAR
STARTCHAR afii10066
ENCODING 1073
SWIDTH 480 0
DWIDTH 15 0
BBX 13 18 1 0
BITMAP
0060
3FE0
3FC0
F000
F000
F000
3FC0
7FE0
F8E0
F078
F078
F078
F078
F078
F078
38E0
3FE0
1FC0
ENDCHAR
STARTCHAR afii10067
ENCODING 1074
SWIDTH 480 0
DWIDTH 15 0
BBX 13 12 1 0
BITMAP
FFC0
FFE0
F0E0
F0E0
FFE0
FFE0
F078
F078
F078
F078
FFF0
FFE0
ENDCHAR
STARTCHAR afii10068
ENCODING 1075
SWIDTH 480 0
DWIDTH 15 0
BBX 13 12 1 0
BITMAP
FFF8
FFF0
F000
F000
F000
F000
F000
F000
F000
F000
F000
F000
ENDCHAR
STARTCHAR afii10069
ENCODING 1076
SWIDTH 480 0
DWIDTH 15 0
BBX 13 15 1 -3
BITMAP
07E0
0FE0
1EE0
38E0
38E0
38E0
38E0
38E0
38E0
38E0
7FF0
FFF8
F078
F078
F078
ENDCHAR
STARTCHAR afii10070
ENCODING 1077
SWIDTH 480 0
DWIDTH 15 0
BBX 13 12 1 0
BITMAP
1FC0
3FE0
38E0
F078
FFF8
FFF8
F000
F000
F000
3878
3FF0
1FE0
ENDCHAR
STARTCHAR afii10072
ENCODING 1078
SWIDTH 480 0
DWIDTH 15 0
BBX 13 12 1 0
BITMAP
F778
F778
F778
F778
7FF0
3FE0
3FE0
7FF0
F778
F778
F778
F778
ENDCHAR
STARTCHAR afii10073
ENCODING 1079
SWIDTH 480 0
DWIDTH 15 0
BBX 13 12 1 0
BITMAP
3FE0
7FF0
F078
0078
0FF0
1FE0
00E0
00F0
0078
F078
7FF0
3FE0
ENDCHAR
STARTCHAR afii10074
ENCODING 1080
SWIDTH 480 0
DWIDTH 15 0
BBX 13 12 1 0
BITMAP
F078
F078
F078
F0F8
F1F8
F3F8
F778
FF78
FE78
F878
F878
F078
ENDCHAR
STARTCHAR afii10075
ENCODING 1081
SWIDTH 480 0
DWIDTH 15 0
BBX 13 17 1 0
BITMAP
38E0
38E0
1FC0
0F80
0000
F078
F078
F078
F0F8
F1F8
F3F8
F778
FF78
FE78
F878
F878
F078
ENDCHAR
STARTCHAR afii10076
ENCODING 1082
SWIDTH 480 0
DWIDTH 15 0
BBX 13 12 1 0
BITMAP
F078
F0F0
F0E0
F3C0
FF80
FF00
FF00
FF80
F3C0
F0E0
F0F0
F078
ENDCHAR
STARTCHAR afii10077
ENCODING 1083
SWIDTH 480 0
DWIDTH 15 0
BBX 13 12 1 0
BITMAP
07F8
0FF8
1E78
3878
3878
3878
3878
3878
3878
3878
7878
F078
ENDCHAR
STARTCHAR afii10078
ENCODING 1084
SWIDTH 480 0
DWIDTH 15 0
BBX 13 12 1 0
BITMAP
F078
F8F8
F8F8
FFF8
FFF8
F778
F778
F778
F778
F078
F078
F078
ENDCHAR
STARTCHAR afii10079
ENCODING 1085
SWIDTH 480 0
DWIDTH 15 0
BBX 13 12 1 0
BITMAP
F078
F078
F078
F078
FFF8
FFF8
F078
F078
F078
F078
F078
F078
ENDCHAR
STARTCHAR afii10080
ENCODING 1086
SWIDTH 480 0
DWIDTH 15 0
BBX 13 12 1 0
BITMAP
1FC0
3FE0
38E0
F078
F078
F078
F078
F078
F078
38E0
3FE0
1FC0
ENDCHAR
STARTCHAR afii10081
ENCODING 1087
SWIDTH 480 0
DWIDTH 15 0
BBX 13 12 1 0
BITMAP
FFF8
FFF8
F078
F078
F078
F078
F078
F078
F078
F078
F078
F078
ENDCHAR
STARTCHAR afii10082
ENCODING 1088
SWIDTH 480 0
DWIDTH 15 0
BBX 13 18 1 -6
BITMAP
F7C0
FFE0
F8E0
F078
F078
F078
F078
F078
F078
F8E0
FFE0
F7C0
F000
F000
F000
F000
F000
F000
ENDCHAR
STARTCHAR afii10083
ENCODING 1089
SWIDTH 480 0
DWIDTH 15 0
BBX 13 12 1 0
BITMAP
1FE0
3FF0
3878
F000
F000
F000
F000
F000
F000
3878
3FF0
1FE0
ENDCHAR
STARTCHAR afii10084
ENCODING 1090
SWIDTH 480 0
DWIDTH 15 0
BBX 13 12 1 0
BITMAP
FFF8
7FF0
0700
0700
0700
0700
0700
0700
0700
0700
0700
0700
ENDCHAR
STARTCHAR afii10085
ENCODING 1091
SWIDTH 480 0
DWIDTH 15 0
BBX 13 18 1 -6
BITMAP
F078
F078
F078
F078
F078
F078
F078
F078
F078
38F8
3FF8
1F78
0078
6078
F078
38E0
3FE0
1FC0
ENDCHAR
STARTCHAR afii10086
ENCODING 1092
SWIDTH 480 0
DWIDTH 15 0
BBX 13 21 1 -6
BITMAP
0700
0700
0700
3FE0
7FF0
F778
F778
F778
F778
F778
F778
F778
F778
7FF0
3FE0
0700
0700
0700
0700
0700
0700
ENDCHAR
STARTCHAR afii10087
ENCODING 1093
SWIDTH 480 0
DWIDTH 15 0
BBX 13 12 1 0
BITMAP
F078
78F0
38E0
1FC0
0F80
0700
0700
0F80
1FC0
38E0
78F0
F078
ENDCHAR
STARTCHAR afii10088
ENCODING 1094
SWIDTH 480 0
DWIDTH 15 0
BBX 13 15 1 -3
BITMAP
F0E0
F0E0
F0E0
F0E0
F0E0
F0E0
F0E0
F0E0
F0E0
F0E0
FFF0
FFF8
0078
0078
0078
ENDCHAR
STARTCHAR afii10089
ENCODING 1095
SWIDTH 480 0
DWIDTH 15 0
BBX 13 12 1 0
BITMAP
F078
F078
F078
F078
F078
F078
3FF8
3FF8
0078
0078
0078
0078
ENDCHAR
STARTCHAR afii10090
ENCODING 1096
SWIDTH 480 0
DWIDTH 15 0
BBX 13 12 1 0
BITMAP
F778
F778
F778
F778
F778
F778
F778
F778
F778
F778
FFF8
FFF8
ENDCHAR
STARTCHAR afii10091
ENCODING 1097
SWIDTH 480 0
DWIDTH 15 0
BBX 14 15 1 -3
BITMAP
F778
F778
F778
F778
F778
F778
F778
F778
F778
F778
FFFC
FFFC
001C
001C
001C
ENDCHAR
STARTCHAR afii10092
ENCODING 1098
SWIDTH 480 0
DWIDTH 15 0
BBX 13 12 1 0
BITMAP
F800
F800
F800
FFE0
7FF0
3878
3878
3878
3878
3878
3FF0
3FE0
ENDCHAR
STARTCHAR afii10093
ENCODING 1099
SWIDTH 480 0
DWIDTH 15 0
BBX 13 12 1 0
BITMAP
F078
F078
F078
FE78
FF78
F778
F778
F778
F778
F778
FF78
FE78
ENDCHAR
STARTCHAR afii10094
ENCODING 1100
SWIDTH 480 0
DWIDTH 15 0
BBX 13 12 1 0
BITMAP
F000
F000
F000
F000
FFE0
FFE0
F078
F078
F078
F078
FFF0
FFE0
ENDCHAR
STARTCHAR afii10095
ENCODING 1101
SWIDTH 480 0
DWIDTH 15 0
BBX 13 12 1 0
BITMAP
3FE0
7FF0
F078
0078
0078
0078
07F8
07F8
0078
F078
7FF0
3FE0
ENDCHAR
STARTCHAR afii10096
ENCODING 1102
SWIDTH 480 0
DWIDTH 15 0
BBX 13 12 1 0
BITMAP
F3E0
F7F0
F778
F778
FF78
FF78
F778
F778
F778
F778
F7F0
F3E0
ENDCHAR
STARTCHAR afii10097
ENCODING 1103
SWIDTH 480 0
DWIDTH 15 0
BBX 13 12 1 0
BITMAP
3FF8
7FF8
F078
F078
F078
F078
3FF8
3FF8
1E78
3878
7878
F078
ENDCHAR
STARTCHAR uni0450
ENCODING 1104
SWIDTH 480 0
DWIDTH 15 0
BBX 13 18 1 0
BITMAP
1E00
0F00
0700
03C0
0180
0000
1FC0
3FE0
38E0
F078
FFF8
FFF8
F000
F000
F000
3878
3FF0
1FE0
ENDCHAR
STARTCHAR afii10071
ENCODING 1105
SWIDTH 480 0
DWIDTH 15 0
BBX 13 17 1 0
BITMAP
38E0
38E0
38E0
38E0
0000
1FC0
3FE0
38E0
F078
FFF8
FFF8
F000
F000
F000
3878
3FF0
1FE0
ENDCHAR
STARTCHAR afii10099
ENCODING 1106
SWIDTH 480 0
DWIDTH 15 0
BBX 13 26 1 -6
BITMAP
3800
3800
3800
7F80
FFC0
3800
3800
3800
3BC0
3FE0
3EE0
3878
3878
3878
3878
3878
3878
3878
3878
3878
0078
0078
0078
00E0
01E0
03C0
ENDCHAR
STARTCHAR afii10100
ENCODING 1107
SWIDTH 480 0
DWIDTH 15 0
BBX 13 18 1 0
BITMAP
03C0
0780
0700
1E00
0C00
0000
FFF8
FFF0
F000
F000
F000
F000
F000
F000
F000
F000
F000
F000
ENDCHAR
STARTCHAR afii10101
ENCODING 1108
SWIDTH 480 0
DWIDTH 15 0
BBX 13 12 1 0
BITMAP
3FE0
7FF0
F078
F000
FF00
FF00
F000
F000
F000
F078
7FF0
3FE0
ENDCHAR
STARTCHAR afii10102
ENCODING 1109
SWIDTH 480 0
DWIDTH 15 0
BBX 13 12 1 0
BITMAP
3FE0
7FF0
F078
F000
7FE0
3FE0
0078
0078
0078
F078
7FF0
3FE0
ENDCHAR
STARTCHAR afii10103
ENCODING 1110
SWIDTH 480 0
DWIDTH 15 0
BBX 13 17 1 0
BITMAP
0700
0700
0700
0700
0000
3F00
3F00
0700
0700
0700
0700
0700
0700
0700
0700
7FF0
FFF8
ENDCHAR
STARTCHAR afii10104
ENCODING 1111
SWIDTH 480 0
DWIDTH 15 0
BBX 13 18 1 0
BITMAP
38E0
38E0
38E0
0000
3F00
3F00
0700
0700
0700
0700
0700
0700
0700
0700
0700
0700
7FF0
FFF8
ENDCHAR
STARTCHAR afii10105
ENCODING 1112
SWIDTH 480 0
DWIDTH 15 0
BBX 11 23 3 -6
BITMAP
00C0
01E0
01E0
00C0
0000
0FE0
07E0
01E0
01E0
01E0
01E0
01E0
01E0
01E0
01E0
01E0
01E0
E1E0
E1E0
E1E0
E1E0
FFC0
7F80
ENDCHAR
STARTCHAR afii10106
ENCODING 1113
SWIDTH 480 0
DWIDTH 15 0
BBX 14 12 0 0
BITMAP
7F80
7F80
7B80
7B80
7BF0
7BF0
7BBC
7BBC
7BBC
7BBC
F3F8
E3F0
ENDCHAR
STARTCHAR afii10107
ENCODING 1114
SWIDTH 480 0
DWIDTH 15 0
BBX 13 12 1 0
BITMAP
F700
F700
F700
F700
FFE0
FFE0
F778
F778
F778
F778
F7F0
F7E0
ENDCHAR
STARTCHAR afii10108
ENCODING 1115
SWIDTH 480 0
DWIDTH 15 0
BBX 14 20 0 0
BITMAP
3000
7800
7800
7800
7800
FF00
FE00
7800
7BE0
7FF0
7C70
783C
783C
783C
783C
783C
783C
783C
783C
783C
ENDCHAR
STARTCHAR afii10109
ENCODING 1116
SWIDTH 480 0
DWIDTH 15 0
BBX 13 18 1 0
BITMAP
03C0
0780
0700
1E00
0C00
0000
F0F8
F1F0
F3C0
F3C0
FF80
FF00
FF00
FF80
F3C0
F0E0
F0F0
F078
ENDCHAR
STARTCHAR uni045D
ENCODING 1117
SWIDTH 480 0
DWIDTH 15 0
BBX 13 18 1 0
BITMAP
1E00
0F00
0700
03C0
0180
0000
F078
F078
F078
F0F8
F1F8
F3F8
F778
FF78
FE78
F878
F878
F078
ENDCHAR
STARTCHAR afii10110
ENCODING 1118
SWIDTH 480 0
DWIDTH 15 0
BBX 13 23 1 -6
BITMAP
38E0
38E0
1FC0
0F80
0000
F078
F078
F078
F078
F078
F078
F078
F078
F078
38F8
3FF8
1F78
0078
6078
F078
38E0
3FE0
1FC0
ENDCHAR
STARTCHAR afii10193
ENCODING 1119
SWIDTH 480 0
DWIDTH 15 0
BBX 13 15 1 -3
BITMAP
F078
F078
F078
F078
F078
F078
F078
F078
F078
F078
FFF8
FFF8
0700
0700
0700
ENDCHAR
STARTCHAR uni0460
ENCODING 1120
SWIDTH 480 0
DWIDTH 15 0
BBX 13 20 1 0
BITMAP
38E0
38E0
F078
F078
F078
F078
F078
F078
F778
F778
F778
F778
F778
F778
F778
F778
F778
F778
7FF0
38E0
ENDCHAR
STARTCHAR uni0461
ENCODING 1121
SWIDTH 480 0
DWIDTH 15 0
BBX 13 12 1 0
BITMAP
F078
F078
F078
F078
F778
F778
F778
F778
F778
FFF8
7FF0
38E0
ENDCHAR
STARTCHAR afii10146
ENCODING 1122
SWIDTH 480 0
DWIDTH 15 0
BBX 13 21 1 0
BITMAP
3800
3800
3800
FF00
FF00
FB00
3800
3800
3800
3FC0
3FE0
38E0
3878
3878
3878
3878
3878
3878
38E0
3FE0
3FC0
ENDCHAR
STARTCHAR afii10194
ENCODING 1123
SWIDTH 480 0
DWIDTH 15 0
BBX 13 17 1 0
BITMAP
2000
3000
3800
3800
3800
FFC0
7F80
3800
3FE0
3FF0
3878
3878
3878
3878
3878
3FF0
3FE0
ENDCHAR
STARTCHAR uni0464
ENCODING 1124
SWIDTH 480 0
DWIDTH 15 0
BBX 13 20 1 0
BITMAP
61E0
F3E0
F778
F778
F778
F700
F700
F700
F700
FFE0
FFE0
F700
F700
F700
F700
F730
F778
F778
F7F0
F3E0
ENDCHAR
STARTCHAR uni0465
ENCODING 1125
SWIDTH 480 0
DWIDTH 15 0
BBX 13 12 1 0
BITMAP
F3E0
F7F0
F778
F700
FFE0
FFE0
F700
F700
F700
F778
F7F0
F3E0
ENDCHAR
STARTCHAR uni0466
ENCODING 1126
SWIDTH 480 0
DWIDTH 15 0
BBX 13 20 1 0
BITMAP
0700
0700
1FC0
3FE0
38E0
38E0
78F0
F078
F078
F8F8
F8F8
FFF8
FFF8
F778
F778
F778
F778
F778
F778
F778
ENDCHAR
STARTCHAR uni0467
ENCODING 1127
SWIDTH 480 0
DWIDTH 15 0
BBX 13 12 1 0
BITMAP
0700
0F80
1FC0
38E0
78F0
F8F8
FFF8
FFF8
F778
F778
F778
F778
ENDCHAR
STARTCHAR uni0468
ENCODING 1128
SWIDTH 480 0
DWIDTH 15 0
BBX 11 20 1 0
BITMAP
4100
C300
C7C0
C7C0
C6C0
DEE0
DCE0
D860
D860
FFE0
FFE0
DB60
DB60
DB60
DB60
DB60
DB60
DB60
DB60
DB60
ENDCHAR
STARTCHAR uni0469
ENCODING 1129
SWIDTH 480 0
DWIDTH 15 0
BBX 11 11 1 1
BITMAP
C300
C780
C7C0
C6C0
FFE0
FFE0
DB60
DB60
DB60
DB60
4920
ENDCHAR
STARTCHAR uni046A
ENCODING 1130
SWIDTH 480 0
DWIDTH 15 0
BBX 13 20 1 0
BITMAP
7FF0
FFF8
F078
F078
F078
38E0
3FE0
1FC0
0700
0F80
1FC0
3FE0
7FF0
F778
F778
F778
F778
F778
F778
F778
ENDCHAR
STARTCHAR uni046B
ENCODING 1131
SWIDTH 480 0
DWIDTH 15 0
BBX 13 12 1 0
BITMAP
FFF8
7FF0
38E0
1FC0
0F80
0700
1FC0
3FE0
3FE0
F778
F778
F778
ENDCHAR
STARTCHAR uni046C
ENCODING 1132
SWIDTH 480 0
DWIDTH 15 0
BBX 11 20 1 0
BITMAP
4FE0
DFE0
D860
D860
D860
DEE0
CFE0
C7C0
FF00
FF80
C7C0
DFE0
DFE0
DB60
DB60
DB60
DB60
DB60
DB60
DB60
ENDCHAR
STARTCHAR uni046D
ENCODING 1133
SWIDTH 480 0
DWIDTH 15 0
BBX 11 11 1 1
BITMAP
DFE0
DFE0
D860
C6C0
FF80
FF00
C7C0
CFE0
DB60
DB60
4920
ENDCHAR
STARTCHAR uni046E
ENCODING 1134
SWIDTH 480 0
DWIDTH 15 0
BBX 13 27 1 -3
BITMAP
38E0
3FE0
1FC0
0700
0700
0000
1FC0
3FE0
38E0
F078
F078
F078
00E0
07E0
07C0
00E0
00F0
0078
0078
0078
0078
00E0
3FE0
3FC0
F000
F000
F000
ENDCHAR
STARTCHAR uni046F
ENCODING 1135
SWIDTH 480 0
DWIDTH 15 0
BBX 13 21 1 -3
BITMAP
38E0
3FE0
1FC0
0700
0700
0000
3FE0
7FF0
F078
F078
60F0
00E0
0078
0078
0078
0078
3FF0
3FE0
F000
F000
F000
ENDCHAR
STARTCHAR uni0470
ENCODING 1136
SWIDTH 480 0
DWIDTH 15 0
BBX 13 20 1 0
BITMAP
6730
F778
F778
F778
F778
F778
F778
F778
F778
7FF0
3FE0
1FC0
0F80
0700
0700
0700
0700
0700
0700
0700
ENDCHAR
STARTCHAR uni0471
ENCODING 1137
SWIDTH 480 0
DWIDTH 15 0
BBX 13 18 1 -3
BITMAP
0700
0700
0700
F778
F778
F778
F778
F778
F778
F778
F778
F778
3FE0
3FE0
1FC0
0700
0700
0700
ENDCHAR
STARTCHAR afii10147
ENCODING 1138
SWIDTH 480 0
DWIDTH 15 0
BBX 13 20 1 0
BITMAP
0F80
1FC0
38E0
78F0
F078
F078
F078
F078
F078
FFF8
FFF8
F078
F078
F078
F078
F078
F078
38E0
3FE0
1FC0
ENDCHAR
STARTCHAR afii10195
ENCODING 1139
SWIDTH 480 0
DWIDTH 15 0
BBX 13 12 1 0
BITMAP
1FC0
3FE0
38E0
F078
FFF8
FFF8
F078
F078
F078
38E0
3FE0
1FC0
ENDCHAR
STARTCHAR afii10148
ENCODING 1140
SWIDTH 480 0
DWIDTH 15 0
BBX 13 20 1 0
BITMAP
6030
F078
F0E0
F0E0
F0E0
F3C0
F3C0
F3C0
F3C0
F3C0
F3C0
3F00
3F00
3F00
3F00
3F00
1E00
1E00
1E00
1E00
ENDCHAR
STARTCHAR afii10196
ENCODING 1141
SWIDTH 480 0
DWIDTH 15 0
BBX 13 12 1 0
BITMAP
F078
F0F0
F0E0
F3C0
F3C0
F3C0
3F00
3F00
3F00
1E00
1E00
1E00
ENDCHAR
STARTCHAR uni0476
ENCODING 1142
SWIDTH 480 0
DWIDTH 15 0
BBX 13 23 1 0
BITMAP
6180
F3C0
38E0
38E0
0000
F078
F0F0
F0E0
F0E0
F1E0
F3C0
F3C0
F3C0
F3C0
F3C0
7F80
3F00
3F00
3F00
3F00
1E00
1E00
1E00
ENDCHAR
STARTCHAR uni0477
ENCODING 1143
SWIDTH 480 0
DWIDTH 15 0
BBX 13 17 1 0
BITMAP
6180
F3C0
38E0
38E0
0000
F078
F0F0
F0E0
F3C0
F3C0
F3C0
3F00
3F00
3F00
1E00
1E00
1E00
ENDCHAR
STARTCHAR uni0478
ENCODING 1144
SWIDTH 480 0
DWIDTH 15 0
BBX 15 25 0 -5
BITMAP
3C00
7C00
EF00
EF00
EF00
EF00
EF00
EF00
EFEE
EFEE
EFEE
EFEE
EFEE
EF6E
EF7E
EF7E
EF3E
EF3C
FE3C
7C3C
0070
00F0
01E0
01E0
00C0
ENDCHAR
STARTCHAR uni0479
ENCODING 1145
SWIDTH 480 0
DWIDTH 15 0
BBX 15 17 0 -5
BITMAP
7DEE
FFEE
EFEE
EFEE
EFEE
EF6E
EF7E
EF7E
EF3E
EF3C
FE3C
7C3C
0070
00F0
01E0
01E0
00C0
ENDCHAR
STARTCHAR uni047A
ENCODING 1146
SWIDTH 480 0
DWIDTH 15 0
BBX 13 23 1 -2
BITMAP
0700
0F80
1FC0
3FE0
7FF0
F778
F078
F078
F078
F078
F078
F078
F078
F078
F078
F078
F778
F778
3FE0
3FE0
1FC0
0700
0700
ENDCHAR
STARTCHAR uni047B
ENCODING 1147
SWIDTH 480 0
DWIDTH 15 0
BBX 13 16 1 -2
BITMAP
0700
0700
1FC0
3FE0
3FE0
F778
F778
F078
F078
F778
F778
3FE0
3FE0
1FC0
0700
0700
ENDCHAR
STARTCHAR uni047C
ENCODING 1148
SWIDTH 480 0
DWIDTH 15 0
BBX 13 23 1 0
BITMAP
3FE0
3FE0
F078
6030
0000
38E0
78F0
F078
F078
F078
F078
F778
F778
F778
F778
F778
F778
F778
F778
F778
F778
7FF0
38E0
ENDCHAR
STARTCHAR uni047D
ENCODING 1149
SWIDTH 480 0
DWIDTH 15 0
BBX 13 17 1 0
BITMAP
3FE0
3FE0
F078
6030
0000
F078
F778
F778
F778
F778
F778
F778
F778
F778
FFF8
7FF0
38E0
ENDCHAR
STARTCHAR uni047E
ENCODING 1150
SWIDTH 480 0
DWIDTH 15 0
BBX 13 23 1 0
BITMAP
7FF0
FFF8
C718
4710
0000
38E0
78F0
F078
F078
F078
F078
F778
F778
F778
F778
F778
F778
F778
F778
F778
F778
7FF0
38E0
ENDCHAR
STARTCHAR uni047F
ENCODING 1151
SWIDTH 480 0
DWIDTH 15 0
BBX 13 17 1 0
BITMAP
7FF0
FFF8
C718
4710
0000
F078
F778
F778
F778
F778
F778
F778
F778
F778
FFF8
7FF0
38E0
ENDCHAR
STARTCHAR uni0480
ENCODING 1152
SWIDTH 480 0
DWIDTH 15 0
BBX 13 23 1 -3
BITMAP
0F80
1FC0
38E0
78F0
F078
F000
F000
F000
F000
F000
F000
F000
F000
F000
F000
F000
F000
3800
3F80
1FC0
00E0
00E0
00E0
ENDCHAR
STARTCHAR uni0481
ENCODING 1153
SWIDTH 480 0
DWIDTH 15 0
BBX 13 15 1 -3
BITMAP
1FE0
3FF0
3878
F000
F000
F000
F000
F000
F000
3800
3F00
1F00
03C0
03C0
03C0
ENDCHAR
STARTCHAR uni0482
ENCODING 1154
SWIDTH 480 0
DWIDTH 15 0
BBX 13 18 1 0
BITMAP
0078
00F0
00E0
1EE0
0FE0
07C0
03E0
07F0
0778
F700
7F00
3E00
1F00
3F80
3BC0
3800
7800
F000
ENDCHAR
STARTCHAR uni0483
ENCODING 1155
SWIDTH 480 0
DWIDTH 15 0
BBX 10 5 1 19
BITMAP
03C0
7FC0
FFC0
F000
6000
ENDCHAR
STARTCHAR uni0484
ENCODING 1156
SWIDTH 480 0
DWIDTH 15 0
BBX 11 5 0 19
BITMAP
1F80
3FC0
79E0
E1E0
E0C0
ENDCHAR
STARTCHAR uni0485
ENCODING 1157
SWIDTH 480 0
DWIDTH 15 0
BBX 8 5 1 19
BITMAP
F0
FF
FF
F0
60
ENDCHAR
STARTCHAR uni0486
ENCODING 1158
SWIDTH 480 0
DWIDTH 15 0
BBX 8 5 1 19
BITMAP
07
7F
FF
07
07
ENDCHAR
STARTCHAR uni0487
ENCODING 1159
SWIDTH 480 0
DWIDTH 15 0
BBX 13 5 1 19
BITMAP
3E00
7F80
F7C0
F0F8
60F0
ENDCHAR
STARTCHAR uni0488
ENCODING 1160
SWIDTH 480 0
DWIDTH 15 0
BBX 15 30 0 -6
BITMAP
0180
23C0
6360
D80C
901E
0036
0000
0000
0000
0000
0000
0000
0000
0000
0000
0000
0000
0000
0000
0000
0000
0000
0000
0000
6000
F008
D80C
0336
0792
0D80
ENDCHAR
STARTCHAR uni0489
ENCODING 1161
SWIDTH 480 0
DWIDTH 15 0
BBX 15 30 0 -6
BITMAP
0180
2382
6306
C38C
E38E
E00E
0000
0000
0000
0000
0000
0000
0000
0000
0000
0000
0000
0000
0000
0000
0000
0000
0000
0000
E00E
E38E
6386
C18C
8388
0300
ENDCHAR
STARTCHAR uni048A
ENCODING 1162
SWIDTH 480 0
DWIDTH 15 0
BBX 14 29 1 -5
BITMAP
38E0
3FE0
1FC0
0000
6030
F078
F078
F078
F078
F078
F0F8
F0F8
F3F8
F7F8
F7F8
FF78
FF78
FE78
F878
F878
F078
F078
F07C
F07C
001C
003C
0078
00E0
00E0
ENDCHAR
STARTCHAR uni048B
ENCODING 1163
SWIDTH 480 0
DWIDTH 15 0
BBX 14 22 1 -5
BITMAP
38E0
38E0
1FC0
0F80
0000
F078
F078
F078
F0F8
F1F8
F3F8
F778
FF78
FE78
F878
F87C
F07C
001C
003C
0078
00E0
00E0
ENDCHAR
STARTCHAR uni048C
ENCODING 1164
SWIDTH 480 0
DWIDTH 15 0
BBX 14 20 0 0
BITMAP
3000
7800
7800
FC00
FC00
7800
7800
7800
7FE0
7FF0
7870
783C
783C
783C
783C
783C
783C
7870
7FF0
7FE0
ENDCHAR
STARTCHAR uni048D
ENCODING 1165
SWIDTH 480 0
DWIDTH 15 0
BBX 14 12 0 0
BITMAP
7800
FC00
FC00
7800
7FF0
7FF0
783C
783C
783C
783C
7FF8
7FF0
ENDCHAR
STARTCHAR uni048E
ENCODING 1166
SWIDTH 480 0
DWIDTH 15 0
BBX 13 20 1 0
BITMAP
7F80
FFC0
F0E0
F0F0
F078
F078
F078
F078
F778
F7F0
F3E0
FFE0
FFF0
F078
F000
F000
F000
F000
F000
F000
ENDCHAR
STARTCHAR uni048F
ENCODING 1167
SWIDTH 480 0
DWIDTH 15 0
BBX 13 18 1 -6
BITMAP
F7C0
FFE0
F8E0
F078
F078
F078
F078
F778
F778
FBE0
FFE0
F7E0
F078
F030
F000
F000
F000
F000
ENDCHAR
STARTCHAR afii10050
ENCODING 1168
SWIDTH 480 0
DWIDTH 15 0
BBX 13 21 1 0
BITMAP
0078
0078
0078
FFF8
FFF0
F000
F000
F000
F000
F000
F000
F000
F000
F000
F000
F000
F000
F000
F000
F000
F000
ENDCHAR
STARTCHAR afii10098
ENCODING 1169
SWIDTH 480 0
DWIDTH 15 0
BBX 13 15 1 0
BITMAP
0078
0078
0078
FFF8
FFF0
F000
F000
F000
F000
F000
F000
F000
F000
F000
F000
ENDCHAR
STARTCHAR uni0492
ENCODING 1170
SWIDTH 480 0
DWIDTH 15 0
BBX 13 20 1 0
BITMAP
0FF0
1FF8
1E00
1E00
1E00
1E00
1E00
1E00
1E00
7F80
FFC0
1E00
1E00
1E00
1E00
1E00
1E00
1E00
1E00
1E00
ENDCHAR
STARTCHAR uni0493
ENCODING 1171
SWIDTH 480 0
DWIDTH 15 0
BBX 13 12 1 0
BITMAP
1FF8
1FF0
1E00
1E00
1E00
1E00
FFE0
7FE0
1E00
1E00
1E00
1E00
ENDCHAR
STARTCHAR uni0494
ENCODING 1172
SWIDTH 480 0
DWIDTH 15 0
BBX 13 23 1 -3
BITMAP
7FF0
FFF8
F000
F000
F000
F000
F000
F000
F000
FF80
FFC0
F0E0
F0F0
F078
F078
F078
F078
F078
F078
F078
0078
00F0
00E0
ENDCHAR
STARTCHAR uni0495
ENCODING 1173
SWIDTH 480 0
DWIDTH 15 0
BBX 13 15 1 -3
BITMAP
FFF8
FFF0
F000
F000
F000
F000
FFC0
FFE0
F0E0
F0E0
F0E0
F0E0
00E0
01E0
03C0
ENDCHAR
STARTCHAR uni0496
ENCODING 1174
SWIDTH 480 0
DWIDTH 15 0
BBX 14 23 1 -3
BITMAP
6730
F778
F778
F778
F778
F778
F778
F778
3FE0
3FE0
1FC0
3FE0
7FF0
F778
F778
F778
F778
F778
F77C
F77C
001C
001C
001C
ENDCHAR
STARTCHAR uni0497
ENCODING 1175
SWIDTH 480 0
DWIDTH 15 0
BBX 14 15 1 -3
BITMAP
F778
F778
F778
F778
7FF0
3FE0
3FE0
7FF0
F778
F778
F77C
F77C
001C
001C
001C
ENDCHAR
STARTCHAR uni0498
ENCODING 1176
SWIDTH 480 0
DWIDTH 15 0
BBX 13 25 1 -5
BITMAP
0F80
1FC0
38E0
78F0
F078
F078
6078
0078
00E0
07E0
07C0
00E0
00F0
0078
F078
F078
F078
38E0
3FE0
1FC0
0700
0700
0700
1E00
0C00
ENDCHAR
STARTCHAR uni0499
ENCODING 1177
SWIDTH 480 0
DWIDTH 15 0
BBX 13 17 1 -5
BITMAP
3FE0
7FF0
F078
0078
0FF0
1FE0
0078
0078
0078
F078
7FF0
3FE0
0700
0700
0700
1E00
0C00
ENDCHAR
STARTCHAR uni049A
ENCODING 1178
SWIDTH 480 0
DWIDTH 15 0
BBX 14 23 1 -3
BITMAP
6010
F018
F078
F0F0
F0E0
F0E0
F1E0
F3C0
F3C0
FF80
FF00
F3C0
F3C0
F3C0
F0E0
F0E0
F0E0
F07C
F07C
F07C
001C
001C
001C
ENDCHAR
STARTCHAR uni049B
ENCODING 1179
SWIDTH 480 0
DWIDTH 15 0
BBX 14 15 1 -3
BITMAP
F060
F0E0
F0E0
F3C0
FF80
FF00
FF00
FF80
F3C0
F0E0
F0FC
F07C
001C
001C
001C
ENDCHAR
STARTCHAR uni049C
ENCODING 1180
SWIDTH 480 0
DWIDTH 15 0
BBX 13 20 1 0
BITMAP
6030
F078
F0E0
F0E0
F0E0
F6E0
F6E0
F6E0
F6E0
FFE0
FFC0
F6E0
F6E0
F6E0
F6E0
F4E0
F0E0
F078
F078
F078
ENDCHAR
STARTCHAR uni049D
ENCODING 1181
SWIDTH 480 0
DWIDTH 15 0
BBX 13 12 1 0
BITMAP
F078
F478
F678
F6E0
FFE0
FFE0
FFE0
FFE0
F6E0
F678
F478
F078
ENDCHAR
STARTCHAR uni049E
ENCODING 1182
SWIDTH 480 0
DWIDTH 15 0
BBX 14 20 0 0
BITMAP
3008
780C
783C
FE78
FF70
7870
78F0
79E0
79E0
7FC0
7F80
79E0
79E0
79E0
7870
7870
7870
783C
783C
783C
ENDCHAR
STARTCHAR uni049F
ENCODING 1183
SWIDTH 480 0
DWIDTH 15 0
BBX 14 20 0 0
BITMAP
3000
7800
7800
7800
7800
FF00
FE00
7800
7870
78F0
79E0
7B80
7F80
7F00
7F80
7FC0
79E0
7870
7878
783C
ENDCHAR
STARTCHAR uni04A0
ENCODING 1184
SWIDTH 480 0
DWIDTH 15 0
BBX 14 20 0 0
BITMAP
F008
F80C
783C
7878
7870
7870
78F0
79E0
79E0
7FC0
7F80
79E0
79E0
79E0
7870
7870
7870
783C
783C
783C
ENDCHAR
STARTCHAR uni04A1
ENCODING 1185
SWIDTH 480 0
DWIDTH 15 0
BBX 14 12 0 0
BITMAP
F83C
F878
7870
79E0
7FC0
7F80
7F80
7FC0
79E0
7870
7878
783C
ENDCHAR
STARTCHAR uni04A2
ENCODING 1186
SWIDTH 480 0
DWIDTH 15 0
BBX 14 23 1 -3
BITMAP
6030
F078
F078
F078
F078
F078
F078
F078
F078
FFF8
FFF8
F078
F078
F078
F078
F078
F078
F078
F07C
F07C
001C
001C
001C
ENDCHAR
STARTCHAR uni04A3
ENCODING 1187
SWIDTH 480 0
DWIDTH 15 0
BBX 14 15 1 -3
BITMAP
F078
F078
F078
F078
FFF8
FFF8
F078
F078
F078
F078
F07C
F07C
001C
001C
001C
ENDCHAR
STARTCHAR uni04A4
ENCODING 1188
SWIDTH 480 0
DWIDTH 15 0
BBX 15 20 0 0
BITMAP
E3FE
E3FE
E380
E380
E380
E380
E380
E380
E380
FF80
FF80
E380
E380
E380
E380
E380
E380
E380
E380
E380
ENDCHAR
STARTCHAR uni04A5
ENCODING 1189
SWIDTH 480 0
DWIDTH 15 0
BBX 13 12 1 0
BITMAP
F7F8
F7F0
F700
F700
FF00
FF00
F700
F700
F700
F700
F700
F700
ENDCHAR
STARTCHAR uni04A6
ENCODING 1190
SWIDTH 480 0
DWIDTH 15 0
BBX 14 23 0 -3
BITMAP
FF80
FF80
E380
E380
E380
E380
E380
E380
E380
E3F0
E3F0
E3BC
E3BC
E3BC
E3BC
E3BC
E3BC
E3BC
E3BC
E3BC
003C
0078
0070
ENDCHAR
STARTCHAR uni04A7
ENCODING 1191
SWIDTH 480 0
DWIDTH 15 0
BBX 13 15 1 -3
BITMAP
FF00
FF00
F700
F700
F7E0
F7E0
F778
F778
F778
F778
F778
F778
0078
00F0
00E0
ENDCHAR
STARTCHAR uni04A8
ENCODING 1192
SWIDTH 480 0
DWIDTH 15 0
BBX 14 22 0 -2
BITMAP
1F80
1F80
7800
F000
E000
E000
E000
E000
E000
E0C0
E1E0
E3F0
E7F8
EF3C
EF3C
E7F8
E3F0
79E0
3FF0
1FF0
003C
0018
ENDCHAR
STARTCHAR uni04A9
ENCODING 1193
SWIDTH 480 0
DWIDTH 15 0
BBX 13 15 1 -3
BITMAP
1FC0
3F80
3800
F000
F1E0
F3E0
F778
F778
F778
3F78
3FF0
1FE0
03C0
01F0
00F8
ENDCHAR
STARTCHAR uni04AA
ENCODING 1194
SWIDTH 480 0
DWIDTH 15 0
BBX 13 25 1 -5
BITMAP
0F80
1FC0
38E0
78F0
F078
F000
F000
F000
F000
F000
F000
F000
F000
F000
F000
F030
F078
38E0
3FE0
1FC0
0700
0700
0700
03C0
0180
ENDCHAR
STARTCHAR uni04AB
ENCODING 1195
SWIDTH 480 0
DWIDTH 15 0
BBX 13 17 1 -5
BITMAP
1FE0
3FF0
3878
F000
F000
F000
F000
F000
F000
3878
3FF0
1FE0
0700
0700
0700
03C0
0180
ENDCHAR
STARTCHAR uni04AC
ENCODING 1196
SWIDTH 480 0
DWIDTH 15 0
BBX 13 23 1 -3
BITMAP
7FF0
FFF8
0700
0700
0700
0700
0700
0700
0700
0700
0700
0700
0700
0700
0700
0700
0700
0700
0780
07C0
03C0
03C0
03C0
ENDCHAR
STARTCHAR uni04AD
ENCODING 1197
SWIDTH 480 0
DWIDTH 15 0
BBX 13 15 1 -3
BITMAP
FFF8
7FF0
0700
0700
0700
0700
0700
0700
0700
0700
0780
07C0
03C0
03C0
03C0
ENDCHAR
STARTCHAR uni04AE
ENCODING 1198
SWIDTH 480 0
DWIDTH 15 0
BBX 13 20 1 0
BITMAP
6030
F078
F078
78F0
38E0
38E0
3FE0
1FC0
1FC0
0F80
0700
0700
0700
0700
0700
0700
0700
0700
0700
0700
ENDCHAR
STARTCHAR uni04AF
ENCODING 1199
SWIDTH 480 0
DWIDTH 15 0
BBX 13 17 1 -5
BITMAP
F078
F078
F078
38E0
3FE0
1FC0
0700
0700
0700
0700
0700
0700
0700
0700
0700
0700
0700
ENDCHAR
STARTCHAR uni04B0
ENCODING 1200
SWIDTH 480 0
DWIDTH 15 0
BBX 13 20 1 0
BITMAP
6030
F078
F078
78F0
38E0
38E0
3FE0
1FC0
1FC0
0F80
0700
3FE0
3FE0
0700
0700
0700
0700
0700
0700
0700
ENDCHAR
STARTCHAR uni04B1
ENCODING 1201
SWIDTH 480 0
DWIDTH 15 0
BBX 13 17 1 -5
BITMAP
F078
F078
F078
38E0
3FE0
1FC0
0700
0700
0700
0700
3FE0
3FE0
0700
0700
0700
0700
0700
ENDCHAR
STARTCHAR uni04B2
ENCODING 1202
SWIDTH 480 0
DWIDTH 15 0
BBX 14 23 1 -3
BITMAP
6030
F078
F078
78F0
38E0
38E0
3FE0
1FC0
1FC0
0F80
0700
1FC0
1FC0
1FC0
38E0
38E0
38E0
F07C
F07C
F07C
001C
001C
001C
ENDCHAR
STARTCHAR uni04B3
ENCODING 1203
SWIDTH 480 0
DWIDTH 15 0
BBX 14 15 1 -3
BITMAP
F078
78F0
38E0
1FC0
0F80
0700
0700
0F80
1FC0
38E0
78FC
F07C
001C
001C
001C
ENDCHAR
STARTCHAR uni04B4
ENCODING 1204
SWIDTH 480 0
DWIDTH 15 0
BBX 15 23 0 -3
BITMAP
FF98
FFBC
1C3C
1C3C
1C3C
1C3C
1C3C
1C3C
1C3C
1C3C
1C3C
1C3C
1C3C
1C3C
1C3C
1C3C
1C3C
1C3C
1FFE
1FFE
000E
000E
000E
ENDCHAR
STARTCHAR uni04B5
ENCODING 1205
SWIDTH 480 0
DWIDTH 15 0
BBX 15 15 0 -3
BITMAP
FFBC
FFBC
1C3C
1C3C
1C3C
1C3C
1C3C
1C3C
1C3C
1C3C
1FFE
1FFE
000E
000E
000E
ENDCHAR
STARTCHAR uni04B6
ENCODING 1206
SWIDTH 480 0
DWIDTH 15 0
BBX 14 23 1 -3
BITMAP
6030
F078
F078
F078
F078
F078
F078
F078
F078
F078
F078
3FF8
3FF8
0078
0078
0078
0078
007C
007C
007C
001C
001C
001C
ENDCHAR
STARTCHAR uni04B7
ENCODING 1207
SWIDTH 480 0
DWIDTH 15 0
BBX 14 15 1 -3
BITMAP
F078
F078
F078
F078
F078
F078
3FF8
3FF8
0078
0078
007C
007C
001C
001C
001C
ENDCHAR
STARTCHAR uni04B8
ENCODING 1208
SWIDTH 480 0
DWIDTH 15 0
BBX 13 20 1 0
BITMAP
6030
F078
F078
F078
F078
F078
F078
F078
F678
F678
F678
3FF8
3FF8
0678
0678
0478
0078
0078
0078
0078
ENDCHAR
STARTCHAR uni04B9
ENCODING 1209
SWIDTH 480 0
DWIDTH 15 0
BBX 13 12 1 0
BITMAP
F078
F078
F078
F678
F678
F678
3FF8
3FF8
0678
0678
0478
0078
ENDCHAR
STARTCHAR uni04BA
ENCODING 1210
SWIDTH 480 0
DWIDTH 15 0
BBX 13 20 1 0
BITMAP
6000
F000
F000
F000
F000
F000
F000
F000
FFE0
FFF0
F078
F078
F078
F078
F078
F078
F078
F078
F078
F078
ENDCHAR
STARTCHAR uni04BB
ENCODING 1211
SWIDTH 480 0
DWIDTH 15 0
BBX 11 20 1 0
BITMAP
6000
F000
F000
F000
F000
F000
F000
F000
F700
FF80
FBC0
F0E0
F0E0
F0E0
F0E0
F0E0
F0E0
F0E0
F0E0
F0E0
ENDCHAR
STARTCHAR uni04BC
ENCODING 1212
SWIDTH 480 0
DWIDTH 15 0
BBX 14 20 0 0
BITMAP
03C0
03E0
0F70
1E78
1C3C
DC3C
DC3C
DC3C
7FFC
3FF8
1C00
1C00
1C00
1C00
1C00
1C18
1C3C
0F70
07F0
03E0
ENDCHAR
STARTCHAR uni04BD
ENCODING 1213
SWIDTH 480 0
DWIDTH 15 0
BBX 14 12 0 0
BITMAP
03F0
87F8
CF3C
DC3C
FFFC
7FFC
1C00
1C00
1C00
0F3C
07F8
03F0
ENDCHAR
STARTCHAR uni04BE
ENCODING 1214
SWIDTH 480 0
DWIDTH 15 0
BBX 14 25 0 -5
BITMAP
03C0
03E0
0F70
1E78
1C3C
DC3C
DC3C
DC3C
7FFC
3FF8
1C00
1C00
1C00
1C00
1C00
1C18
1C3C
0F70
07F0
03E0
01E0
01E8
01EC
0070
0070
ENDCHAR
STARTCHAR uni04BF
ENCODING 1215
SWIDTH 480 0
DWIDTH 15 0
BBX 14 17 0 -5
BITMAP
03F0
87F8
CF3C
DC3C
FFFC
7FFC
1C00
1C00
1C00
0F3C
07F8
03F0
01E0
01E8
01EC
0070
0070
ENDCHAR
STARTCHAR uni04C0
ENCODING 1216
SWIDTH 480 0
DWIDTH 15 0
BBX 13 20 1 0
BITMAP
7FF0
FFF8
0700
0700
0700
0700
0700
0700
0700
0700
0700
0700
0700
0700
0700
0700
0700
0700
7FF0
FFF8
ENDCHAR
STARTCHAR uni04C1
ENCODING 1217
SWIDTH 480 0
DWIDTH 15 0
BBX 13 23 1 0
BITMAP
38E0
38E0
1FC0
0F80
0000
F778
F778
F778
F778
F778
F778
3FE0
3FE0
1FC0
3FE0
7FF0
F778
F778
F778
F778
F778
F778
F778
ENDCHAR
STARTCHAR uni04C2
ENCODING 1218
SWIDTH 480 0
DWIDTH 15 0
BBX 13 17 1 0
BITMAP
38E0
38E0
1FC0
0F80
0000
F778
F778
F778
F778
7FF0
3FE0
3FE0
7FF0
F778
F778
F778
F778
ENDCHAR
STARTCHAR uni04C3
ENCODING 1219
SWIDTH 480 0
DWIDTH 15 0
BBX 13 23 1 -3
BITMAP
6010
F018
F078
F0F0
F0E0
F0E0
F1E0
F3C0
F3C0
FFC0
FFC0
F0E0
F0F0
F078
F078
F078
F078
F078
F078
F078
00E0
0FE0
1FC0
ENDCHAR
STARTCHAR uni04C4
ENCODING 1220
SWIDTH 480 0
DWIDTH 15 0
BBX 13 15 1 -3
BITMAP
F078
F0F0
F0E0
F3C0
FF80
FF00
FFE0
FFF0
F078
F078
F078
F078
0078
0FF0
1FE0
ENDCHAR
STARTCHAR uni04C5
ENCODING 1221
SWIDTH 480 0
DWIDTH 15 0
BBX 14 25 1 -5
BITMAP
07F0
07F8
1E78
3C78
3878
3878
3878
3878
3878
3878
3878
3878
3878
3878
3878
3878
3878
F878
F87C
F07C
001C
003C
0078
00E0
00E0
ENDCHAR
STARTCHAR uni04C6
ENCODING 1222
SWIDTH 480 0
DWIDTH 15 0
BBX 14 17 1 -5
BITMAP
07F8
0FF8
1E78
3878
3878
3878
3878
3878
3878
3878
787C
F07C
001C
003C
0078
00E0
00E0
ENDCHAR
STARTCHAR uni04C7
ENCODING 1223
SWIDTH 480 0
DWIDTH 15 0
BBX 13 23 1 -3
BITMAP
6030
F078
F078
F078
F078
F078
F078
F078
F078
FFF8
FFF8
F078
F078
F078
F078
F078
F078
F078
F078
F078
0078
0FF0
1FE0
ENDCHAR
STARTCHAR uni04C8
ENCODING 1224
SWIDTH 480 0
DWIDTH 15 0
BBX 13 15 1 -3
BITMAP
F078
F078
F078
F078
FFF8
FFF8
F078
F078
F078
F078
F078
F078
0078
0FF0
1FE0
ENDCHAR
STARTCHAR uni04C9
ENCODING 1225
SWIDTH 480 0
DWIDTH 15 0
BBX 14 25 1 -5
BITMAP
6030
F078
F078
F078
F078
F078
F078
F078
F078
FFF8
FFF8
F078
F078
F078
F078
F078
F078
F078
F07C
F07C
001C
003C
0078
00E0
00E0
ENDCHAR
STARTCHAR uni04CA
ENCODING 1226
SWIDTH 480 0
DWIDTH 15 0
BBX 14 17 1 -5
BITMAP
F078
F078
F078
F078
FFF8
FFF8
F078
F078
F078
F078
F07C
F07C
001C
003C
0078
00E0
00E0
ENDCHAR
STARTCHAR uni04CB
ENCODING 1227
SWIDTH 480 0
DWIDTH 15 0
BBX 13 23 1 -3
BITMAP
6030
F078
F078
F078
F078
F078
F078
F078
F078
F078
F078
3FF8
3FF8
0078
0078
0078
0078
0078
00F8
00F8
00E0
00E0
00E0
ENDCHAR
STARTCHAR uni04CC
ENCODING 1228
SWIDTH 480 0
DWIDTH 15 0
BBX 13 15 1 -3
BITMAP
F078
F078
F078
F078
F078
F078
3FF8
3FF8
0078
0078
00F8
00F8
00E0
00E0
00E0
ENDCHAR
STARTCHAR uni04CD
ENCODING 1229
SWIDTH 480 0
DWIDTH 15 0
BBX 14 25 1 -5
BITMAP
6030
F078
F078
F8F8
F8F8
F8F8
FFF8
FFF8
F778
F778
F778
F778
F778
F778
F078
F078
F078
F078
F07C
F07C
001C
003C
0078
00E0
00E0
ENDCHAR
STARTCHAR uni04CE
ENCODING 1230
SWIDTH 480 0
DWIDTH 15 0
BBX 14 17 1 -5
BITMAP
F078
F8F8
F8F8
FFF8
FFF8
F778
F778
F778
F778
F078
F07C
F07C
001C
003C
0078
00E0
00E0
ENDCHAR
STARTCHAR uni04CF
ENCODING 1231
SWIDTH 480 0
DWIDTH 15 0
BBX 7 20 4 0
BITMAP
7C
FE
38
38
38
38
38
38
38
38
38
38
38
38
38
38
38
38
7C
FE
ENDCHAR
STARTCHAR uni04D0
ENCODING 1232
SWIDTH 480 0
DWIDTH 15 0
BBX 13 23 1 0
BITMAP
38E0
38E0
1FC0
0F80
0000
0700
0F80
1FC0
38E0
38E0
38E0
F078
F078
F078
FFF8
FFF8
F078
F078
F078
F078
F078
F078
F078
ENDCHAR
STARTCHAR uni04D1
ENCODING 1233
SWIDTH 480 0
DWIDTH 15 0
BBX 13 17 1 0
BITMAP
38E0
38E0
1FC0
0F80
0000
1FE0
3FF0
3878
0078
3FF8
3FF8
F078
F078
F078
F078
7FF8
3FD8
ENDCHAR
STARTCHAR uni04D2
ENCODING 1234
SWIDTH 480 0
DWIDTH 15 0
BBX 13 23 1 0
BITMAP
38E0
38E0
38E0
38E0
0000
0700
0F80
1FC0
38E0
38E0
38E0
F078
F078
F078
FFF8
FFF8
F078
F078
F078
F078
F078
F078
F078
ENDCHAR
STARTCHAR uni04D3
ENCODING 1235
SWIDTH 480 0
DWIDTH 15 0
BBX 13 17 1 0
BITMAP
38E0
38E0
38E0
38E0
0000
3FE0
7FF0
F078
0078
3FF8
3FF8
F078
F078
F078
F078
7FF8
3FD8
ENDCHAR
STARTCHAR uni04D4
ENCODING 1236
SWIDTH 480 0
DWIDTH 15 0
BBX 13 20 1 0
BITMAP
07F0
07F8
1FC0
3FC0
3BC0
3BC0
7BC0
F3C0
F3C0
FFF0
FFF8
F3C0
F3C0
F3C0
F3C0
F3C0
F3C0
F3C0
F3F0
F3F8
ENDCHAR
STARTCHAR uni04D5
ENCODING 1237
SWIDTH 480 0
DWIDTH 15 0
BBX 13 12 1 0
BITMAP
3EE0
7FF0
C778
0778
07F0
07E0
3F00
7F00
F700
F718
7FF0
3BE0
ENDCHAR
STARTCHAR uni04D6
ENCODING 1238
SWIDTH 480 0
DWIDTH 15 0
BBX 13 23 1 0
BITMAP
38E0
38E0
1FC0
0F80
0000
FFF8
FFF0
F000
F000
F000
F000
F000
FF80
FFC0
F000
F000
F000
F000
F000
F000
F000
FFF0
FFF8
ENDCHAR
STARTCHAR uni04D7
ENCODING 1239
SWIDTH 480 0
DWIDTH 15 0
BBX 13 17 1 0
BITMAP
38E0
38E0
1FC0
0F80
0000
1FC0
3FE0
38E0
F078
FFF8
FFF8
F000
F000
F000
3878
3FF0
1FE0
ENDCHAR
STARTCHAR uni04D8
ENCODING 1240
SWIDTH 480 0
DWIDTH 15 0
BBX 13 20 1 0
BITMAP
0F80
1FC0
38E0
78F0
F078
0078
0078
0078
0078
7FF8
FFF8
F078
F078
F078
F078
78F0
38E0
38E0
3FE0
1FC0
ENDCHAR
STARTCHAR afii10846
ENCODING 1241
SWIDTH 480 0
DWIDTH 15 0
BBX 13 12 1 0
BITMAP
3FC0
7FE0
F0E0
0078
0078
0078
FFF8
FFF8
F078
38E0
3FE0
1FC0
ENDCHAR
STARTCHAR uni04DA
ENCODING 1242
SWIDTH 480 0
DWIDTH 15 0
BBX 13 23 1 0
BITMAP
38E0
38E0
38E0
38E0
0000
1FC0
3FE0
38E0
F078
6078
0078
0078
7FF8
FFF8
F078
F078
F078
F078
78F0
38E0
38E0
3FE0
1FC0
ENDCHAR
STARTCHAR uni04DB
ENCODING 1243
SWIDTH 480 0
DWIDTH 15 0
BBX 13 17 1 0
BITMAP
38E0
38E0
38E0
38E0
0000
3FC0
7FE0
F0E0
0078
0078
0078
FFF8
FFF8
F078
38E0
3FE0
1FC0
ENDCHAR
STARTCHAR uni04DC
ENCODING 1244
SWIDTH 480 0
DWIDTH 15 0
BBX 13 23 1 0
BITMAP
38E0
38E0
38E0
38E0
0000
F778
F778
F778
F778
F778
F778
3FE0
3FE0
1FC0
3FE0
7FF0
F778
F778
F778
F778
F778
F778
F778
ENDCHAR
STARTCHAR uni04DD
ENCODING 1245
SWIDTH 480 0
DWIDTH 15 0
BBX 13 17 1 0
BITMAP
38E0
38E0
38E0
38E0
0000
F778
F778
F778
F778
7FF0
3FE0
3FE0
7FF0
F778
F778
F778
F778
ENDCHAR
STARTCHAR uni04DE
ENCODING 1246
SWIDTH 480 0
DWIDTH 15 0
BBX 13 23 1 0
BITMAP
38E0
38E0
38E0
38E0
0000
1FC0
3FE0
38E0
F078
F078
F078
00E0
07E0
07C0
00E0
00F0
0078
F078
F078
F078
38E0
3FE0
1FC0
ENDCHAR
STARTCHAR uni04DF
ENCODING 1247
SWIDTH 480 0
DWIDTH 15 0
BBX 13 17 1 0
BITMAP
38E0
38E0
38E0
38E0
0000
3FE0
7FF0
F078
0078
07F0
07E0
03E0
01F0
0078
F078
7FF0
3FE0
ENDCHAR
STARTCHAR uni04E0
ENCODING 1248
SWIDTH 480 0
DWIDTH 15 0
BBX 13 20 1 0
BITMAP
7FF0
FFF8
0078
00F0
00E0
00E0
01E0
03C0
1FC0
0FE0
00E0
0078
0078
0078
F078
F078
F078
38E0
3FE0
1FC0
ENDCHAR
STARTCHAR uni04E1
ENCODING 1249
SWIDTH 480 0
DWIDTH 15 0
BBX 13 20 1 -6
BITMAP
7FF0
FFF8
0078
00F0
00E0
00E0
01E0
03C0
1FC0
0FE0
00E0
0078
0078
0078
F078
F078
F078
38E0
3FE0
1FC0
ENDCHAR
STARTCHAR uni04E2
ENCODING 1250
SWIDTH 480 0
DWIDTH 15 0
BBX 13 23 1 0
BITMAP
7FF0
FFF8
0000
6030
F078
F078
F078
F078
F078
F0F8
F0F8
F3F8
F7F8
F7F8
FF78
FF78
FE78
F878
F878
F078
F078
F078
F078
ENDCHAR
STARTCHAR uni04E3
ENCODING 1251
SWIDTH 480 0
DWIDTH 15 0
BBX 13 15 1 0
BITMAP
FFF8
7FF0
0000
F078
F078
F078
F0F8
F1F8
F3F8
F778
FF78
FE78
F878
F878
F078
ENDCHAR
STARTCHAR uni04E4
ENCODING 1252
SWIDTH 480 0
DWIDTH 15 0
BBX 13 23 1 0
BITMAP
38E0
38E0
38E0
38E0
0000
F078
F078
F078
F078
F0F8
F0F8
F3F8
F7F8
F7F8
FF78
FF78
FE78
F878
F878
F078
F078
F078
F078
ENDCHAR
STARTCHAR uni04E5
ENCODING 1253
SWIDTH 480 0
DWIDTH 15 0
BBX 13 17 1 0
BITMAP
38E0
38E0
38E0
38E0
0000
F078
F078
F078
F0F8
F1F8
F3F8
F778
FF78
FE78
F878
F878
F078
ENDCHAR
STARTCHAR uni04E6
ENCODING 1254
SWIDTH 480 0
DWIDTH 15 0
BBX 13 23 1 0
BITMAP
38E0
38E0
38E0
38E0
0000
1FC0
3FE0
38E0
F078
F078
F078
F078
F078
F078
F078
F078
F078
F078
F078
F078
38E0
3FE0
1FC0
ENDCHAR
STARTCHAR uni04E7
ENCODING 1255
SWIDTH 480 0
DWIDTH 15 0
BBX 13 17 1 0
BITMAP
38E0
38E0
38E0
38E0
0000
1FC0
3FE0
38E0
F078
F078
F078
F078
F078
F078
38E0
3FE0
1FC0
ENDCHAR
STARTCHAR uni04E8
ENCODING 1256
SWIDTH 480 0
DWIDTH 15 0
BBX 13 20 1 0
BITMAP
0F80
1FC0
38E0
78F0
F078
F078
F078
F078
F078
FFF8
FFF8
F078
F078
F078
F078
F078
F078
38E0
3FE0
1FC0
ENDCHAR
STARTCHAR uni04E9
ENCODING 1257
SWIDTH 480 0
DWIDTH 15 0
BBX 13 12 1 0
BITMAP
1FC0
3FE0
38E0
F078
FFF8
FFF8
F078
F078
F078
38E0
3FE0
1FC0
ENDCHAR
STARTCHAR uni04EA
ENCODING 1258
SWIDTH 480 0
DWIDTH 15 0
BBX 13 23 1 0
BITMAP
38E0
38E0
38E0
38E0
0000
1FC0
3FE0
38E0
F078
F078
F078
F078
FFF8
FFF8
F078
F078
F078
F078
F078
F078
38E0
3FE0
1FC0
ENDCHAR
STARTCHAR uni04EB
ENCODING 1259
SWIDTH 480 0
DWIDTH 15 0
BBX 13 17 1 0
BITMAP
38E0
38E0
38E0
38E0
0000
1FC0
3FE0
38E0
F078
FFF8
FFF8
F078
F078
F078
38E0
3FE0
1FC0
ENDCHAR
ENDFONT
